<svg xmlns="http://www.w3.org/2000/svg" width="320" height="320" viewBox="0 0 320 320"><path d="M68.764 0C56.082 0 45.717 10.312 45.717 23.021v273.907c0 12.707 10.365 23.072 23.047 23.072h182.447c12.76 0 23.072-10.366 23.072-23.072V82.45c.001-.782-.235-1.51-.47-2.291.081-3.075-.648-6.042-2.888-8.282L202.382 3.334c-2.214-2.24-5.234-2.969-8.28-2.918C193.347.262 192.62 0 191.787 0H68.764zm-.002 22.813h114.09v48.021c0 12.708 7.89 20.57 20.573 20.57h48.045v205.524c0 .104-.154.208-.259.208l-182.632-.208.183-274.115zm136.954 16.198l29.556 29.53-29.556-.051V39.011zM87.402 141.067v54.454h11.304v-19.585h11.326c5.937 0 10.469-1.327 13.672-3.983 3.177-2.657 4.766-7.19 4.766-13.621 0-5.886-1.587-10.234-4.79-13.046-3.204-2.812-7.5-4.22-12.891-4.22H87.402zm50.182.002v54.452h23.489c8.228 0 14.299-3.383 18.257-10.155 2.916-5.026 4.347-11.148 4.347-18.387 0-2.866-.339-5.86-1.016-9.01-.702-3.151-2.003-6.095-3.878-8.802-2.37-3.36-5.47-5.653-9.298-6.903-2.24-.756-5.052-1.144-8.412-1.195h-23.489zm54.636.075v54.375h11.302V172.68h24.115v-9.452h-24.115v-12.502h27.526v-9.583H192.22zm-93.514 9.375h10.259c2.603 0 4.608.624 6.041 1.822 1.459 1.198 2.163 3.231 2.163 6.07 0 2.813-.704 4.894-2.163 6.197-1.432 1.302-3.437 1.955-6.041 1.955h-10.26v-16.044zm49.92 0h10.52c5.183 0 8.621 1.486 10.366 4.454 1.745 2.969 2.603 7.24 2.603 12.76 0 4.037-.572 7.474-1.718 10.39-2.135 5.288-5.886 7.945-11.25 7.945h-10.52V150.52z"/></svg>