<svg xmlns="http://www.w3.org/2000/svg" width="320" height="320" viewBox="0 0 320 320">
    <path d="M72.669 0C58.856 0 47.624 11.232 47.624 25.045v37.42H35.543a10.732 10.732 0 0 0-10.74 10.737c0 5.937 4.803 10.74 10.74 10.74h12.08v65.318h-12.08A10.734 10.734 0 0 0 24.803 160c0 5.936 4.803 10.74 10.74 10.74h12.08v65.274h-12.08a10.734 10.734 0 0 0-10.74 10.74c0 5.936 4.803 10.74 10.74 10.74h12.08v37.46C47.624 308.769 58.857 320 72.67 320h197.483c13.813 0 25.045-11.232 25.045-25.045V25.045C295.196 11.232 283.964 0 270.152 0H72.669zm0 21.48h197.483c1.93 0 3.565 1.635 3.565 3.565v269.91a3.575 3.575 0 0 1-3.565 3.565H72.669a3.575 3.575 0 0 1-3.566-3.565V257.49h12.125a10.73 10.73 0 0 0 10.738-10.737c0-5.937-4.801-10.74-10.738-10.74H69.103v-65.276h12.125a10.732 10.732 0 0 0 10.738-10.74c0-5.937-4.801-10.74-10.738-10.74H69.103V83.942h12.125a10.732 10.732 0 0 0 10.738-10.74 10.73 10.73 0 0 0-10.738-10.737H69.103v-37.42c0-1.93 1.636-3.565 3.566-3.565zm101.5 62.925c-23.157 0-41.994 18.836-41.994 41.993 0 12.395 5.5 23.433 14.067 31.126-18.66 7.48-36.636 21.255-36.636 39.433 0 29.197 43.493 38.636 64.562 38.636 21.07 0 64.562-9.439 64.562-38.636 0-18.178-17.975-31.953-36.635-39.433 8.567-7.693 14.066-18.732 14.066-31.126 0-23.157-18.836-41.993-41.993-41.993zm0 21.477c11.315 0 20.515 9.2 20.515 20.516 0 11.316-9.2 20.513-20.516 20.513-11.316 0-20.513-9.197-20.513-20.513 0-11.317 9.197-20.516 20.513-20.516zm0 66.83c16.37 0 43.081 13.55 43.081 24.247 0 8.84-24.267 17.157-43.082 17.157-18.814 0-43.082-8.316-43.082-17.157 0-10.696 26.711-24.247 43.082-24.247z"/>
</svg>
