<svg xmlns="http://www.w3.org/2000/svg" width="320" height="320" viewBox="0 0 320 320">
    <path d="M180.281 320h-60.913a10.924 10.924 0 0 1-10.93-10.931V170.93H88.922A10.924 10.924 0 0 1 77.992 160v-59.654a10.924 10.924 0 0 1 10.931-10.93h19.258V73.401C108.18 39.54 127.844 0 183.249 0l47.12.171c6.02.022 10.888 4.91 10.888 10.931v51.07a10.924 10.924 0 0 1-10.93 10.931h-34.182c-1.9 0-2.54 0-2.54 3.416v12.896h37.47a10.93 10.93 0 0 1 8.08 3.565 10.973 10.973 0 0 1 2.808 8.38l-5.55 59.653a10.937 10.937 0 0 1-10.89 9.917h-34.31v138.138A10.927 10.927 0 0 1 180.281 320zm-49.98-21.863h39.049V160a10.924 10.924 0 0 1 10.931-10.931h35.282l3.512-37.79h-36.403a10.924 10.924 0 0 1-10.931-10.932V76.52c0-17.368 12.65-25.279 24.404-25.279h23.25v-29.25l-36.189-.128c-47.974 0-53.162 36.04-53.162 51.54v26.944a10.924 10.924 0 0 1-10.93 10.932h-19.26v37.79h19.514A10.924 10.924 0 0 1 130.3 160v138.137z"/>
</svg>
