<svg xmlns="http://www.w3.org/2000/svg" width="320" height="320" viewBox="0 0 320 320">
    <path d="M269.001 0H55.007C25.46 0 15.285 16.725 15.285 29.349v270.699c0 13.49 9.978 17.335 14.714 18.84 4.815 1.538 17.023 2.532 25.752-4.422 0 0 101.596-90.319 103.239-91.76 1.605-1.506 7.476-3.524 8.493-3.524h64.22c27.515 0 27.827-17.847 30.683-27.106 2.387-7.752 29.938-117.777 39.645-152.539C310.054 10.924 300.388 0 269.001 0M256.32 45.08l-9.666 37.165c-1.056 4.038-5.635 8.105-11.506 8.555h-83.554c-9.353-.45-17.024 5.158-17.024 12.657v8.202c0 7.496 7.67 15.25 17.024 15.25h70.796c6.574 0 12.17 3.427 10.762 9.068-1.448 5.702-8.844 34.794-9.666 37.87-.784 3.107-4.306 9.387-11 9.387h-55.61c-10.449 0-20.86-.095-27.865 6.921-7.043 7.05-69.66 65.073-69.66 65.073V41.94c0-5.416 4.813-9.196 10.956-9.163h173.254c6.302-.033 14.051 5.062 12.759 12.303"/>
</svg>
