<svg xmlns="http://www.w3.org/2000/svg" width="320" height="320" viewBox="0 0 320 320">
    <path d="M311.196 39.332a133.564 133.564 0 0 1-41.738 15.386c-11.951-12.303-29.005-19.984-47.879-19.984-36.28 0-65.678 28.323-65.678 63.264a61.3 61.3 0 0 0 1.731 14.428c-54.599-2.678-102.982-27.817-135.348-66.12-5.634 9.323-8.906 20.212-8.906 31.808 0 21.957 11.635 41.31 29.232 52.655-10.738-.355-20.894-3.184-29.737-7.934v.808c0 30.622 22.612 56.216 52.679 62.027-5.495 1.415-11.307 2.223-17.295 2.223a68.57 68.57 0 0 1-12.367-1.137c8.35 25.114 32.592 43.405 61.332 43.911-22.486 16.954-50.784 27.11-81.57 27.11-5.305 0-10.498-.353-15.652-.91 29.068 17.939 63.58 28.4 100.632 28.4 120.783 0 186.788-96.339 186.788-179.941 0-2.754-.011-5.484-.139-8.187 12.81-8.918 23.952-20.036 32.719-32.77-11.724 5.079-24.395 8.464-37.67 9.98 13.53-7.83 23.927-20.211 28.866-35.017"/>
</svg>
