<svg xmlns="http://www.w3.org/2000/svg" width="360" height="320" viewBox="0 0 360 320">
    <path d="M133.162 0a20.269 20.269 0 0 0-18.829 12.762L3.06 292.229c-4.135 10.399.939 22.183 11.328 26.328 10.427 4.136 22.182-.94 26.327-11.33l35.717-89.705h112.884l35.421 89.657c3.147 7.964 10.786 12.821 18.859 12.821a20.36 20.36 0 0 0 7.44-1.424c10.408-4.116 15.503-15.89 11.397-26.298L152.01 12.813A20.282 20.282 0 0 0 133.192 0h-.03zm-.07 75.222l40.212 101.776H92.568l40.524-101.776zm110.492 26.505c-11.19 0-20.263 9.071-20.263 20.261s9.073 20.263 20.263 20.263h94.534c11.19 0 20.263-9.073 20.263-20.263 0-11.19-9.073-20.26-20.263-20.26h-94.534z"/>
</svg>
