<svg xmlns="http://www.w3.org/2000/svg" width="320" height="320" viewBox="0 0 320 320">
    <path d="M160 0C71.761 0 0 71.82 0 160c0 88.239 71.761 160 160 160 88.183 0 160-71.762 160-160C320 71.82 248.183 0 160 0zm0 29.09c72.16 0 130.91 58.753 130.91 130.91 0 72.218-58.75 130.91-130.91 130.91-72.216 0-130.91-58.692-130.91-130.91C29.09 87.843 87.785 29.09 160 29.09zM92.5 145.455c-8.012 0-14.545 6.536-14.545 14.545 0 8.07 6.533 14.545 14.545 14.545h134.943A14.502 14.502 0 0 0 241.99 160c0-8.009-6.477-14.545-14.545-14.545H92.5z"/>
</svg>
