<svg xmlns="http://www.w3.org/2000/svg" width="320" height="320" viewBox="0 0 320 320">
    <path d="M225.568 34.313a7.685 7.685 0 0 0-.892.088L8.064 60.881a9.19 9.19 0 0 0-6.122 3.45 9.192 9.192 0 0 0-1.874 6.768l19.935 163.019c.296 2.428 2.322 4.534 4.25 6.031 1.02.796 2.416 1.238 3.86 1.519.824.244 1.644.516 2.548.516l15.371.008 144.187.089a43.465 43.465 0 0 1 6.653-14.496l2.719-3.856-144.36-.085.07-124.879 199.868.117-.027 46.073c4.855-6.747 11.275-11.687 18.368-14.663l.025-40.572a9.241 9.241 0 0 0-2.68-6.497 9.184 9.184 0 0 0-6.488-2.689l-24.791-.016-4.681-38.32a9.155 9.155 0 0 0-3.453-6.123c-1.678-1.302-3.787-2.048-5.874-1.963zm-7.777 19.424l3.296 26.971L46.139 80.6h-.008c-5.064 0-9.178 4.107-9.178 9.17l-.082 131.059L19.402 77.982l198.39-24.245zM78.533 114.383a6.876 6.876 0 0 0-4.866 2.017 6.873 6.873 0 0 0-2.017 4.858l-.036 53.62c0 3.81 3.074 6.892 6.875 6.892l40.283.027h.008a6.876 6.876 0 0 0 4.866-2.017 6.873 6.873 0 0 0 2.017-4.858l.036-53.62c0-3.81-3.074-6.893-6.874-6.893l-40.282-.026h-.01zm63.014.044a6.886 6.886 0 0 0-6.883 6.885 6.878 6.878 0 0 0 6.883 6.883l94.745.055c3.801 0 6.883-3.085 6.883-6.885s-3.073-6.883-6.883-6.883l-94.745-.055zM85.41 128.16l26.514.01-.019 39.852-26.513-.01.018-39.852zm203.972 10.739c-9.329.016-18.543 4.271-24.545 12.308l-24.217 32.458c-1.304 1.75-2.368 3.623-3.259 5.564 2.329-.856 4.748-1.514 7.264-1.881 2.034-.289 4.057-.325 6.069-.277l22.25-29.822c4.022-5.39 10.213-8.245 16.476-8.245a20.43 20.43 0 0 1 12.235 4.058c9.068 6.772 10.944 19.655 4.177 28.728L283.6 211.583l-1.989 2.664c-.604.81-1.308 1.492-2.002 2.184a20.295 20.295 0 0 1-9.458 5.34c-1.64.41-3.31.642-5.002.642-4.27.003-8.571-1.25-12.251-3.99-3.616-2.7-6.033-6.384-7.268-10.397-3.27.917-6.226 2.614-8.27 5.354l-.307.411c2.084 5.004 5.362 9.423 9.803 12.73 4.433 3.314 9.585 5.227 14.968 5.802 1.078.115 2.153.258 3.247.258.872 0 1.754-.115 2.633-.19.624-.052 1.244-.046 1.868-.137 3.604-.527 6.972-1.745 10.081-3.412 2.008-1.076 3.91-2.319 5.63-3.822 1.617-1.412 3.12-2.972 4.431-4.73l24.223-32.46c10.094-13.534 7.295-32.775-6.24-42.864a30.411 30.411 0 0 0-18.315-6.068zm-147.852 2.34a6.887 6.887 0 0 0-6.884 6.884 6.88 6.88 0 0 0 6.884 6.883l94.744.054a6.885 6.885 0 0 0 6.883-6.885c0-3.8-3.073-6.882-6.883-6.882l-94.744-.055zm-.018 26.799c-3.8 0-6.885 3.083-6.885 6.875a6.884 6.884 0 0 0 6.885 6.895l87.736.058 9.398-13.33a6.857 6.857 0 0 0-2.39-.434l-94.736-.064h-.008zm108.643 24.113a31.84 31.84 0 0 0-2.962.115c-.614.053-1.223-.004-1.838.087-3.6.525-6.961 1.744-10.067 3.406-2.012 1.077-3.92 2.32-5.647 3.828-1.618 1.413-3.121 2.973-4.434 4.733l-24.217 32.459c-4.872 6.535-6.91 14.6-5.729 22.716 1.18 8.115 5.43 15.273 11.965 20.14a30.27 30.27 0 0 0 18.213 6.06 31.63 31.63 0 0 0 4.503-.324c8.115-1.185 15.266-5.43 20.143-11.965l24.22-32.459c1.37-1.836 2.455-3.79 3.356-5.798-4.033 1.511-8.239 2.5-12.536 2.5-.307-.001-.613-.066-.92-.074l-22.228 29.786c-6.757 9.073-19.639 10.93-28.711 4.177-9.067-6.772-10.94-19.647-4.173-28.72l22.228-29.792 1.989-2.666c.603-.81 1.31-1.51 2.014-2.212 2.604-2.597 5.84-4.39 9.449-5.292.677-.17 1.331-.4 2.032-.502 1-.137 2-.212 2.991-.214l.037-.002c4.392 0 8.632 1.392 12.19 4.047 3.615 2.701 6.03 6.384 7.267 10.398 3.27-.917 6.227-2.614 8.272-5.354l.307-.41c-2.042-4.883-5.261-9.344-9.804-12.73-4.432-3.318-9.598-5.198-14.98-5.772a29.927 29.927 0 0 0-2.93-.166zm-171.674 2.53a6.884 6.884 0 0 0 0 13.765l131.968.083 9.704-13.762-141.672-.087z"/>
</svg>
