<svg xmlns="http://www.w3.org/2000/svg" width="320" height="320" viewBox="0 0 320 320"><path d="M239.617 23.402c-11.747 0-21.494 9.758-21.494 21.52v23.48h-23.451c-11.747 0-21.494 9.76-21.494 21.522v8.96c0 11.763 9.747 21.52 21.494 21.52h23.451v23.48c0 11.763 9.747 21.522 21.494 21.522h8.95c11.747 0 21.494-9.76 21.494-21.521v-23.48h23.45c11.748 0 21.495-9.758 21.495-21.52v-8.961c0-11.762-9.747-21.522-21.494-21.522H270.06v-23.48c0-11.762-9.747-21.52-21.495-21.52h-8.949zm0 18.489h8.95c1.838 0 3.029 1.19 3.029 3.03v41.972h41.916c1.838 0 3.029 1.19 3.029 3.03v8.962c0 1.84-1.191 3.031-3.03 3.031h-41.915v41.969c0 1.84-1.191 3.031-3.03 3.031h-8.949c-1.838 0-3.027-1.19-3.027-3.031v-41.969h-41.918c-1.838 0-3.027-1.19-3.027-3.031v-8.961c0-1.84 1.189-3.031 3.027-3.031h41.918V44.922c0-1.84 1.189-3.031 3.027-3.031zM15.957 69.254C7.251 69.254.004 76.518.004 85.219v74.953c0 8.7 7.247 15.963 15.953 15.963h86.12c8.705 0 15.954-7.262 15.954-15.963V85.219c0-8.701-7.249-15.965-15.955-15.965H15.957zm134.336 0c-8.706 0-15.953 7.264-15.953 15.965v74.953c0 8.7 7.247 15.963 15.953 15.963h86.121c4.838 0 9.22-2.247 12.164-5.733h-8.961c-8.388 0-15.922-4.01-20.793-10.195h-68.531c-.02 0-.024.006-.035.01.004-.013.01-.02.01-.045V85.219c0-.026-.007-.034-.012-.047.011.004.016.01.037.01h18.33c1.176-6.38 4.667-11.997 9.56-15.928h-27.89zM15.92 85.172c.011.004.016.01.037.01h86.12c.02 0 .025-.006.036-.01-.004.013-.01.021-.01.047v74.953c0 .025.006.032.01.045-.01-.004-.016-.01-.037-.01H15.957c-.02 0-.026.006-.037.01.004-.013.01-.02.01-.045V85.219c0-.026-.006-.034-.01-.047zm.037 109.54c-8.706 0-15.953 7.263-15.953 15.964v74.953c0 8.7 7.247 15.965 15.953 15.965h86.12c8.705 0 15.954-7.264 15.954-15.965v-74.953c0-8.701-7.249-15.963-15.955-15.963H15.957zm134.338 0c-8.706 0-15.955 7.263-15.955 15.964v74.953c0 8.7 7.249 15.965 15.955 15.965h86.12c8.705 0 15.952-7.264 15.952-15.965v-74.953c0-8.701-7.247-15.963-15.953-15.963h-86.12zM15.92 210.632c.011.004.016.01.037.01h86.12c.02 0 .025-.006.036-.01-.004.013-.01.02-.01.045v74.953c0 .026.006.034.01.047-.01-.004-.016-.01-.037-.01H15.957c-.02 0-.026.006-.037.01.004-.013.01-.021.01-.047v-74.953c0-.025-.006-.032-.01-.045zm134.338 0c.011.004.016.01.037.01h86.12c.02 0 .025-.006.036-.01-.004.013-.01.02-.01.045v74.953c0 .026.006.034.01.047-.011-.004-.016-.01-.037-.01h-86.12c-.02 0-.025.006-.036.01.004-.013.01-.021.01-.047v-74.953c0-.025-.006-.032-.01-.045z"/></svg>