<svg xmlns="http://www.w3.org/2000/svg" width="320" height="320" viewBox="0 0 320 320"><path d="M293.983 8.332c-7.958.049-15.368 1.981-22.1 3.746l-3.54.926c-7.453 1.927-14.474 3.772-21.216 2.848-1.924-.253-3.817-.75-5.715-1.229-1.593-1.254-3.516-2.122-5.704-2.122a9.38 9.38 0 0 0-9.381 9.381v106.641l-59.741-59.535c-5.805-5.781-9.269-9.049-13.182-9.049-3.914 0-7.366 3.255-13.149 9.015L.55 208.213l-.549.549v8.068l.46.528c6.903 7.974 13.572 8.01 21.897-.404 31.908-32.193 64.526-64.768 96.075-96.273l27.292-27.26c1.832-1.832 3.73-3.591 5.76-5.475l1.958-1.832 1.994 1.876c2.022 1.892 3.911 3.656 5.736 5.482l27.262 27.233c31.555 31.511 64.181 64.1 96.12 96.294 4.249 4.287 7.928 6.278 11.555 6.278 3.585 0 6.947-1.942 10.297-5.95l.44-.522v-8.045l-61.757-61.54V85.677c1.604.255 3.103.702 4.817.702a26.5 26.5 0 0 0 2.932-.16c8.89-.99 17.53-2.999 27.107-5.227 10.356-2.388 17.763-3.193 24.856-.225 2.39.996 4.508.834 5.82.762H320V28.582c0-12.026-3.384-16.305-15.161-19.097-.776-.176-1.568-.317-2.718-.499a46.01 46.01 0 0 0-8.138-.654zm-.398 18.769c1.817-.04 3.614.07 5.394.38l1.617.28c.227.05.44.101.646.145v32.635c-9.184-1.246-18.116.477-26.764 2.463-8.192 1.905-15.925 3.707-23.707 4.573-1.489.157-3.54-.226-5.682-.718V34.467c10.135 1.276 19.647-1.147 29.345-3.666l2.206-.57c5.87-1.538 11.496-3.012 16.945-3.13zM37.615 219.527v1.878c.014 25.077.006 50.148-.111 75.225-.03 5.232 1.143 8.97 3.57 11.419 2.425 2.434 6.127 3.62 11.307 3.62h.086c67.29-.155 134.521-.155 202 0 5.144 0 8.83-1.18 11.25-3.614 2.476-2.484 3.62-6.127 3.597-11.47-.116-25.062-.126-50.117-.111-75.18v-1.878h-21.308l.007 70.069H58.913l.015-70.069H37.616z"/></svg>