<svg xmlns="http://www.w3.org/2000/svg" width="320" height="320" viewBox="0 0 320 320"><path d="M56.965 0C31.814 0 11.352 20.462 11.352 45.613c0 25.152 20.462 45.616 45.613 45.616s45.615-20.464 45.615-45.616C102.58 20.462 82.116 0 56.965 0zm0 18.98c14.688 0 26.635 11.945 26.635 26.633 0 14.689-11.947 26.635-26.635 26.635-14.689 0-26.633-11.946-26.633-26.635 0-14.688 11.944-26.633 26.633-26.633zm76.539 5.155a9.434 9.434 0 0 0-6.932 2.713 9.503 9.503 0 0 0-1.695 11.334l30.184 55.254a53.815 53.815 0 0 0-8.461-.66c-24.382 0-52.23 15.818-76.418 30.646a9.502 9.502 0 0 0-4.18 10.668 9.504 9.504 0 0 0 9.137 6.914h86.41c-8.827 12.006-16.664 27.762-22.99 45.611a9.465 9.465 0 0 0-.745 2.117c-5.896 17.113-10.408 36.05-13.084 55.385a9.413 9.413 0 0 0-.386 2.885c-2.81 21.829-3.262 44.068-.71 64.676a9.481 9.481 0 0 0 9.417 8.322h47.207a9.495 9.495 0 0 0 7.406-3.549 9.522 9.522 0 0 0 1.863-7.998c-3.86-17.342-14.1-75.722 1.33-151.937l38.362 76.463a9.484 9.484 0 0 0 8.478 5.236c.593 0 1.196-.055 1.79-.166a9.49 9.49 0 0 0 7.663-8.518c2.853-33.508 4.23-67.79-11.27-89.324l62.944 2.201c.111.01.223.01.334.01a9.492 9.492 0 0 0 9.037-6.598 9.478 9.478 0 0 0-3.8-10.802v-.002c-24.355-16.125-52.426-33.334-77.3-33.334-7.116 0-13.708 1.354-19.76 4.043a45.723 45.723 0 0 0-.673-4.182c-6.023-28.108-37.256-48.087-68.728-66.14a9.469 9.469 0 0 0-4.43-1.268zm25.4 36.75c14.783 10.575 26.516 22.14 29.194 34.633 1.111 5.199.675 10.603-1.354 16.32l-27.84-50.953zm68.19 49.777c10.852 0 23.42 4.782 36.209 11.52l-58.041-2.032c7.933-8.266 15.9-9.488 21.832-9.488zm-80.494 1.092c6.32 0 14.762 1.317 22.806 10.27h-58.06c12.482-6.035 24.697-10.27 35.254-10.27zm57.29 28.433c5.96 1.613 10.721 4.401 14.391 8.395 8.59 9.351 11.363 25.467 11.65 43.492l-26.04-51.887zm-33.4 21.778a434.578 434.578 0 0 0-4.252 29.377l-7.552-4.592c3.639-9.273 7.636-17.64 11.804-24.785zm-18.15 43.14l12.094 7.352c-.8 13.2-.928 25.461-.63 36.615l-19.652-8.224c2.001-12.524 4.81-24.564 8.188-35.743zm-10.59 55.315l23.168 9.695c1.004 12.566 2.46 23.006 3.82 30.905h-27.134c-1.139-13.566-.994-27.236.146-40.6z"/></svg>