<svg xmlns="http://www.w3.org/2000/svg" width="320" height="320" viewBox="0 0 320 320"><path d="M160.53 61.13c-31.753.004-63.507.016-95.26.04a22.92 22.92 0 0 0-6.305.889c-9.315 2.712-14.85 10.678-14.86 21.287-.023 28.412.002 56.825-.016 85.237-.004 5.347-.263 10.718 2.025 14.42-2.75 3.294-5.07 6.228-7.549 9.023-11.471 12.918-22.985 25.799-34.487 38.69-3.729 4.178-5.007 8.953-3.392 14.36 2.478 8.293 10.763 13.79 20.728 13.792 92.63.005 185.26.007 277.89-.02a28.74 28.74 0 0 0 5.827-.58c13.218-2.76 20.388-19.2 9.686-29.472-3.461-3.321-6.473-7.108-9.701-10.673-10.265-11.334-20.533-22.663-31.02-34.236 2.333-3.834 2.509-8.68 2.501-13.615-.043-28.591-.02-57.182-.025-85.773 0-1.335.008-2.676-.089-4.006-.801-11.011-9.652-19.346-20.696-19.35-31.753-.012-63.505-.016-95.258-.012zm-.066 13.362c31.253 0 62.506-.002 93.759 0 6.275.001 8.98 2.647 8.982 8.876.012 29.65.01 59.3 0 88.951-.003 5.788-3.303 9.057-9.097 9.057-62.594.002-125.19.002-187.785-.002-6.062 0-8.851-2.735-8.854-8.763-.014-29.829-.015-59.657.002-89.486.003-5.866 2.827-8.63 8.7-8.631 31.431-.004 62.862-.002 94.293-.002zm-4.968 25.105c-.406.098-.806.248-1.216.284-8.443.718-16.423 3.047-23.954 6.916-5.978 3.07-11.347 6.965-15.788 11.457l6.296 6.287c10.913-10.453 24.137-15.911 39.48-15.864 15.377.047 28.62 5.66 39.525 15.937l6.296-6.214c-.06-.07-.2-.265-.37-.428-8.655-8.234-18.767-13.83-30.405-16.548-3.44-.804-6.968-1.229-10.457-1.827h-9.407zm4.199 21.005c-11.364.056-22.624 4.355-30.788 12.78l6.247 6.236c6.903-6.599 15.268-9.975 24.91-9.938 9.664.038 18.04 3.554 24.803 9.826l6.244-6.243c-8.583-8.535-20.052-12.718-31.416-12.661zm.6 19.214c-3.59-.016-6.52 2.902-6.525 6.495-.004 3.604 2.893 6.49 6.511 6.486 3.632-.004 6.479-2.868 6.468-6.508a6.465 6.465 0 0 0-6.455-6.473zm-.02 3.609c1.61.004 2.86 1.26 2.865 2.88.005 1.637-1.211 2.873-2.84 2.885-1.628.012-2.887-1.206-2.922-2.822a2.893 2.893 0 0 1 2.896-2.943zm-101.4 51.285c67.582.037 135.165.035 202.748.008 3.14-.002 5.55 1.018 7.698 3.427 11.733 13.157 23.59 26.203 35.402 39.29 3.272 3.624 2.335 6.653-2.49 7.785-1.277.3-2.648.279-3.976.279-46.034.013-92.069.01-138.103.01-46.035 0-92.068.017-138.103-.05-2.063-.004-4.297-.406-6.149-1.27-2.58-1.203-2.812-3.508-.913-5.653 11.863-13.399 23.728-26.795 35.646-40.146 2.147-2.406 4.858-3.682 8.24-3.68z"/></svg>