<svg xmlns="http://www.w3.org/2000/svg" width="320" height="320" viewBox="0 0 320 320"><path d="M246.281 139.657v-53.33C246.281 38.75 207.516 0 159.937 0c-47.5 0-86.25 38.75-86.25 86.328v53.329H44.484V284.03c0 19.985 16.079 35.969 36.063 35.969h159.125c19.844 0 35.844-15.984 35.844-35.969V139.657h-29.235zM98.702 82.28c0-32.172 27.344-58.25 60.907-58.25 33.765 0 61.047 26.078 61.047 58.25v57.376H98.702V82.28zM251.25 289.188c0 2.359-1.797 4.11-4.016 4.11H72.984c-2.328 0-4.219-1.75-4.219-4.11V166.359H251.25v122.829z"/></svg>