<svg xmlns="http://www.w3.org/2000/svg" width="320" height="320" viewBox="0 0 320 320"><path d="M160.004 0c-42.32 0-76.758 34.437-76.758 76.758v54.715H67.77c-17.013 0-30.852 13.839-30.852 30.851v126.824c0 17.013 13.84 30.852 30.852 30.852h184.46c17.013 0 30.852-13.84 30.852-30.852V162.324c-.001-17.012-13.84-30.851-30.853-30.851h-15.475V76.758c0-42.321-34.43-76.758-76.75-76.758zm0 20.568c30.982 0 56.18 25.208 56.18 56.19v54.715H204.02V76.758c0-.18-.092-.33-.101-.506-.553-23.8-19.998-43.01-43.926-43.01s-43.365 19.21-43.916 43.01c-.009.177-.101.327-.101.506v54.715h-12.163V76.758c0-30.982 25.208-56.19 56.19-56.19zm-.01 33.24c12.936 0 23.461 10.516 23.461 23.452v54.213h-46.912V77.26c0-12.936 10.516-23.451 23.451-23.451zM67.77 152.042h184.46c5.675 0 10.284 4.61 10.284 10.283v126.824c0 5.675-4.61 10.284-10.284 10.284H67.77c-5.675 0-10.284-4.61-10.284-10.284V162.324c0-5.675 4.61-10.283 10.284-10.283zm92.294 31.635c-16.078 0-29.164 13.075-29.164 29.154 0 7.272 2.852 14.172 7.963 19.545l-6.457 25.84a7.724 7.724 0 0 0 1.405 6.619 7.716 7.716 0 0 0 6.076 2.963h40.232c2.37 0 4.61-1.094 6.076-2.953a7.765 7.765 0 0 0 1.416-6.61l-6.386-25.83c5.132-5.373 7.994-12.283 7.994-19.574 0-16.079-13.076-29.154-29.155-29.154zm.002 15.426c7.573 0 13.727 6.156 13.727 13.728 0 5.594-3.614 9.118-5.764 10.725a7.698 7.698 0 0 0-2.892 8.035l5.13 20.78h-20.505l5.191-20.77a7.703 7.703 0 0 0-2.863-8.045c-2.16-1.607-5.764-5.14-5.764-10.725 0-7.572 6.167-13.728 13.74-13.728z"/></svg>