<svg xmlns="http://www.w3.org/2000/svg" width="320" height="320" viewBox="0 0 320 320"><path d="M160 0c-2.564 0-5.127.958-6.922 2.874l-15.282 16.339-20.613-8.701a9.514 9.514 0 0 0-7.535.064 9.46 9.46 0 0 0-5.1 5.554L97.2 37.261l-22.4.453a9.487 9.487 0 0 0-6.85 3.136 9.486 9.486 0 0 0-2.397 7.155l1.916 22.28-20.28 9.534a9.488 9.488 0 0 0-4.978 5.655 9.487 9.487 0 0 0 .721 7.507l10.802 19.558-14.642 16.938a9.493 9.493 0 0 0-2.249 7.202 9.452 9.452 0 0 0 3.703 6.561l17.844 13.495-6.46 21.41a9.473 9.473 0 0 0 6.914 11.968l21.75 5.09 2.806 22.205a9.458 9.458 0 0 0 3.832 6.488 9.545 9.545 0 0 0 7.358 1.64l11.8-2.265v87.253a9.486 9.486 0 0 0 4.887 8.293 9.494 9.494 0 0 0 9.618-.26l39.07-24.426 39.114 24.434a9.467 9.467 0 0 0 5.017 1.435 9.562 9.562 0 0 0 4.599-1.183 9.5 9.5 0 0 0 4.88-8.293v-87.248l11.845 2.261a9.636 9.636 0 0 0 1.779.166 9.486 9.486 0 0 0 9.405-8.301l2.775-22.197 21.78-5.09a9.502 9.502 0 0 0 6.054-4.489 9.476 9.476 0 0 0 .862-7.479l-6.461-21.41 17.844-13.495a9.47 9.47 0 0 0 3.7-6.574 9.423 9.423 0 0 0-2.259-7.191l-14.66-16.938L277.03 92.98a9.487 9.487 0 0 0 .722-7.507 9.494 9.494 0 0 0-4.979-5.655l-20.28-9.535 1.916-22.28a9.485 9.485 0 0 0-2.397-7.154 9.485 9.485 0 0 0-6.85-3.136l-22.389-.453-7.313-21.122a9.475 9.475 0 0 0-5.108-5.554 9.363 9.363 0 0 0-7.535-.073l-20.612 8.7-15.282-16.338C165.127.958 162.563 0 160 0zm.002 23.218l12.883 13.772c2.722 2.897 6.98 3.804 10.608 2.25l17.374-7.331 6.154 17.79a9.492 9.492 0 0 0 8.765 6.377l18.873.38-1.61 18.781a9.486 9.486 0 0 0 5.406 9.395l17.094 8.041-9.098 16.485a9.464 9.464 0 0 0 1.13 10.785l12.365 14.28-15.03 11.367a9.495 9.495 0 0 0-3.351 10.303l5.44 18.057-18.373 4.296a9.474 9.474 0 0 0-7.246 8.052l-2.342 18.725-13.17-2.517c-.01-.002-.02.002-.028 0l-5.323-1.027a9.497 9.497 0 0 0-9.912 4.406l-9.73 16.132-15.456-10.774a9.45 9.45 0 0 0-10.838 0l-15.514 10.791-9.764-16.16a9.494 9.494 0 0 0-9.886-4.405l-5.331 1.018h-.01l-13.142 2.528-2.36-18.725a9.479 9.479 0 0 0-7.247-8.044l-18.345-4.294 5.451-18.059a9.491 9.491 0 0 0-3.35-10.3l-15.042-11.367 12.348-14.283a9.477 9.477 0 0 0 1.12-10.783l-9.1-16.484 17.096-8.044a9.483 9.483 0 0 0 5.406-9.395l-1.611-18.78 18.87-.38a9.472 9.472 0 0 0 8.758-6.37l6.192-17.807 17.382 7.34c3.638 1.554 7.878.647 10.609-2.25l12.885-13.772zM160 54.688c-37.375 0-67.79 30.406-67.79 67.772 0 15.86 5.835 31.426 16.433 43.833.01.013.013.028.023.041 13.005 15.19 31.72 23.9 51.334 23.9 19.605 0 38.27-8.695 51.237-23.836.014-.016.036-.02.05-.036 10.616-12.375 16.465-27.963 16.465-43.902 0-37.366-30.395-67.771-67.752-67.771zm0 18.958c26.906 0 48.797 21.898 48.797 48.814 0 11.579-4.111 22.483-11.895 31.554-.006.005-.004.016-.01.021-18.715 21.915-55.017 21.942-73.824-.03-.004-.004-.01-.007-.015-.013-7.774-9.112-11.889-20.016-11.889-31.532 0-26.916 21.91-48.814 48.836-48.814zm0 156.924l18.345 12.79c2.166 1.5 4.868 2.055 7.395 1.5a9.506 9.506 0 0 0 6.147-4.378l2.73-4.527v57.472l-29.638-18.513a9.493 9.493 0 0 0-10.044.01l-29.59 18.492V235.96l2.74 4.532a9.473 9.473 0 0 0 6.136 4.369 9.528 9.528 0 0 0 1.972.204 9.45 9.45 0 0 0 5.415-1.703L160 230.57z"/></svg>