<svg xmlns="http://www.w3.org/2000/svg" width="320" height="320" viewBox="0 0 320 320"><path d="M231.61 170.905h13.33c4.735 15.847 19.274 27.506 36.64 27.506 21.18 0 38.42-17.23 38.42-38.411s-17.24-38.421-38.42-38.421c-17.367 0-31.909 11.665-36.642 27.516H231.61c-1.808-11.887-6.402-22.771-13.243-32.043l9.389-9.394c5.55 3.016 11.718 4.784 18.214 4.784 10.265 0 19.913-4.004 27.165-11.256 14.983-14.983 14.983-39.347 0-54.33-14.503-14.504-39.825-14.504-54.33 0-12.286 12.287-14.323 30.814-6.458 45.372l-9.397 9.403c-9.271-6.843-20.159-11.44-32.042-13.248v-13.32c15.847-4.738 27.505-19.284 27.505-36.652C198.414 17.23 181.185 0 160.004 0c-21.18 0-38.42 17.23-38.42 38.411 0 17.368 11.665 31.916 27.516 36.652v13.318c-11.888 1.81-22.778 6.404-32.05 13.25l-9.398-9.402c7.865-14.559 5.827-33.086-6.46-45.374-14.503-14.503-39.825-14.503-54.329 0-14.983 14.984-14.983 39.348 0 54.331 7.252 7.252 16.9 11.256 27.165 11.256 6.496 0 12.664-1.768 18.214-4.784l9.389 9.394c-6.842 9.272-11.436 20.158-13.243 32.043H75.071c-4.736-15.851-19.282-27.516-36.65-27.516C17.24 121.579 0 138.819 0 160s17.24 38.411 38.42 38.411c17.366 0 31.912-11.659 36.65-27.506h13.32c1.808 11.882 6.401 22.768 13.245 32.038l-9.495 9.495c-14.485-7.477-33.442-5.468-45.275 6.365-14.982 14.983-14.982 39.347 0 54.33 7.252 7.252 16.9 11.256 27.165 11.256s19.913-4.004 27.165-11.256c12.285-12.286 14.323-30.814 6.46-45.371l9.4-9.401c9.272 6.841 20.162 11.44 32.046 13.247v13.328c-15.851 4.733-27.515 19.274-27.515 36.643 0 21.18 17.24 38.421 38.42 38.421 21.18 0 38.41-17.24 38.41-38.421 0-17.367-11.66-31.907-27.506-36.641v-13.33c11.882-1.807 22.767-6.402 32.037-13.245l9.4 9.4c-7.864 14.558-5.826 33.085 6.46 45.371 7.251 7.252 16.9 11.256 27.164 11.256 10.265 0 19.913-4.004 27.165-11.256 14.983-14.983 14.983-39.347 0-54.33-11.833-11.833-30.79-13.843-45.275-6.365l-9.495-9.495c6.843-9.27 11.437-20.157 13.245-32.04zm-71.604 39.998c-28.07 0-50.912-22.832-50.912-50.902s22.841-50.913 50.912-50.913c28.07 0 50.9 22.842 50.9 50.913 0 28.071-22.831 50.902-50.9 50.902zm121.575-67.515c9.158 0 16.612 7.454 16.612 16.612 0 9.158-7.454 16.602-16.612 16.602-9.158 0-16.601-7.444-16.601-16.602 0-9.158 7.443-16.612 16.601-16.612zm-47.354-81.112a16.486 16.486 0 0 1 11.745-4.866 16.49 16.49 0 0 1 11.746 4.866c6.474 6.474 6.474 17.016 0 23.49-6.282 6.283-17.208 6.283-23.49 0-6.476-6.474-6.476-17.016-.001-23.49zm-90.833-23.864c0-9.158 7.454-16.602 16.612-16.602 9.158 0 16.601 7.444 16.601 16.602 0 9.158-7.443 16.612-16.601 16.612s-16.612-7.455-16.612-16.612zm-81.11 47.355c-6.474-6.475-6.474-17.017 0-23.491A16.486 16.486 0 0 1 74.03 57.41c4.441 0 8.605 1.725 11.746 4.866 6.474 6.474 6.474 17.016 0 23.49-6.284 6.284-17.21 6.284-23.492 0zM38.42 176.602c-9.158 0-16.612-7.444-16.612-16.602 0-9.158 7.454-16.612 16.612-16.612 9.158 0 16.612 7.454 16.612 16.612 0 9.158-7.454 16.602-16.612 16.602zm47.355 81.113c-6.283 6.283-17.208 6.283-23.49 0-6.475-6.474-6.475-17.016 0-23.49a16.486 16.486 0 0 1 11.745-4.867c4.441 0 8.605 1.725 11.746 4.866 6.473 6.473 6.473 17.017-.001 23.491zm90.832 23.864c0 9.158-7.443 16.612-16.601 16.612s-16.612-7.454-16.612-16.612c0-9.158 7.454-16.602 16.612-16.602 9.158 0 16.601 7.444 16.601 16.602zm81.11-47.356c6.474 6.474 6.474 17.016 0 23.491-6.282 6.282-17.208 6.282-23.49 0-6.475-6.475-6.475-17.017 0-23.491a16.486 16.486 0 0 1 11.745-4.866c4.44 0 8.604 1.725 11.745 4.866z"/></svg>