<svg xmlns="http://www.w3.org/2000/svg" width="320" height="320" viewBox="0 0 320 320"><path d="M160.001 0C71.78 0 0 71.779 0 160s71.78 160 160.001 160C248.223 320 320 248.221 320 160S248.223 0 160.001 0zm0 24.615c74.652 0 135.384 60.734 135.384 135.385 0 74.651-60.731 135.383-135.384 135.383C85.35 295.383 24.615 234.65 24.615 160c0-74.651 60.734-135.385 135.386-135.385zm0 27.934c-6.803 0-12.309 5.504-12.309 12.307v82.835H90.794c-6.803 0-12.31 5.506-12.31 12.309 0 6.803 5.507 12.307 12.31 12.307h69.133l.036-.006c.013 0 .023.006.036.006 6.803 0 12.309-5.504 12.309-12.307V64.856c0-6.803-5.503-12.307-12.307-12.307z"/></svg>