<svg xmlns="http://www.w3.org/2000/svg" width="320" height="320" viewBox="0 0 320 320">
    <path d="M252.54 29.548C217.637 4.83 175.137-4.92 133.148 2.348 90.967 9.534 54.116 32.67 29.44 67.568-21.622 139.5-4.563 239.528 67.449 290.507c28.997 20.527 63.26 30.704 98.228 29.38 6.911-.215 13.91-.986 20.867-2.097 6.89-1.197 11.555-7.698 10.357-14.627-1.156-6.886-7.383-11.462-14.551-10.35-35.44 5.988-71.008-2.223-100.262-22.92-60.61-42.938-74.925-127.144-31.933-187.7 20.716-29.338 51.748-48.839 87.188-54.869 35.48-6.072 71.134 2.054 100.56 22.838 37.321 26.428 58.488 69.452 56.689 115.254-.279 8.938-1.563 17.447-3.958 26.984-10.166 35.582-27.073 48.069-39.377 44.905-8.945-2.396-13.077-10.777-13.611-25.404l1.563-98.703c-.171-9.622-.728-22.71-14.275-24.035-8.708-.854-13.373 7.271-14.338 15.868-18.875-17.149-37.343-22.366-55.36-22.11-46.1.726-83.057 38.147-82.352 83.52.664 45.333 37.046 81.682 83.163 80.955 14.38-.214 40.318-7.869 57.31-27.626 1.626 19.886 12.647 37.035 31.416 41.997 22.32 5.9 54.378-6.843 70.408-62.825 2.825-11.631 4.343-22.022 4.688-32.588 2.181-54.31-23.009-105.458-67.328-136.805zm-96.578 193.557c-31.653.47-57.825-25.145-58.36-57.006-.45-31.946 24.91-58.33 56.519-58.801 31.78-.47 57.866 25.104 58.379 57.048.47 31.904-24.846 58.246-56.538 58.76z"/>
</svg>
