<svg xmlns="http://www.w3.org/2000/svg" width="320" height="320" viewBox="0 0 320 320"><path d="M160 0C71.803 0 0 71.82 0 160c0 88.239 71.803 160 160 160 88.223 0 160-71.762 160-160C320 71.82 248.225 0 160 0zm0 29.092c72.2 0 130.908 58.75 130.908 130.908 0 72.204-58.707 130.91-130.908 130.91-72.19 0-130.91-58.706-130.91-130.91C29.09 87.843 87.81 29.092 160 29.092zm0 48.906c-8.027 0-14.545 6.477-14.545 14.545v52.912H92.541c-8.041 0-14.547 6.521-14.547 14.545 0 8.054 6.506 14.545 14.547 14.545h52.914V227.5c0 7.996 6.518 14.545 14.545 14.545 8.052 0 14.545-6.55 14.545-14.545v-52.955h52.94c8.04 0 14.544-6.49 14.544-14.545.001-8.024-6.502-14.545-14.545-14.545h-52.94V92.543A14.51 14.51 0 0 0 160 77.998z"/></svg>