<svg xmlns="http://www.w3.org/2000/svg" width="365" height="320" viewBox="0 0 365 320">
  <path fill="#FFF" d="M133.161 0a20.27 20.27 0 0 0-18.829 12.763L3.06 292.23c-4.136 10.398.939 22.183 11.327 26.328 10.428 4.136 22.183-.94 26.328-11.33l35.717-89.705h112.882l35.424 89.656C227.884 315.142 235.52 320 243.594 320a20.337 20.337 0 0 0 7.44-1.425c10.409-4.115 15.503-15.889 11.397-26.297L152.008 12.813A20.28 20.28 0 0 0 133.19 0h-.029zm-.07 75.222l40.213 101.776H92.568l40.523-101.776z"/>
</svg>
