<svg xmlns="http://www.w3.org/2000/svg" width="360" height="320" viewBox="0 0 360 320">
    <path d="M114.019 45.166c-29.78.206-59.4 12.27-82.21 35.835-42.709 44.121-42.416 115.769.919 159.146 27.98 28.008 61.929 38.746 101.017 33.336 22.291-3.086 42.295-11.627 58.324-27.594 30.237-30.12 36.945-67.203 30.895-108.151H114.103c0 14.234.07 27.78-.041 41.327-.034 4.13 2.34 4.511 5.552 4.487 10.718-.08 21.437-.033 32.154-.034h23.36c-5.684 26.52-24.353 41.244-55.013 44.295-27.44 2.73-54.513-13.791-66.151-40.37-11.98-27.356-4.615-59.665 18.062-79.24 24.073-20.78 51.985-20.742 85.233-.545l33.205-33.383c-.104-.097-.918-.954-1.816-1.712-21.954-18.53-48.354-27.58-74.63-27.397zM296.98 99.854c-4.674-.018-5.964 2.094-5.804 6.991.349 10.64.103 21.3.103 32.847-3.29 0-5.849-.002-8.409 0-8.807.007-17.621-.164-26.416.168-1.778.068-4.932 1.964-4.992 3.142-.434 8.454-.232 16.94-.232 26.32h40.445v39.552h29.334c0-13.168 0-26.109.002-40.016H360v-29.256h-39.035v-39.61c-8.32 0-15.685.32-23.004-.106-.342-.02-.668-.031-.98-.032z"/>
</svg>
