<svg xmlns="http://www.w3.org/2000/svg" width="320" height="320" viewBox="0 0 320 320"><path d="M46.048 37.533C20.66 37.533 0 58.193 0 83.58v116.973C0 225.942 20.66 246.6 46.048 246.6h17.443v35.866l78.02-35.866h132.44c25.389 0 46.049-20.66 46.049-46.049V83.581c0-25.388-20.66-46.048-46.048-46.048H46.048zm0 13.157h227.904c18.135 0 32.892 14.755 32.892 32.891v116.971c0 18.136-14.757 32.893-32.892 32.893h-133.88l-63.425 28.49v-28.49H46.048c-18.135 0-32.89-14.757-32.89-32.893V83.581c0-18.136 14.755-32.891 32.89-32.891zm45.287 72.904a18.475 18.475 0 0 0-18.475 18.474 18.475 18.475 0 0 0 18.475 18.476 18.475 18.475 0 0 0 18.476-18.476 18.475 18.475 0 0 0-18.476-18.474zm68.667 0a18.475 18.475 0 0 0-18.477 18.474 18.475 18.475 0 0 0 18.477 18.476 18.475 18.475 0 0 0 18.474-18.476 18.475 18.475 0 0 0-18.474-18.474zm68.663 0a18.475 18.475 0 0 0-18.474 18.474 18.475 18.475 0 0 0 18.474 18.476 18.475 18.475 0 0 0 18.477-18.476 18.475 18.475 0 0 0-18.477-18.474z"/></svg>