<svg xmlns="http://www.w3.org/2000/svg" width="320" height="320" viewBox="0 0 320 320"><path d="M100.133 0C84.997 0 72.684 12.315 72.684 27.451v265.098c0 15.136 12.313 27.451 27.449 27.451h119.73c15.135 0 27.452-12.315 27.453-27.451V27.451C247.316 12.315 235 0 219.865 0H100.133zm0 10.98h119.732c9.082 0 16.469 7.389 16.469 16.471v265.098c0 9.082-7.387 16.471-16.47 16.471h-119.73c-9.082 0-16.469-7.389-16.469-16.471V27.451c0-9.082 7.387-16.471 16.469-16.471zm43.395 55.695v32.94h32.94v-32.94h-32.94zm0 76.86v32.94h32.94v-32.94h-32.94zm0 76.861v32.94h32.94v-32.94h-32.94z"/></svg>