<svg xmlns="http://www.w3.org/2000/svg" width="365" height="320" viewBox="0 0 365 320">
  <path fill="#fff" d="M131.64 0a20.276 20.276 0 0 0-18.826 12.762l-70.32 176.605L1.535 292.23c-4.136 10.397.939 22.18 11.326 26.326 10.438 4.125 22.181-.94 26.326-11.328l35.723-89.711h112.88l35.425 89.662C226.36 315.142 233.997 320 242.07 320c2.474 0 4.998-.466 7.442-1.426 10.408-4.115 15.502-15.888 11.396-26.297L150.488 12.813A20.277 20.277 0 0 0 131.672 0h-.031zm165.735 54.463c-11.19 0-20.262 9.073-20.262 20.262v27.007h-26.998c-11.189 0-20.261 9.073-20.261 20.262 0 11.19 9.072 20.262 20.261 20.262h26.998v26.998c0 11.189 9.073 20.262 20.262 20.262 11.19 0 20.262-9.073 20.262-20.262v-26.998h27.008c11.189 0 20.261-9.073 20.261-20.262s-9.071-20.262-20.261-20.262h-27.008V74.725c0-11.19-9.073-20.262-20.262-20.262zM131.572 75.219l40.21 101.773H91.046L131.572 75.22z"/>
</svg>
