<svg xmlns="http://www.w3.org/2000/svg" width="365" height="320" viewBox="0 0 365 320">
    <path d="M131.642 0a20.28 20.28 0 0 0-18.828 12.764l-70.32 176.604L1.533 292.23c-4.135 10.399.939 22.18 11.327 26.325 10.437 4.126 22.182-.939 26.327-11.327l35.722-89.713h112.879l35.424 89.664C226.36 315.143 233.998 320 242.071 320a20.36 20.36 0 0 0 7.44-1.424c10.407-4.116 15.502-15.89 11.396-26.297L150.487 12.812A20.279 20.279 0 0 0 131.672 0h-.03zm165.732 54.463c-11.19 0-20.26 9.073-20.26 20.263v27.008h-27c-11.19 0-20.26 9.072-20.26 20.262 0 11.19 9.07 20.26 20.26 20.26h27v27c0 11.19 9.07 20.26 20.26 20.26 11.19 0 20.262-9.07 20.262-20.26v-27h27.008c11.19 0 20.262-9.07 20.262-20.26 0-11.19-9.072-20.262-20.262-20.262h-27.008V74.726c0-11.19-9.073-20.263-20.262-20.263zM131.573 75.22l40.206 101.774H91.046L131.573 75.22z"/>
</svg>
