<svg xmlns="http://www.w3.org/2000/svg" width="320" height="320" viewBox="0 0 320 320">
    <path d="M160 0C71.64 0 0 71.63 0 160c0 88.358 71.64 160 160 160s160-71.642 160-160C320 71.63 248.36 0 160 0zM71.278 134.998c13.79 0 24.983 11.19 24.983 25.01 0 13.799-11.194 24.99-24.983 24.99-13.828 0-25.017-11.192-25.017-24.99 0-13.82 11.189-25.01 25.017-25.01zm88.743 0c13.768 0 24.979 11.19 24.979 25.01 0 13.799-11.211 24.99-24.979 24.99-13.827 0-25.021-11.192-25.021-24.99 0-13.82 11.194-25.01 25.021-25.01zm89.341.009c12.672.287 23.31 10.166 24.31 23.089 1.053 13.75-9.248 25.768-22.998 26.834-13.78 1.054-25.802-9.239-26.856-23.008-1.063-13.77 9.238-25.781 23.027-26.845a25.437 25.437 0 0 1 2.517-.07z"/>
</svg>
