<svg xmlns="http://www.w3.org/2000/svg" width="320" height="320" viewBox="0 0 320 320">
    <path d="M102.56 320a33.224 33.224 0 0 1-17.645-5.054c-7.608-4.69-12.94-12.124-14.972-20.895-2.032-8.736-.521-17.715 4.238-25.288a17.71 17.71 0 0 1 2.223-2.85l98.41-102.543L75.763 53.15a17.584 17.584 0 0 1-2.12-2.9c-4.515-7.713-5.748-16.727-3.473-25.376 2.275-8.701 7.798-15.978 15.562-20.511 16.135-8.945 35.553-3.491 44.81 10.49L244.394 144.37a16.64 16.64 0 0 1 2.083 2.935c6.167 10.803 5.94 24.004-.608 34.441l-116.907 125.21c-4.15 7.174-14.78 13.044-26.4 13.044z"/>
</svg>
