<svg xmlns="http://www.w3.org/2000/svg" width="320" height="320" viewBox="0 0 320 320">
    <path d="M159.41 0C73.61 0 .61 72.075.003 157.398c-.32 44.2 16.737 85.58 48.003 116.512C78.05 303.63 117.769 320 159.825 320h.605c87.864-.327 159.44-71.868 159.57-159.487C320.13 73.29 249.1 1.295 159.41 0zm1.968 17.92h.039c77.5 1.132 140.458 65.094 140.35 142.57-.106 77.79-63.553 141.308-141.41 141.6l-.532 8.956v-8.956c-37.166 0-72.28-14.492-98.88-40.795-27.824-27.516-42.994-64.37-42.709-103.78C18.77 81.848 83.402 17.92 161.378 17.92zm-1.984 32.352l-6.693 7.31c-6.327 6.915-12.524 13.48-18.566 19.857-13.044 13.805-25.365 26.852-36.63 40.913-29.985 37.472-27.052 88.145 6.826 117.864 14.86 13.023 34.601 20.205 55.588 20.205h.01c22.032 0 42.486-7.79 57.596-21.931 32.44-30.362 33.959-81.09 3.548-118.015-10.885-13.2-22.946-25.686-35.707-38.908-6.124-6.33-12.51-12.941-19.182-20.054l-6.79-7.24z"/>
</svg>
