<svg xmlns="http://www.w3.org/2000/svg" width="320" height="320" viewBox="0 0 320 320">
    <path d="M206.829 320a11.9 11.9 0 0 1-2.932-.362 11.983 11.983 0 0 1-7.335-5.467l-52.177-87.451-38.195 37.132c-3.211 3.142-7.896 4.182-12.17 2.757a11.964 11.964 0 0 1-8.002-9.567L49.727 13.726a11.958 11.958 0 0 1 5.7-12.03 11.962 11.962 0 0 1 13.304.688l196.886 147.49a11.975 11.975 0 0 1 4.614 11.587 11.933 11.933 0 0 1-8.2 9.403l-50.833 15.978 52.176 87.452c3.388 5.677 1.53 13.024-4.134 16.4l-46.279 27.612A11.922 11.922 0 0 1 206.83 320zm-59.933-124.374c.514 0 1.04.036 1.553.106a11.942 11.942 0 0 1 8.714 5.723l53.812 90.185 25.733-15.36-53.801-90.173a11.978 11.978 0 0 1-.91-10.395 11.988 11.988 0 0 1 7.591-7.148l43.02-13.527L77.678 38.992l28.558 191.443 32.32-31.42a11.956 11.956 0 0 1 8.34-3.389z"/>
</svg>
