<svg xmlns="http://www.w3.org/2000/svg" width="320" height="320" viewBox="0 0 320 320">
    <path d="M307.817 274.644l-72.316-72.84c15.108-20.937 24.081-46.561 24.081-74.26C259.582 57.219 202.336 0 132 0 61.666 0 4.456 57.22 4.456 127.544c0 70.344 57.21 127.582 127.544 127.582 23.37 0 45.244-6.46 64.129-17.5l73.923 74.532c5.198 5.225 12.04 7.842 18.883 7.842a26.715 26.715 0 0 0 18.771-7.702c10.394-10.348 10.47-27.222.11-37.654zM57.665 127.543c0-40.971 33.353-74.335 74.335-74.335 40.983 0 74.337 33.364 74.337 74.335 0 40.99-33.354 74.335-74.337 74.335-40.982 0-74.335-33.344-74.335-74.335z"/>
</svg>
