<svg xmlns="http://www.w3.org/2000/svg" width="320" height="320" viewBox="0 0 320 320">
    <path d="M83.429 0A10.352 10.352 0 0 0 73.07 10.357V31.78a10.352 10.352 0 0 0 10.36 10.357 10.352 10.352 0 0 0 10.357-10.358V10.357A10.352 10.352 0 0 0 83.429 0zM236.57 0a10.352 10.352 0 0 0-10.357 10.357V31.78a10.351 10.351 0 0 0 10.357 10.358 10.352 10.352 0 0 0 10.358-10.358V10.357A10.352 10.352 0 0 0 236.57 0zM42.581 23.007a10.316 10.316 0 0 0-7.327 3.027c-4.046 4.046-4.067 10.599-.032 14.655l15.123 15.183a10.337 10.337 0 0 0 7.342 3.045c2.64 0 5.29-1.003 7.313-3.015 4.046-4.046 4.067-10.599.032-14.655L49.909 26.064a10.346 10.346 0 0 0-7.328-3.057zm234.846.023a10.448 10.448 0 0 0-7.336 3.034l-15.12 15.183c-4.036 4.056-4.017 10.609.03 14.655a10.34 10.34 0 0 0 7.312 3.015c2.66 0 5.311-1.022 7.344-3.045l15.121-15.183c4.035-4.056 4.016-10.609-.03-14.655a10.299 10.299 0 0 0-7.32-3.004zm-177.21 27.469c-14.676 0-26.622 11.945-26.622 26.622 0 8.185 3.93 15.245 9.763 20.133-21.657 18.068-37.048 48.908-40.687 69.947-12.495 4.027-21.619 15.626-21.619 29.443v38.213c0 17.133 13.938 31.071 31.072 31.071h.169c-.467 1.862-1.131 3.659-1.131 5.666v24.75C51.162 309.391 61.62 320 74.487 320h6.108c12.876 0 23.345-10.61 23.345-23.657v-24.749c0-2.007-.666-3.804-1.133-5.666h116.05c-.466 1.862-1.131 3.659-1.131 5.666v24.75c0 13.048 10.458 23.656 23.325 23.656h6.12c12.845 0 23.303-10.61 23.303-23.657v-24.749c0-2.031-.667-3.85-1.144-5.732 16.82-.365 30.405-14.1 30.405-31.005v-38.213c.002-13.74-9.02-25.289-21.405-29.379-3.453-20.732-18.288-50.963-41.71-69.641 6.126-4.882 10.309-12.081 10.309-20.503 0-14.676-11.945-26.622-26.622-26.622h-120.09zM29.64 66.764A10.352 10.352 0 0 0 19.282 77.12a10.351 10.351 0 0 0 10.357 10.357h21.422c5.725 0 10.36-4.633 10.36-10.357a10.354 10.354 0 0 0-10.36-10.357H29.64zm239.298 0a10.352 10.352 0 0 0-10.358 10.357 10.352 10.352 0 0 0 10.358 10.357h21.424a10.352 10.352 0 0 0 10.357-10.357 10.352 10.352 0 0 0-10.357-10.357h-21.424zm-168.72 4.451h49.693V83.03h-49.693c-3.206 0-5.907-2.702-5.907-5.908 0-3.205 2.7-5.906 5.907-5.906zm70.407 0h49.683a5.913 5.913 0 0 1 5.907 5.906 5.915 5.915 0 0 1-5.907 5.908h-49.683V71.215zm-55.683 32.528h90.525c26.086 7.958 46.02 40.282 51.484 61.829H64.157c5.876-22.649 27.594-57.878 50.784-61.829zm-62.817 82.543h216.541c5.715 0 10.357 4.643 10.357 10.358v38.213c0 5.714-4.642 10.357-10.357 10.357H52.124c-5.715 0-10.357-4.643-10.357-10.357v-38.213c0-5.715 4.642-10.358 10.357-10.358zm25.437 8.882c-11.359 0-20.592 9.233-20.592 20.582 0 11.36 9.233 20.595 20.592 20.595 11.36 0 20.593-9.236 20.593-20.595 0-11.348-9.234-20.582-20.593-20.582zm165.371 0c-11.328 0-20.551 9.233-20.551 20.582 0 11.36 9.223 20.595 20.551 20.595 11.36 0 20.604-9.236 20.604-20.595 0-11.348-9.245-20.582-20.604-20.582zm-165.37 10.358c5.643 0 10.235 4.59 10.235 10.224 0 5.643-4.591 10.238-10.236 10.238-5.643 0-10.235-4.595-10.235-10.238 0-5.633 4.592-10.224 10.235-10.224zm165.37 0c5.655 0 10.246 4.59 10.246 10.224.001 5.643-4.591 10.238-10.246 10.238-5.623 0-10.194-4.595-10.194-10.238 0-5.633 4.57-10.224 10.194-10.224zm-100.843 20.2c-3.239 0-5.867 2.428-5.867 5.421 0 3.036 2.628 5.452 5.867 5.452h36.35c3.239 0 5.867-2.416 5.867-5.452 0-2.993-2.63-5.42-5.867-5.42h-36.35zM74.487 268.67h6.108c1.447 0 2.63 1.317 2.63 2.925v24.75c0 1.648-1.153 2.944-2.63 2.944h-6.108c-1.467 0-2.609-1.296-2.609-2.945v-24.749c0-1.638 1.142-2.925 2.609-2.925zm166.566 0h6.12c1.426 0 2.589 1.317 2.589 2.925v24.75c0 1.648-1.134 2.944-2.59 2.944h-6.119c-1.436 0-2.61-1.325-2.61-2.945v-24.749c0-1.608 1.174-2.925 2.61-2.925z"/>
</svg>
