<svg xmlns="http://www.w3.org/2000/svg" width="360" height="320" viewBox="0 0 360 320">
    <path d="M174.747 46.881c-9.164.02-19.121 1.2-27.49 8.248-10.25 8.62-17.553 22.394-24.618 35.718l-3.647 6.821c-.004.007-.01.008-.013.015l-17.24 31.564c-8.443-3.322-17.566-5.297-27.174-5.297C33.447 123.95 0 157.418 0 198.554c0 41.118 33.447 74.565 74.565 74.565 41.145 0 74.62-33.447 74.62-74.565 0-24.82-12.314-46.7-31.02-60.27l9.006-16.49 43.98 81.226c.102.19.31.26.425.44.287.46.543.91.91 1.317.448.497.989.86 1.533 1.252.077.055.137.125.215.178.216.145.364.358.59.484.07.038.108.108.179.144.106.056.226.032.333.083 1.221.595 2.552.988 4.002.997.013 0 .027.009.04.009h32.392c4.67 36.66 35.73 65.195 73.646 65.195 41.127 0 74.584-33.447 74.584-74.565 0-41.137-33.457-74.604-74.584-74.604-9.87 0-19.257 2.024-27.889 5.523l-15.933-28.476 10.21-19.301a9.37 9.37 0 0 0-.258-9.215 9.361 9.361 0 0 0-8.026-4.54h-29.193a9.364 9.364 0 0 0-9.37 9.37c0 5.18 4.19 9.372 9.37 9.372h13.636l-3.238 6.124h-81.866c5.106-9.393 10.444-18.278 16.469-23.337 4.118-3.47 10.02-4.01 18.814-3.8h.239c5.07 0 9.232-4.035 9.37-9.132.128-5.171-3.953-9.471-9.133-9.609a153.8 153.8 0 0 0-3.871-.048zm-31.814 64.67h71.876l-35.52 67.145-36.356-67.146zm88.22 9.182l10.091 18.036c-15.953 11.824-26.847 29.777-29.475 50.413h-16.823l36.208-68.449zM74.566 142.692c6.353 0 12.358 1.291 18.053 3.252l-26.28 48.117c-2.48 4.54-.805 10.24 3.734 12.72a9.386 9.386 0 0 0 12.72-3.734l26.27-48.098c12.922 10.24 21.382 25.876 21.382 43.603 0 30.786-25.066 55.825-55.879 55.825-30.785 0-55.823-25.04-55.823-55.825 0-30.803 25.038-55.86 55.823-55.86zm210.849 0c30.795 0 55.842 25.057 55.842 55.86 0 30.787-25.045 55.825-55.84 55.825-27.585 0-50.412-20.138-54.903-46.453h54.921l.006-.002.004.002c.01 0 .021-.007.032-.007 1.502-.007 2.866-.44 4.123-1.074.132-.067.283-.035.413-.108.371-.206.594-.548.926-.796.521-.389 1.025-.76 1.454-1.246.406-.462.698-.965 1.003-1.49.3-.508.588-.995.788-1.56.222-.628.304-1.265.389-1.929.05-.398.233-.748.233-1.161 0-.172-.089-.315-.098-.484-.032-.632-.21-1.23-.373-1.856-.16-.607-.292-1.202-.564-1.754-.077-.156-.068-.328-.154-.483l-26.78-47.863c5.842-2.078 12.032-3.42 18.579-3.42zm-34.917 12.617l18.951 33.873h-38.937c2.33-13.66 9.644-25.502 19.986-33.873z"/>
</svg>
