<svg xmlns="http://www.w3.org/2000/svg" width="320" height="320" viewBox="0 0 320 320">
    <path d="M159.734 0c-42.182 0-86.043 14.087-88.067 14.74C55.08 20.474 43.13 26.225 40.54 48.146L27.895 164.541v96.974a9.815 9.815 0 0 0 9.819 9.821h19.282c-.121.95-.554 1.787-.554 2.77v23.466c0 12.37 9.915 22.428 22.112 22.428h5.793c12.206 0 22.132-10.058 22.132-22.428v-23.465c0-.984-.433-1.821-.554-2.77H214.91c-.121.949-.554 1.786-.554 2.77v23.465c0 12.37 9.917 22.428 22.114 22.428h5.801c12.179 0 22.093-10.058 22.093-22.428v-23.465c0-.984-.431-1.821-.552-2.77h18.474a9.815 9.815 0 0 0 9.82-9.822l-.078-98.162-14.192-115.952c-3.778-20.09-15.525-26.361-30.686-32.547C245.568 14.24 207.796 0 159.734 0zm.002 19.64c44.273 0 80.052 13.425 80.195 13.472 14.039 5.735 16.82 8.41 18.517 17.29l14.02 114.139v87.158H47.523l-.047-86.092 12.58-115.243c1.237-10.453 3.857-12.16 17.857-17.002.421-.135 42.708-13.722 81.822-13.722zm-26.792 15.114c-3.07 0-5.563 2.3-5.563 5.14 0 2.877 2.493 5.17 5.563 5.17h54.1c3.07 0 5.564-2.294 5.564-5.17 0-2.839-2.495-5.14-5.563-5.14h-54.1zM76.77 56.615a4.92 4.92 0 0 0-4.89 4.43l-9.568 97.427a4.916 4.916 0 0 0 1.256 3.777 4.908 4.908 0 0 0 3.633 1.612h186.415a1.14 1.14 0 0 1 .25 0 4.912 4.912 0 0 0 4.909-4.91 4.92 4.92 0 0 0-.442-2.024l-10.426-95.93a4.91 4.91 0 0 0-4.878-4.382H76.77zm4.449 9.821h157.406l9.512 87.606H72.618l8.6-87.606zm.249 120.601c-10.769 0-19.523 8.756-19.523 19.514 0 10.769 8.754 19.523 19.523 19.523s19.525-8.754 19.525-19.523c0-10.758-8.756-19.514-19.525-19.514zm156.784 0c-10.74 0-19.486 8.756-19.486 19.514 0 10.769 8.746 19.523 19.486 19.523 10.768 0 19.531-8.754 19.531-19.523 0-10.758-8.763-19.514-19.531-19.514zm-156.784 9.819c5.35 0 9.704 4.354 9.704 9.695 0 5.35-4.354 9.704-9.704 9.704-5.35 0-9.704-4.353-9.704-9.704 0-5.341 4.353-9.695 9.704-9.695zm156.784 0c5.36 0 9.715 4.354 9.715 9.695 0 5.35-4.355 9.704-9.715 9.704-5.332 0-9.667-4.353-9.667-9.704 0-5.341 4.335-9.695 9.667-9.695zm-159.698 74.48h5.79c1.372 0 2.495 1.246 2.495 2.77v23.466c0 1.563-1.094 2.79-2.495 2.79h-5.79c-1.39 0-2.474-1.227-2.474-2.79v-23.465c0-1.553 1.084-2.77 2.474-2.77zm157.914 0h5.801c1.352 0 2.455 1.246 2.455 2.77v23.466c0 1.563-1.074 2.79-2.455 2.79h-5.801c-1.362 0-2.475-1.255-2.475-2.79v-23.465c0-1.525 1.113-2.77 2.475-2.77z"/>
</svg>
