<svg xmlns="http://www.w3.org/2000/svg" width="320" height="320" viewBox="0 0 320 320">
    <path d="M64.845 0a9.981 9.981 0 0 0-9.94 9.072l-8.74 96.477c-1.481 11.226 1.355 21.574 7.99 29.145 5.496 6.255 13.143 10.163 21.913 11.254v146.68c0 15.094 12.28 27.372 27.363 27.372 15.094 0 27.38-12.278 27.382-27.371v-146.68c8.769-1.102 16.417-5.01 21.913-11.266 6.626-7.571 9.472-17.91 8.039-28.735l-8.788-96.876A9.978 9.978 0 0 0 142.038 0H64.845zM203.89.007a9.978 9.978 0 0 0-9.82 9.971v282.65c0 15.095 12.268 27.372 27.343 27.372 15.094 0 27.381-12.277 27.382-27.371V191.493c8.809-1.179 14.275-5.261 17.442-8.779 6.46-7.162 9.023-17.705 7.6-31.347-1.657-15.444-10.085-39.436-28.18-80.225-17.95-40.448-32.4-65.178-33.003-66.21A9.972 9.972 0 0 0 203.89.007zM73.955 19.957h11.917v70.546a4.986 4.986 0 0 0 4.99 4.99 4.985 4.985 0 0 0 4.988-4.988V19.956h15.172v70.547a4.986 4.986 0 0 0 4.99 4.99A4.986 4.986 0 0 0 121 90.504V19.956h11.929l8.008 88.205c.72 5.516-.39 10.133-3.216 13.358-2.709 3.09-7.014 4.795-12.11 4.795h-4.776a9.973 9.973 0 0 0-9.978 9.978V292.63c0 4.092-3.334 7.413-7.426 7.413-4.083 0-7.404-3.32-7.404-7.413V136.292a9.973 9.973 0 0 0-9.978-9.978h-4.796c-5.096 0-9.394-1.697-12.093-4.786-2.826-3.224-3.936-7.844-3.167-13.768l7.962-87.804zm140.071 30.537a854.774 854.774 0 0 1 13.39 28.735c16.75 37.76 25.197 61.35 26.571 74.232.78 7.425-.165 13.213-2.572 15.892-.565.624-2.28 2.526-7.825 2.526h-4.775a9.973 9.973 0 0 0-9.978 9.978v110.772c0 4.092-3.332 7.413-7.424 7.413-4.073 0-7.387-3.32-7.387-7.413V50.494z"/>
</svg>
