<svg xmlns="http://www.w3.org/2000/svg" width="320" height="320" viewBox="0 0 320 320">
    <path d="M160 0C96.4 0 44.66 51.74 44.66 115.34c0 22.251 5.44 40.489 18.979 63.238l87.95 136.832a10.01 10.01 0 0 0 16.83-.002l88.333-137.562c9.65-18.237 18.588-38.438 18.588-62.506C275.34 51.74 223.6 0 160 0zm0 20.006c52.572 0 95.335 42.763 95.334 95.334 0 19.654-7.804 37.168-15.795 52.416L160 291.496 80.644 168.06c-11.497-19.351-15.98-34.129-15.98-52.717 0-52.572 42.764-95.336 95.335-95.336zm-.041 42.234c-26.453 0-48.022 21.569-48.022 48.02 0 26.49 21.57 48.06 48.022 48.06 26.49 0 48.058-21.57 48.057-48.06 0-26.451-21.567-48.02-48.057-48.02zm0 20.006c15.472 0 28.053 12.58 28.053 28.014 0 15.474-12.581 28.054-28.053 28.054-15.434 0-28.016-12.58-28.016-28.054 0-15.434 12.582-28.014 28.016-28.014z"/>
</svg>
