<svg xmlns="http://www.w3.org/2000/svg" width="320" height="320" viewBox="0 0 320 320">
    <path d="M160.006 0C98.045 0 47.645 50.4 47.645 112.35c0 21.684 5.29 39.424 18.478 61.588L160.008 320l94.35-146.941c9.35-17.67 17.997-37.259 17.997-60.71C272.355 50.4 221.955 0 160.005 0zm.002 23.965c48.738 0 88.384 39.646 88.385 88.385 0 17.177-6.076 32.214-14.664 48.62l-73.721 114.704-73.514-114.34C75.787 143.313 71.61 129.586 71.61 112.35c0-48.739 39.66-88.385 88.399-88.385zm-.043 37.793c-25.205 0-45.756 20.552-45.756 45.756 0 25.241 20.55 45.793 45.756 45.793 25.241 0 45.79-20.553 45.79-45.793 0-25.204-20.549-45.756-45.79-45.756zm0 19.06c14.742 0 26.73 11.988 26.728 26.694 0 14.744-11.986 26.732-26.728 26.732-14.707 0-26.695-11.988-26.695-26.732 0-14.707 11.988-26.694 26.695-26.694z"/>
</svg>
