<svg xmlns="http://www.w3.org/2000/svg" width="320" height="320" viewBox="0 0 320 320">
    <path d="M160.02 0C96.408 0 44.656 51.723 44.656 115.305c0 22.232 5.44 40.48 18.979 63.27l87.955 136.833A9.996 9.996 0 0 0 160 320c3.409 0 6.574-1.728 8.42-4.59l88.336-137.558c9.651-18.209 18.588-38.39 18.588-62.547C275.344 51.723 223.61 0 160.02 0zm0 20.006c52.564 0 95.318 42.754 95.318 95.299 0 19.741-7.805 37.228-15.795 52.447l-79.545 123.744L80.66 168.055c-11.517-19.37-16-34.16-16-52.75 0-52.545 42.777-95.3 95.36-95.3zm-9.965 44.055L114.088 164.85h22.017l6.838-20.72h37.121l6.643 20.72h22.838L173.89 64.06h-23.836zm11.703 23.043l12.717 39.66h-25.807l13.09-39.66z"/>
</svg>
