<svg xmlns="http://www.w3.org/2000/svg" width="320" height="320" viewBox="0 0 320 320">
    <path d="M76.901 0C63.505 0 52.612 10.892 52.612 24.29v271.4c0 13.406 10.893 24.31 24.29 24.31h166.197c13.396 0 24.289-10.903 24.289-24.31V24.29c0-13.398-10.893-24.29-24.29-24.29H76.902zm0 21.007H243.1a3.292 3.292 0 0 1 3.282 3.282v271.4c0 1.826-1.477 3.304-3.282 3.304H76.9c-1.836 0-3.282-1.447-3.282-3.303V24.29a3.252 3.252 0 0 1 3.282-3.283zM93.477 35.02a5.249 5.249 0 0 0-5.252 5.251V234.39a5.249 5.249 0 0 0 5.252 5.252H226.44a5.248 5.248 0 0 0 5.252-5.252V40.27a5.249 5.249 0 0 0-5.252-5.251H93.477zm5.254 10.503h122.457v183.615H98.731V45.523zm61.238 204.181c-10.494 0-19.037 8.535-19.037 19.03 0 10.493 8.543 19.037 19.037 19.037 10.493 0 19.038-8.544 19.038-19.038s-8.544-19.029-19.038-19.029zm0 10.506c4.708 0 8.534 3.825 8.534 8.523 0 4.708-3.826 8.534-8.534 8.534s-8.534-3.826-8.534-8.534c0-4.697 3.826-8.523 8.534-8.523z"/>
</svg>
