<svg xmlns="http://www.w3.org/2000/svg" width="320" height="320" viewBox="0 0 320 320">
    <path d="M220.593 16.859c-.122 0-.226.065-.347.069-1.246.042-2.483.255-3.654.738-1.137.468-2.128 1.178-3.025 1.992-.117.107-.268.141-.381.253l-.021.02-.021.02c-59.812 59.329-81.565 60.73-134.09 64.108l-10.582.687c-.375.026-.68.223-1.043.288C34.411 85.787 0 107.535 0 147.478c0 35.507 31.767 56.979 58.672 61.582v83.561c0 5.815 4.705 10.52 10.52 10.52h26.476c5.362 0 9.873-4.038 10.458-9.38l5.292-48.397h7.92c5.363 0 9.863-4.027 10.46-9.35l2.944-26.377c23.349 2.8 44.646 13.67 80.404 49.135l.02.02.022.02c.12.117.281.154.404.266.89.804 1.868 1.512 2.995 1.977 1.282.528 2.641.809 4.008.809 1.37 0 2.737-.279 4.025-.813a10.541 10.541 0 0 0 3.431-2.293c.003-.003.01-.005.012-.008.108-.109.14-.257.241-.368.821-.9 1.533-1.897 2.004-3.042.429-1.044.579-2.153.657-3.261.02-.257.148-.474.148-.736V180.98c13.963-4.928 24.163-19.158 24.163-36.113 0-16.938-10.199-31.165-24.163-36.09V27.38c0-.262-.13-.479-.15-.736-.078-1.108-.226-2.217-.655-3.26-.47-1.145-1.185-2.145-2.006-3.045-.1-.112-.133-.257-.241-.366-.003-.003-.008-.005-.01-.008a10.54 10.54 0 0 0-3.414-2.291 10.5 10.5 0 0 0-4.037-.814h-.008zm-10.52 34.982v175.324c-47.438-41.492-74.798-40.495-114.087-38.871-5.102.212-10.582.4-16.274.538v-83.73l.688-.045c49.394-3.183 76.67-5.096 129.673-53.216zm69.88 32.33a10.453 10.453 0 0 0-7.438 3.093l-15.812 15.842a10.514 10.514 0 0 0 .021 14.875 10.5 10.5 0 0 0 7.428 3.071 10.48 10.48 0 0 0 7.45-3.09l15.809-15.842c4.1-4.11 4.099-10.768-.021-14.877a10.517 10.517 0 0 0-7.438-3.071zM58.671 107.134v80.437c-18.14-4.242-37.632-18.64-37.632-40.094 0-25.007 20.125-36.911 37.632-40.343zm215.303 25.508a10.514 10.514 0 0 0-10.52 10.52 10.516 10.516 0 0 0 10.52 10.523h35.505c5.815 0 10.52-4.708 10.52-10.522 0-5.816-4.705-10.52-10.52-10.52h-35.505zm-42.862 1.81c1.849 2.908 3.123 6.424 3.123 10.416 0 3.995-1.273 7.514-3.123 10.424v-20.84zm33.035 30.8c-2.694 0-5.39 1.025-7.445 3.08-4.1 4.12-4.097 10.776.012 14.886l15.861 15.842a10.524 10.524 0 0 0 7.44 3.073c2.691 0 5.392-1.027 7.447-3.082 4.099-4.12 4.1-10.777-.01-14.887l-15.862-15.842a10.524 10.524 0 0 0-7.443-3.07zM79.712 210.044h31.806l-1.592 14.28h-7.942a10.524 10.524 0 0 0-10.459 9.38l-5.29 48.398h-6.523v-72.058z"/>
</svg>
