<svg xmlns="http://www.w3.org/2000/svg" width="320" height="320" viewBox="0 0 320 320">
    <path d="M272.596 274.214c.698-.698 1.075-1.558 1.57-2.364C302.472 242.98 320 203.501 320 159.976 320 72.802 249.862 1.81 163.064.155c-.562-.048-1.094-.112-1.658-.084C160.933.066 160.474 0 160 0c-2.226 0-4.39.243-6.594.334-1.786-.292-3.56-.23-5.309.268C65.43 6.732 0 75.785 0 159.977c0 43.015 17.154 82.04 44.876 110.82.527.913.976 1.866 1.759 2.648.795.795 1.762 1.257 2.694 1.789 26.075 25.041 60.554 41.283 98.768 44.116 1.103.314 2.21.65 3.346.65.666 0 1.302-.273 1.963-.381 2.205.09 4.37.333 6.594.333.507 0 .997-.071 1.504-.076.174.008.339.1.515.1.298 0 .58-.15.878-.17 41.277-.745 78.712-17.19 106.718-43.611 1.043-.559 2.1-1.101 2.98-1.981zM25.238 172.282h53.4c1.006 18.24 4.14 36.353 9.628 53.935-11.296 5.62-21.955 12.56-31.75 20.858-17.378-20.613-28.706-46.444-31.278-74.793zm30.376-98.41c10.022 8.486 20.794 15.517 32.29 20.95-5.286 17.24-8.275 34.99-9.264 52.85H25.238c2.529-27.88 13.483-53.36 30.376-73.8zm101.168-49.096c15.285 16.083 27.508 34.282 36.463 53.948-24.29 7.454-49.696 8.01-73.608 1.619 8.857-20.032 21.192-38.844 37.055-55.564l.09-.003zm35.231 3.819c18.316 4.465 35.148 12.638 49.712 23.718-8.094 6.743-16.638 12.467-25.663 17.113-6.47-14.379-14.533-28.028-24.049-40.831zM103.242 147.67c.933-14.95 3.385-29.816 7.707-44.28 13.817 3.93 27.97 6.57 42.38 6.57 16.463 0 33-2.67 49.007-7.779 4.489 14.645 7.067 29.912 8.026 45.49h-107.12zm107.116 24.612c-.92 14.891-3.343 29.49-7.492 43.536-13.965-3.97-28.506-6.168-43.383-6.222h-.602c-16.483 0-32.546 2.55-47.816 7.344-4.388-14.58-6.89-29.573-7.825-44.658h107.118zM96.572 71.652c-8.338-4.11-16.182-9.195-23.566-15.248C86.66 44.923 102.57 36.052 120.01 30.65c-9.374 12.979-17.225 26.698-23.438 41zm.794 178.402c6.082 13.672 13.638 26.802 22.628 39.244-16.763-5.194-32.126-13.582-45.416-24.424 7.142-5.77 14.722-10.716 22.789-14.82zm22.856-9.146c12.63-3.774 25.675-6.383 39.164-6.7 11.93.043 23.456 2.16 34.705 5.184-9.024 20.373-21.57 39.196-37.333 55.785-.022-.001-.046-.004-.068-.004a195.02 195.02 0 0 1-36.468-54.265zm97.055 6.998c9.743 4.667 18.815 10.622 27.318 17.586-15.199 12.207-33.093 21.12-52.617 25.874 10.104-13.592 18.634-28.11 25.299-43.46zm8.77-23.438c5.102-16.793 7.947-34.316 8.928-52.186h59.786c-2.605 28.731-14.231 54.852-32.01 75.597-11.235-9.55-23.582-17.346-36.705-23.411zm68.714-76.798h-59.783c-1.026-18.8-4.247-37.174-9.83-54.763 12.44-6.153 24.26-13.988 35.19-23.487 19.114 21.153 31.703 48.263 34.423 78.25z"/>
</svg>
