<svg xmlns="http://www.w3.org/2000/svg" width="320" height="320" viewBox="0 0 320 320"><path d="M312.73 1.423a10.643 10.643 0 0 0-10.687.03l-92.883 54.05-92.95-54.048c-.157-.092-.35-.055-.51-.139-1.453-.757-3.032-1.282-4.784-1.295h-.152c-1.752.013-3.33.538-4.784 1.295-.16.084-.352.047-.51.139L7.218 58.631a10.669 10.669 0 0 0-5.307 9.227v241.465c0 3.816 2.043 7.351 5.348 9.26A10.708 10.708 0 0 0 12.587 320c1.855 0 3.711-.48 5.369-1.45l92.884-54.038 92.947 54.038c.158.093.35.055.51.139 1.453.757 3.033 1.282 4.785 1.296h.151c1.752-.014 3.332-.539 4.785-1.296.16-.084.351-.046.51-.139l98.254-57.165a10.669 10.669 0 0 0 5.307-9.227V10.682c0-3.816-2.045-7.35-5.36-9.259zM121.518 29.244l76.964 44.753V290.76l-76.964-44.746V29.244zM23.263 73.998l76.902-44.75v216.77l-76.902 44.747V73.998zm273.474 172.018l-76.902 44.74V73.997l76.902-44.746v216.765z"/></svg>