<svg xmlns="http://www.w3.org/2000/svg" width="320" height="320" viewBox="0 0 320 320">
    <path d="M159.95 0C71.76 0 0 71.781 0 160.015 0 248.229 71.759 320 159.95 320c88.253 0 160.051-71.77 160.05-159.985C320 71.78 248.203 0 159.95 0zm0 20.523c76.94 0 139.528 62.57 139.528 139.492 0 76.9-62.588 139.462-139.527 139.462-76.878 0-139.429-62.562-139.429-139.462 0-76.921 62.55-139.492 139.429-139.492zM127.826 34.02c-1.009 0-2.034.149-3.047.463C98.413 42.7 75.728 58.764 59.173 80.96c-3.388 4.54-2.455 10.974 2.095 14.361a10.2 10.2 0 0 0 6.12 2.033c3.127 0 6.224-1.423 8.238-4.128 13.939-18.7 33.05-32.228 55.245-39.142 5.412-1.684 8.436-7.446 6.753-12.847a10.276 10.276 0 0 0-9.8-7.217zm29.862 34.519c-4.8 0-9.053 3.318-10.053 8.175l-4.597 22.206c-27.043 8.538-46.837 33.571-46.837 63.412 0 20.138 9.153 38.008 23.302 50.258l-5.575 26.934c-1.143 5.552 2.425 10.981 7.966 12.134a10.7 10.7 0 0 0 2.093.211c4.76 0 9.038-3.338 10.04-8.178l4.044-19.52c2.109.853 4.355 1.402 6.564 2.04l-3.633 17.542c-1.142 5.551 2.425 10.981 7.967 12.133.7.14 1.403.212 2.095.212 4.76 0 9.037-3.338 10.04-8.178l3.943-19.03c16.606-.518 32.322-6.967 44.396-18.608 4.079-3.929 4.2-10.42.262-14.509-3.928-4.07-10.423-4.192-14.512-.264-7.16 6.897-16.171 11.087-25.811 12.439l17.614-85.025c2.906 1.778 5.685 3.793 8.189 6.22 4.048 3.928 10.552 3.847 14.51-.242 3.938-4.068 3.836-10.562-.242-14.51-5.367-5.2-11.568-9.171-18.147-12.275l3.527-17.025c1.142-5.552-2.425-10.984-7.967-12.136-5.602-1.143-10.99 2.425-12.133 7.967l-3.2 15.445c-2.275-.293-4.547-.6-6.866-.66l3.07-14.826c1.143-5.551-2.425-10.98-7.966-12.133-.7-.14-1.397-.21-2.083-.21zm5.27 47.525c1.494 0 2.938.283 4.408.424L148.8 206.117c-2.233-.727-4.38-1.578-6.45-2.62l18.05-87.175c.864-.05 1.682-.258 2.558-.258zm-25.015 7.47l-13.362 64.535a45.966 45.966 0 0 1-7.858-25.74c0-16.277 8.486-30.547 21.22-38.796z"/>
</svg>
