<svg xmlns="http://www.w3.org/2000/svg" width="800" height="600" viewBox="0 0 799.99999 600">
    <path d="M60.547 549.38a7.05 7.05 0 0 1-7.052-7.05V369.025c0-3.895 3.157-7.112 7.052-7.112H196.53a7.053 7.053 0 0 1 7.052 7.055 7.05 7.05 0 0 1-7.052 7.05H67.6V542.33a7.05 7.05 0 0 1-7.053 7.05M146.503 358.029H79.19a4.255 4.255 0 0 1-3.778-2.285l-29.24-56.511a4.23 4.23 0 1 1 7.514-3.89l28.057 54.226h64.759a4.232 4.232 0 0 1 4.232 4.23 4.233 4.233 0 0 1-4.232 4.23M295.853 539.413c0 4.865-3.947 8.811-8.814 8.811-4.87 0-8.817-3.946-8.817-8.811 0-4.87 3.946-8.82 8.817-8.82 4.867 0 8.814 3.95 8.814 8.82M387.848 450.692c12.54-13.613 14.835-36.175 14.835-75.7v-80.52c0-6.231-5.054-11.282-11.283-11.282-6.231 0-11.282 5.05-11.282 11.282v80.52c0 31.355-1.484 52.395-8.865 60.41-3.555 3.856-6.626 6.315-16.05 7.276-6.526.667-16.098.355-30.989.355H289.31c-6.232 0-11.285 5.05-11.285 11.282 0 6.229 5.053 11.282 11.285 11.282h34.904c3.423 0 6.683-.017 9.835-.057v34.23l-45.186 19.801a4.239 4.239 0 0 0-2.176 5.58 4.232 4.232 0 0 0 5.577 2.176l41.785-18.315v14.88a4.23 4.23 0 0 0 4.233 4.227 4.23 4.23 0 0 0 4.232-4.227v-14.53l40.988 17.965a4.23 4.23 0 0 0 5.574-2.176 4.244 4.244 0 0 0-2.177-5.58l-44.385-19.45v-34.787c20.82-.755 35.254-3.698 45.334-14.642M379.909 539.413c0 4.865 3.947 8.811 8.814 8.811 4.87 0 8.817-3.946 8.817-8.811 0-4.87-3.947-8.82-8.817-8.82-4.867 0-8.814 3.95-8.814 8.82M347.09 539.413c0 4.865-3.947 8.811-8.817 8.811a8.812 8.812 0 0 1-8.814-8.811c0-4.87 3.943-8.82 8.814-8.82 4.87 0 8.817 3.95 8.817 8.82" fill="#4e4e4e"/>
    <path d="M367.643 412.557c-24.314-64.138-72.551-94.167-143.45-89.365-8.905.606-15.877 7.479-16.938 16.015-.103.58-.178 1.17-.178 1.78l1.113 113.975c0 5.457 3.306 9.876 8.757 9.876 5.453 0 8.322-4.419 8.322-9.876l1.833-95.21c29.897-2.01 53.25 3.13 71.322 16.187 10.541 7.616 19.255 17.997 26.459 31.158l-68.56.672c-7.71.078-14.035 5.771-15.165 13.153-.034.214-.069.426-.094.652-.066.609-.112 1.227-.103 1.859 0 .157.023.303.028.452.003.082-.017.16-.011.24l.057.555c.017.183.032.363.054.546l11.174 111.62c.5 7.444 4.756 13.152 12.111 13.152 1.236.011.961-.031.961-.031 7.773-.52 10.77-6.775 10.25-14.548l-5.525-96.752c22.07-.214 65.341-.638 82.935-.815.315 0 .624-.034.933-.054.291 0 .617-.012 1.038-.063 13.164-1.525 16.266-15.712 12.677-25.178M205.23 332.08c0 14.018-11.365 25.386-25.39 25.386-14.018 0-25.383-11.368-25.383-25.387s11.365-25.384 25.384-25.384c14.024 0 25.39 11.365 25.39 25.384" fill="#4e4e4e"/>
    <path d="M204.081 50.272c-61.65-4.267-115.083 42.254-119.353 103.9-2.227 32.217 9.43 62.177 29.857 84.063l-4.927 32.29 30.466-11.89c14.362 8.364 30.809 13.658 48.506 14.882 61.65 4.267 115.08-42.249 119.347-103.898 4.27-61.644-42.249-115.083-103.896-119.347" fill="#356ea7"/>
    <path d="M163.264 161.535l-14.296 14.294c-4.399 4.4-6.755 10.055-6.755 16.18 0 6.13 2.514 11.94 6.755 16.184 8.8 8.955 23.25 8.955 32.207 0l23.563-23.882c5.66-5.654 8.016-13.825 5.968-21.992-.469-2.197-1.413-4.084-2.51-5.969-1.728-2.828-4.085-5.342-6.759-7.07-1.255-.946-3.137-.629-4.08.627 0 0-.158 0-.158.157-1.255 1.416-.947 3.458.626 4.556 1.888 1.258 3.46 2.986 4.716 5.028.941 1.412 1.57 3.143 2.042 4.87 1.413 5.968-.312 11.943-4.558 16.18l-22.307 22.313c-3.143 3.292-7.539 5.025-12.094 5.025-4.556 0-8.797-1.733-12.1-5.025-4.084-4.09-5.809-9.746-4.71-15.554.626-3.458 2.51-6.598 5.024-9.112l12.88-12.883c.63-.472.947-1.259.787-2.202-.157-2.2-2.828-3.138-4.24-1.725" fill="#fff"/>
    <path d="M164.91 162.274a.886.886 0 0 0-.647.257l-14.3 14.294c-4.146 4.152-6.34 9.403-6.34 15.186 0 5.62 2.311 11.156 6.34 15.186 3.999 4.066 9.341 6.303 15.052 6.303s11.096-2.243 15.163-6.303l23.557-23.877c5.4-5.394 7.495-13.116 5.605-20.66-.463-2.16-1.407-3.966-2.362-5.597-1.633-2.676-3.878-5.03-6.306-6.6-.372-.275-.695-.32-.918-.32-.5 0-.99.234-1.27.612l-.455.563c-.16.283-.223.592-.186.907.058.486.34.92.793 1.238 1.973 1.318 3.695 3.154 5.104 5.448.873 1.304 1.6 3.028 2.202 5.236 1.522 6.415-.326 12.961-4.918 17.548l-22.307 22.31c-3.29 3.449-8.068 5.44-13.095 5.44-5.005 0-9.532-1.882-13.096-5.44-4.424-4.427-6.283-10.556-5.096-16.813.638-3.532 2.511-6.944 5.41-9.847l12.882-12.883c.377-.3.457-.584.394-.97-.074-.92-.778-1.218-1.207-1.218m.106 54.043c-6.474 0-12.529-2.534-17.053-7.136-4.547-4.547-7.158-10.81-7.158-17.17 0-6.546 2.48-12.492 7.167-17.18l14.296-14.293a3.684 3.684 0 0 1 2.642-1.084c2.131 0 3.853 1.593 4.007 3.707a3.533 3.533 0 0 1-1.353 3.426l-12.726 12.755c-2.494 2.493-4.098 5.388-4.633 8.365-1.015 5.339.56 10.547 4.316 14.305 3.022 3.02 6.86 4.613 11.102 4.613 4.26 0 8.296-1.67 11.073-4.588l22.332-22.335c3.958-3.952 5.483-9.372 4.184-14.86-.509-1.864-1.115-3.32-1.844-4.41-1.224-1.99-2.671-3.532-4.321-4.638-1.133-.79-1.854-1.965-2.005-3.238a4.3 4.3 0 0 1 .749-2.974v-.927l.875-.088c1.459-1.419 3.984-1.642 5.62-.418 2.697 1.745 5.253 4.416 7.115 7.464 1.035 1.776 2.148 3.904 2.688 6.41 2.117 8.467-.249 17.19-6.351 23.284l-23.56 23.874c-4.604 4.607-10.693 7.136-17.162 7.136" fill="#fff"/>
    <path d="M185.42 144.093c-1.571-1.098-3.619-.78-4.56.787-2.356 3.615-3.614 7.853-3.614 12.254 0 6.126 2.513 11.94 6.757 16.181 1.096 1.101 2.197 2.045 3.455 2.826 1.256.79 3.143.472 4.087-.63 0-.15.157-.15.157-.311 1.098-1.413.941-3.458-.629-4.553-1.727-1.258-3.143-2.828-4.401-4.559a15.696 15.696 0 0 1-2.357-5.182c-1.1-4.555-.466-9.111 1.73-12.883.787-1.416.472-2.986-.626-3.93" fill="#fff"/>
    <path d="M183.417 144.855c-.332 0-.955.098-1.347.75a21.015 21.015 0 0 0-3.412 11.528c0 5.622 2.311 11.156 6.34 15.185 1.162 1.161 2.148 1.968 3.204 2.626.237.148.535.229.863.229.432 0 .864-.14 1.176-.364l.349-.474c.32-.418.463-.933.391-1.413a1.66 1.66 0 0 0-.717-1.124c-1.696-1.23-3.235-2.826-4.733-4.882a17.044 17.044 0 0 1-2.583-5.668c-1.18-4.888-.512-9.832 1.88-13.936.42-.758.3-1.613-.327-2.148a2.054 2.054 0 0 0-1.084-.309m5.648 33.134c-.86 0-1.675-.223-2.356-.649-1.224-.766-2.402-1.73-3.706-3.028-4.556-4.553-7.164-10.816-7.164-17.18 0-4.667 1.327-9.17 3.843-13.023 1.253-2.094 4.362-2.7 6.546-1.167 1.74 1.484 2.128 3.818 1.05 5.765-2.033 3.495-2.597 7.702-1.59 11.869a14.228 14.228 0 0 0 2.14 4.701c1.306 1.8 2.644 3.186 4.074 4.227a4.433 4.433 0 0 1 1.868 3c.163 1.073-.08 2.19-.658 3.132v.151l-.498.647c-.837.978-2.162 1.555-3.549 1.555M245.901 138.911c1.256 2.674 2.042 5.5 2.042 8.328 0 6.283-3.455 12.094-8.957 15.08l-16.02 8.642c-.945.47-1.574 1.413-1.734 2.511v.315c-.472 2.674 2.36 4.559 4.559 3.3l17.124-9.111c9.584-5.345 11.94-13.356 11.94-21.68 0-3.773-1.098-7.545-2.825-10.842-.472-.627-1.576-2.672-2.045-3.298-5.34-8.17-15.083-10.684-29.065-7.699-1.727.318-2.828 2.202-2.353 3.927l.157.472c.312 1.573 2.036 2.514 3.612 2.196 14.611-2.98 19.953 1.888 23.565 7.86" fill="#fff"/>
    <path d="M230.336 128.739c9.744 0 13.945 4.773 16.768 9.443 1.515 3.197 2.248 6.197 2.248 9.057a18.536 18.536 0 0 1-9.692 16.321l-16.027 8.643c-.546.274-.91.817-1.004 1.475l.017.109c-.143.918.106 1.384.335 1.659.518.614 1.416.818 2.108.414l17.164-9.128c7.73-4.316 11.191-10.619 11.191-20.437 0-3.334-.92-6.852-2.665-10.184-.138-.151-.567-.872-.99-1.598-.363-.612-.718-1.224-.932-1.513-5.074-7.748-14.17-10.035-27.64-7.158-.595.103-.919.5-1.062.732a1.8 1.8 0 0 0-.228 1.438l.134.398c.214 1.018 1.207 1.415 1.996 1.26 3.026-.617 5.814-.931 8.28-.931m-6.032 50.158a4.617 4.617 0 0 1-3.486-1.638c-.87-1.035-1.213-2.357-.975-3.718l-.02-.069c.243-1.77 1.175-3.108 2.51-3.772l15.987-8.625c5.065-2.743 8.21-8.045 8.21-13.836 0-2.44-.64-5.04-1.907-7.724-2.47-4.07-5.968-7.954-14.288-7.954-2.279 0-4.878.295-7.718.875-2.448.49-4.828-1.063-5.28-3.303l-.111-.303a4.656 4.656 0 0 1 .543-3.763c.66-1.053 1.719-1.782 2.897-1.997 14.463-3.083 24.867-.297 30.498 8.314.206.269.632.98 1.052 1.702.363.617.72 1.235.941 1.53 2.073 3.918 3.109 7.89 3.109 11.68 0 10.815-4.027 18.093-12.664 22.912l-17.15 9.123a4.354 4.354 0 0 1-2.148.566M208.668 121.789c1.727.157 3.137-1.101 3.137-2.829l.318-7.698c.157-1.734-1.099-2.986-2.829-3.146-1.727-.155-3.14 1.1-3.14 2.825l-.312 7.702c-.16 1.733 1.099 2.985 2.826 3.146" fill="#fff"/>
    <path d="M209.15 109.523c-.987 0-1.585.598-1.585 1.418l-.314 7.76c-.103 1.143.77 1.61 1.547 1.68l.16.012c.403 0 .772-.143 1.033-.406.266-.263.406-.618.406-1.026l.317-7.754c.103-1.15-.77-1.612-1.544-1.684h-.02zm-.192 13.687h-.003c-.134 0-.274-.005-.414-.017-2.566-.234-4.327-2.248-4.107-4.679l.312-7.627c.003-2.454 2.102-4.41 4.675-4.172 1.202.108 2.274.617 3.032 1.424.804.87 1.187 2.025 1.078 3.249l-.314 7.627c0 1.11-.444 2.185-1.245 2.98a4.258 4.258 0 0 1-3.014 1.215M186.988 102.934c-1.57.63-2.36 2.357-1.727 3.93l6.44 15.866c.626 1.568 2.357 2.354 3.927 1.728 1.573-.632 2.356-2.357 1.727-3.93l-6.438-15.86c-.629-1.576-2.359-2.205-3.929-1.734" fill="#fff"/>
    <path d="M188.023 104.191c-.211 0-.426.032-.629.092-.303.125-.63.44-.806.835a1.56 1.56 0 0 0-.02 1.22l6.44 15.862c.335.846 1.273 1.284 2.096.949.858-.343 1.273-1.267.944-2.1l-6.438-15.851c-.251-.632-.846-1.007-1.587-1.007m6.495 21.895c-1.822 0-3.44-1.112-4.13-2.837l-6.437-15.855a4.357 4.357 0 0 1 .06-3.42 4.48 4.48 0 0 1 2.454-2.348 4.991 4.991 0 0 1 1.558-.258c1.91 0 3.524 1.064 4.201 2.774l6.438 15.853c.924 2.308-.18 4.838-2.511 5.77a4.325 4.325 0 0 1-1.633.321M178.347 118.804c-1.256-1.101-3.143-1.101-4.244.157-1.098 1.256-1.098 3.14.157 4.238l7.387 7.073c1.256 1.098 3.143 1.098 4.239-.16 1.1-1.256 1.1-3.14-.155-4.239l-7.384-7.07z" fill="#fff"/>
    <path d="M176.242 119.41c-.297 0-.726.08-1.078.474a1.785 1.785 0 0 0-.452 1.218c.003.29.095.7.478 1.033l7.433 7.118c.492.432 1.364.892 2.199-.066.323-.366.489-.832.458-1.281a1.406 1.406 0 0 0-.475-.975l-7.433-7.113a1.777 1.777 0 0 0-1.13-.409m7.505 13.075a4.6 4.6 0 0 1-3.029-1.152l-7.433-7.115c-.855-.744-1.367-1.84-1.395-3.043a4.616 4.616 0 0 1 1.15-3.146c1.544-1.75 4.424-1.873 6.234-.286l7.433 7.11c.803.703 1.312 1.738 1.387 2.868.08 1.187-.34 2.4-1.147 3.323-.81.932-1.95 1.441-3.2 1.441" fill="#fff"/>
    <path d="M501.781 437.205c-1.16-.549-2.757-.826-4.781-.826h-10.47v13.552H497c2.36 0 4.275-.506 5.748-1.515 1.47-1.013 2.208-2.797 2.208-5.354 0-2.874-1.058-4.824-3.175-5.857m-20.55-5.38h17.502c3.46 0 6.254.985 8.382 2.946 2.128 1.96 3.192 4.716 3.192 8.265 0 3.055-.95 5.711-2.846 7.976-1.902 2.263-4.805 3.392-8.717 3.392H486.53v16.536h-5.3v-39.114zM533.763 430.948l-7.11 7.696h-3.674l4.873-7.696h5.911zm-12.114 35.68c1.012.8 2.21 1.195 3.595 1.195 1.687 0 3.317-.389 4.899-1.167 2.662-1.293 3.992-3.412 3.992-6.354v-3.853c-.583.372-1.338.684-2.256.933-.924.248-1.825.429-2.711.532l-2.897.374c-1.736.229-3.04.592-3.918 1.09-1.482.832-2.223 2.159-2.223 3.986 0 1.379.507 2.468 1.519 3.264m10.09-12.944c1.103-.143 1.838-.604 2.21-1.381.215-.43.32-1.044.32-1.845 0-1.642-.58-2.831-1.741-3.572-1.158-.738-2.823-1.107-4.98-1.107-2.499 0-4.269.678-5.316 2.034-.586.749-.966 1.864-1.144 3.343h-4.472c.091-3.524 1.227-5.974 3.417-7.356 2.19-1.378 4.73-2.067 7.622-2.067 3.349 0 6.068.637 8.165 1.916 2.073 1.278 3.108 3.268 3.108 5.962v16.433c0 .495.103.895.306 1.198.206.298.635.45 1.293.45.211 0 .452-.012.718-.04.266-.026.549-.066.852-.12v3.54c-.747.214-1.316.346-1.705.4-.389.054-.92.08-1.595.08-1.653 0-2.852-.586-3.595-1.759-.392-.617-.667-1.495-.827-2.63-.975 1.275-2.38 2.384-4.207 3.325-1.827.941-3.843 1.41-6.042 1.41-2.646 0-4.808-.8-6.484-2.405-1.678-1.604-2.516-3.612-2.516-6.023 0-2.642.826-4.69 2.476-6.143 1.65-1.455 3.818-2.35 6.495-2.688l7.642-.955zM563.223 448.707c-1.45-1.704-3.294-2.557-5.537-2.557-3.357 0-5.65 1.582-6.886 4.74-.655 1.687-.98 3.897-.98 6.631 0 3.215.648 5.657 1.944 7.336 1.301 1.678 3.043 2.514 5.233 2.514 3.426 0 5.837-1.55 7.23-4.66.778-1.755 1.167-3.806 1.167-6.15 0-3.53-.724-6.15-2.17-7.854m-.59-5.139c.904.623 1.825 1.527 2.76 2.717v-3.595h4.421v25.933c0 3.62-.532 6.48-1.593 8.574-1.982 3.87-5.722 5.803-11.225 5.803-3.063 0-5.634-.687-7.721-2.062-2.088-1.376-3.255-3.53-3.504-6.458h4.87c.232 1.278.69 2.265 1.38 2.957 1.077 1.064 2.77 1.596 5.081 1.596 3.655 0 6.049-1.296 7.178-3.887.67-1.527.981-4.25.927-8.173-.952 1.456-2.102 2.54-3.446 3.249-1.344.709-3.123 1.064-5.334 1.064-3.077 0-5.768-1.096-8.073-3.286-2.308-2.194-3.463-5.82-3.463-10.88 0-4.772 1.164-8.499 3.489-11.181 2.325-2.68 5.13-4.021 8.422-4.021 2.225 0 4.172.552 5.831 1.65M577.11 442.557h4.873v28.384h-4.873v-28.384zm0-10.73h4.873v5.43h-4.873v-5.43zM589.224 442.423h4.553v4.047c1.347-1.667 2.78-2.865 4.287-3.595 1.507-.726 3.186-1.09 5.033-1.09 4.047 0 6.778 1.41 8.2 4.233.78 1.545 1.172 3.755 1.172 6.63v18.291h-4.873v-17.971c0-1.739-.258-3.143-.772-4.207-.853-1.776-2.397-2.663-4.633-2.663-1.136 0-2.068.115-2.797.346-1.313.392-2.466 1.17-3.46 2.343-.799.94-1.316 1.916-1.56 2.917-.237 1-.357 2.433-.357 4.298v14.937h-4.793v-28.516zM624.742 466.628c1.013.798 2.21 1.196 3.595 1.196 1.687 0 3.317-.39 4.899-1.17 2.662-1.293 3.992-3.409 3.992-6.352v-3.855c-.583.372-1.338.687-2.256.935-.924.25-1.825.43-2.711.532l-2.894.372c-1.74.232-3.043.595-3.921 1.09-1.482.832-2.222 2.162-2.222 3.986 0 1.382.506 2.471 1.518 3.266m10.093-12.943c1.1-.143 1.836-.604 2.207-1.384.215-.427.32-1.041.32-1.845 0-1.639-.58-2.828-1.741-3.57-1.158-.737-2.82-1.109-4.979-1.109-2.5 0-4.27.678-5.316 2.034-.587.752-.967 1.867-1.141 3.346h-4.476c.091-3.524 1.23-5.977 3.417-7.356 2.191-1.381 4.73-2.07 7.622-2.07 3.349 0 6.071.64 8.165 1.919 2.073 1.275 3.108 3.265 3.108 5.962v16.43c0 .498.103.895.306 1.198.206.3.635.452 1.293.452.212 0 .452-.014.718-.04.266-.026.549-.068.852-.12v3.54c-.746.212-1.313.347-1.704.401-.39.051-.921.08-1.596.08-1.653 0-2.849-.586-3.595-1.759-.389-.62-.666-1.498-.826-2.634-.976 1.279-2.38 2.388-4.207 3.326-1.828.941-3.844 1.413-6.043 1.413-2.646 0-4.808-.804-6.483-2.408-1.68-1.604-2.517-3.612-2.517-6.023 0-2.642.826-4.69 2.477-6.143 1.65-1.453 3.817-2.348 6.497-2.685l7.642-.955zM665.665 431.827h6.243l19.505 31.6v-31.6h5.059v39.114h-5.952l-19.795-31.564v31.564h-5.06v-39.114zM722.092 464.222c1.167-2.402 1.75-5.076 1.75-8.019 0-2.66-.42-4.821-1.264-6.489-1.333-2.625-3.632-3.935-6.898-3.935-2.894 0-5.002 1.118-6.317 3.352-1.316 2.234-1.976 4.927-1.976 8.085 0 3.028.66 5.556 1.976 7.578 1.315 2.02 3.403 3.029 6.263 3.029 3.143 0 5.296-1.198 6.466-3.6m2.974-18.953c2.52 2.448 3.78 6.046 3.78 10.799 0 4.596-1.109 8.39-3.328 11.388-2.222 2.997-5.668 4.493-10.338 4.493-3.898 0-6.99-1.322-9.28-3.975-2.294-2.652-3.438-6.212-3.438-10.68 0-4.79 1.207-8.602 3.62-11.439 2.417-2.837 5.66-4.258 9.733-4.258 3.646 0 6.732 1.224 9.251 3.672M481.231 496.27h28.384v4.793h-23.219v11.874h21.46v4.527h-21.46v13.258h23.617v4.662H481.23V496.27zM516.457 506.867h4.553v4.046c1.347-1.667 2.78-2.865 4.286-3.594 1.508-.727 3.186-1.09 5.034-1.09 4.046 0 6.778 1.41 8.199 4.233.78 1.544 1.172 3.755 1.172 6.629v18.291h-4.873v-17.971c0-1.739-.257-3.143-.772-4.207-.852-1.776-2.396-2.662-4.633-2.662-1.135 0-2.067.114-2.797.346-1.312.391-2.465 1.17-3.46 2.342-.798.94-1.316 1.916-1.559 2.917-.237 1-.357 2.434-.357 4.298v14.937h-4.793v-28.515zM565.62 508.384c2.016 1.565 3.225 4.253 3.634 8.068h-4.658c-.284-1.759-.933-3.217-1.945-4.378-1.01-1.161-2.634-1.745-4.87-1.745-3.055 0-5.237 1.49-6.552 4.467-.853 1.93-1.279 4.319-1.279 7.153 0 2.857.604 5.256 1.813 7.21 1.207 1.95 3.103 2.922 5.697 2.922 1.988 0 3.564-.606 4.728-1.816 1.16-1.212 1.964-2.868 2.408-4.973h4.658c-.532 3.78-1.861 6.546-3.992 8.293-2.13 1.748-4.856 2.623-8.173 2.623-3.73 0-6.701-1.361-8.92-4.087-2.22-2.725-3.33-6.128-3.33-10.21 0-5.007 1.216-8.902 3.647-11.69 2.434-2.786 5.528-4.179 9.295-4.179 3.211 0 5.825.78 7.838 2.342M591.734 528.666c1.167-2.402 1.75-5.076 1.75-8.02 0-2.659-.42-4.82-1.264-6.488-1.332-2.625-3.632-3.935-6.898-3.935-2.894 0-5.002 1.118-6.317 3.351-1.316 2.234-1.976 4.928-1.976 8.085 0 3.029.66 5.557 1.976 7.579 1.315 2.019 3.403 3.028 6.263 3.028 3.143 0 5.296-1.198 6.466-3.6m2.974-18.952c2.52 2.448 3.781 6.045 3.781 10.798 0 4.596-1.11 8.391-3.329 11.388-2.222 2.997-5.668 4.493-10.338 4.493-3.898 0-6.99-1.324-9.28-3.975-2.294-2.651-3.438-6.212-3.438-10.679 0-4.79 1.207-8.602 3.62-11.44 2.417-2.836 5.66-4.257 9.733-4.257 3.646 0 6.732 1.224 9.251 3.672M604.374 506.867h4.553v4.046c1.347-1.667 2.78-2.865 4.287-3.594 1.507-.727 3.185-1.09 5.033-1.09 4.047 0 6.778 1.41 8.2 4.233.78 1.544 1.172 3.755 1.172 6.629v18.291h-4.874v-17.971c0-1.739-.257-3.143-.772-4.207-.852-1.776-2.396-2.662-4.633-2.662-1.135 0-2.067.114-2.797.346-1.312.391-2.465 1.17-3.46 2.342-.798.94-1.316 1.916-1.559 2.917-.237 1-.357 2.434-.357 4.298v14.937h-4.793v-28.515zM635.659 498.906h4.844v7.962h4.553v3.912h-4.553v18.612c0 .995.338 1.661 1.013 1.996.374.197.995.294 1.864.294.23 0 .48-.005.747-.017.266-.011.575-.043.93-.091v3.81c-.55.16-1.122.274-1.717.345a16.86 16.86 0 0 1-1.93.106c-2.236 0-3.755-.572-4.553-1.716-.798-1.144-1.198-2.631-1.198-4.461V510.78h-3.861v-3.912h3.86v-7.962zM649.983 506.867h4.553v4.924c.372-.958 1.287-2.125 2.743-3.497 1.455-1.376 3.131-2.065 5.033-2.065.089 0 .237.009.452.026.211.02.575.051 1.092.106v5.059a7.51 7.51 0 0 0-.786-.106c-.24-.017-.503-.029-.787-.029-2.413 0-4.27.778-5.565 2.334-1.293 1.553-1.942 3.34-1.942 5.362v16.401h-4.793v-28.515zM673.2 531.072c1.013.797 2.211 1.195 3.595 1.195 1.688 0 3.318-.389 4.9-1.17 2.662-1.292 3.992-3.409 3.992-6.351v-3.855c-.584.371-1.339.686-2.257.935-.923.249-1.824.429-2.71.532l-2.895.371c-1.739.232-3.043.595-3.92 1.09-1.482.832-2.223 2.162-2.223 3.987 0 1.381.506 2.47 1.519 3.266m10.092-12.944c1.101-.143 1.836-.604 2.208-1.384.214-.426.32-1.041.32-1.845 0-1.639-.58-2.828-1.742-3.569-1.158-.738-2.82-1.11-4.979-1.11-2.5 0-4.27.678-5.316 2.034-.586.752-.967 1.867-1.141 3.346h-4.476c.092-3.524 1.227-5.977 3.418-7.356 2.19-1.381 4.73-2.07 7.621-2.07 3.35 0 6.072.64 8.165 1.919 2.074 1.275 3.109 3.266 3.109 5.963v16.43c0 .497.103.894.306 1.198.206.3.635.451 1.292.451.212 0 .452-.014.718-.04.266-.025.55-.068.852-.12v3.54c-.746.212-1.312.347-1.704.401-.389.052-.92.08-1.596.08-1.653 0-2.848-.586-3.595-1.759-.389-.62-.666-1.498-.826-2.633-.975 1.278-2.38 2.387-4.207 3.326-1.827.94-3.844 1.412-6.043 1.412-2.645 0-4.807-.803-6.483-2.408-1.679-1.604-2.517-3.612-2.517-6.023 0-2.642.827-4.69 2.477-6.142 1.65-1.453 3.818-2.348 6.497-2.686l7.642-.955zM703.304 529.125c1.29 2.06 3.355 3.09 6.2 3.09 2.205 0 4.021-.953 5.443-2.86 1.421-1.908 2.133-4.648 2.133-8.217 0-3.6-.735-6.269-2.2-8-1.466-1.73-3.277-2.596-5.43-2.596-2.402 0-4.35.924-5.84 2.769-1.496 1.847-2.24 4.561-2.24 8.147 0 3.055.644 5.611 1.934 7.667m10.699-21.38c.846.532 1.81 1.464 2.891 2.797v-14.405h4.605v39.246h-4.313v-3.967c-1.113 1.756-2.434 3.026-3.952 3.807-1.522.78-3.264 1.172-5.225 1.172-3.166 0-5.909-1.335-8.222-4.006-2.32-2.672-3.475-6.226-3.475-10.665 0-4.155 1.055-7.75 3.169-10.796 2.113-3.045 5.133-4.567 9.057-4.567 2.176 0 3.995.463 5.465 1.384M733.853 531.072c1.013.797 2.211 1.195 3.595 1.195 1.687 0 3.318-.389 4.9-1.17 2.662-1.292 3.991-3.409 3.991-6.351v-3.855c-.583.371-1.338.686-2.256.935-.924.249-1.825.429-2.711.532l-2.894.371c-1.74.232-3.043.595-3.921 1.09-1.482.832-2.222 2.162-2.222 3.987 0 1.381.506 2.47 1.518 3.266m10.093-12.944c1.1-.143 1.836-.604 2.208-1.384.214-.426.32-1.041.32-1.845 0-1.639-.58-2.828-1.742-3.569-1.158-.738-2.82-1.11-4.979-1.11-2.5 0-4.27.678-5.316 2.034-.587.752-.967 1.867-1.141 3.346h-4.476c.092-3.524 1.227-5.977 3.418-7.356 2.19-1.381 4.73-2.07 7.621-2.07 3.349 0 6.071.64 8.165 1.919 2.073 1.275 3.109 3.266 3.109 5.963v16.43c0 .497.103.894.306 1.198.205.3.634.451 1.292.451.212 0 .452-.014.718-.04.266-.025.55-.068.852-.12v3.54c-.746.212-1.312.347-1.704.401-.39.052-.921.08-1.596.08-1.653 0-2.848-.586-3.595-1.759-.389-.62-.666-1.498-.826-2.633-.976 1.278-2.38 2.387-4.207 3.326-1.828.94-3.844 1.412-6.043 1.412-2.645 0-4.807-.803-6.483-2.408-1.679-1.604-2.517-3.612-2.517-6.023 0-2.642.827-4.69 2.477-6.142 1.65-1.453 3.818-2.348 6.497-2.686l7.642-.955z" fill="#4e4e4e"/>
    <path d="M485.206 364.997h44.936v-64.89l-44.936 64.89zm44.936 9.369h-55.867v-9.544l56.908-81.37h10.064v81.545h17.002v9.369h-17.002v30.188h-11.105v-30.188zM642.918 344.35c0-6.595-.375-13.038-1.127-19.344-.755-6.303-2.228-11.943-4.424-16.919-2.2-4.97-5.294-8.962-9.283-11.971-3.99-3.006-9.226-4.51-15.7-4.51-6.135 0-11.134 1.533-15.01 4.599-3.874 3.065-6.915 7.14-9.108 12.231-2.2 5.09-3.73 10.873-4.599 17.348a149.11 149.11 0 0 0-1.3 19.782c0 7.867.491 15.005 1.475 21.426.98 6.42 2.628 11.885 4.944 16.395 2.311 4.513 5.406 8.013 9.284 10.499 3.872 2.488 8.76 3.729 14.66 3.729 6.594 0 11.885-1.619 15.874-4.856 3.99-3.24 7.027-7.404 9.109-12.495 2.082-5.088 3.472-10.813 4.164-17.176a172.449 172.449 0 0 0 1.04-18.738m-30.188-62.113c6.012 0 11.22.895 15.615 2.691 4.395 1.793 8.125 4.25 11.193 7.373 3.06 3.12 5.548 6.766 7.459 10.93 1.907 4.164 3.383 8.588 4.424 13.27a98.567 98.567 0 0 1 2.082 14.49c.346 4.974.52 9.833.52 14.575 0 8.096-.58 15.846-1.735 23.247-1.156 7.404-3.27 13.942-6.332 19.607-3.066 5.669-7.261 10.179-12.578 13.533-5.325 3.352-12.206 5.034-20.648 5.034-8.445 0-15.354-1.682-20.734-5.034-5.38-3.354-9.603-7.896-12.666-13.621-3.066-5.726-5.176-12.375-6.332-19.95-1.158-7.576-1.736-15.587-1.736-24.032 0-7.747.52-15.323 1.562-22.727 1.04-7.404 3.037-14.025 5.985-19.867 2.952-5.84 7.142-10.556 12.58-14.14 5.438-3.586 12.55-5.379 21.341-5.379M678.138 364.997h44.937v-64.89l-44.937 64.89zm44.937 9.369h-55.867v-9.544l56.911-81.37h10.06v81.545h17.006v9.369H734.18v30.188h-11.105v-30.188z" fill="#356ea7"/>
</svg>
