<svg xmlns="http://www.w3.org/2000/svg" viewBox="0 0 320 50" width="320" height="50">
    <path fill="#fff" d="M112.906 0c-4.443 0-8.545 1.105-12.306 3.314-3.738 2.187-6.676 5.278-8.815 9.274-2.14 3.996-3.21 8.38-3.21 13.152 0 5.924 1.622 11.073 4.866 15.446C97.79 47.062 103.927 50 111.85 50c4.396 0 8.19-.988 11.388-2.963 3.197-1.975 5.995-5.09 8.393-9.344l-1.095-.705c-2.844 3.95-5.452 6.594-7.826 7.934-2.375 1.316-5.115 1.974-8.218 1.974-3.573 0-6.757-.846-9.555-2.54-2.773-1.69-4.855-4.124-6.242-7.297-1.387-3.175-2.08-6.924-2.08-11.25 0-5.242.728-9.626 2.186-13.152 1.482-3.526 3.503-6.087 6.065-7.685 2.563-1.622 5.43-2.434 8.604-2.434 3.783 0 7.028 1.07 9.73 3.208 2.704 2.14 4.786 5.642 6.243 10.508h1.092L129.443 0h-1.234c-.26 1.128-.695 2.01-1.306 2.645a2.33 2.33 0 0 1-1.658.67c-.423 0-1.128-.26-2.115-.776C119.77.846 116.363 0 112.907 0zM.564 1.094L0 12.307h1.34c.164-2.163.68-3.88 1.55-5.15.87-1.268 1.917-2.126 3.14-2.573.94-.33 2.526-.494 4.76-.494h5.747v36.53c0 2.68-.258 4.397-.775 5.15-.847 1.222-2.28 1.832-4.303 1.832H9.767v1.304h20.275v-1.304h-1.658c-1.857 0-3.232-.494-4.125-1.48-.635-.73-.953-2.562-.953-5.5V4.09h6.736c1.975 0 3.56.33 4.76.988C36.025 5.713 37 6.71 37.73 8.074c.445.846.8 2.258 1.057 4.233h1.34l-.53-11.213H.565zm42.737 0v1.304h1.692c1.975 0 3.386.47 4.233 1.41.61.706.916 2.574.916 5.606V40.48c0 2.328-.14 3.867-.42 4.62-.26.752-.767 1.315-1.52 1.69a6.688 6.688 0 0 1-3.208.812h-1.69v1.304H80.15l4.125-11.988h-1.41c-1.528 2.938-3.02 5.136-4.478 6.594-1.13 1.105-2.303 1.846-3.526 2.222-1.223.376-3.186.563-5.89.563h-8.11c-1.315 0-2.21-.128-2.68-.387-.47-.282-.8-.647-.987-1.094-.188-.47-.28-1.763-.28-3.88v-15.76h10.505c1.998 0 3.48.235 4.443.705.965.47 1.658 1.118 2.08 1.94.33.66.66 2.152.99 4.48h1.304V15.655H74.93c-.14 2.727-.823 4.63-2.045 5.71-.917.824-2.74 1.236-5.467 1.236H56.912v-18.9h13.115c2.375 0 4.033.176 4.973.528 1.175.494 2.057 1.213 2.645 2.153.61.94 1.164 2.668 1.658 5.183h1.375l-.53-10.472H43.3z"/>
    <path fill="#c1272d" d="M150 0h3v50h-3z"/>
    <path fill="#fff" d="M250.244 0L246.2 1.658l.253.518c.395-.158.72-.237.977-.237.237 0 .43.064.578.193.158.128.272.37.342.724.07.346.103 1.285.103 2.815V17.99c0 .84-.065 1.407-.193 1.703-.13.296-.306.51-.533.637-.227.128-.652.193-1.274.193v.532h6.65v-.532c-.702 0-1.18-.07-1.437-.21a1.394 1.394 0 0 1-.578-.635c-.12-.277-.178-.84-.178-1.688V0h-.666zm38.188 0c-.425 0-.786.147-1.082.443a1.432 1.432 0 0 0-.428 1.053c0 .415.147.77.443 1.067.296.296.652.443 1.067.443.414 0 .764-.147 1.05-.443.297-.297.444-.652.444-1.067 0-.415-.147-.766-.444-1.053a1.404 1.404 0 0 0-1.05-.443zm-27.334.475l-1.555 5.107h.504l4.367-5.107h-3.316zm-88.266.502l-.236 4.71h.562c.07-.91.287-1.63.653-2.164.366-.533.806-.892 1.32-1.08.394-.138 1.06-.207 1.997-.207h2.414v15.34c0 1.126-.108 1.846-.325 2.162-.356.514-.958.77-1.807.77h-.71v.547h8.513v-.547h-.694c-.78 0-1.358-.207-1.733-.62-.266-.307-.4-1.078-.4-2.312V2.236h2.828c.83 0 1.497.138 2 .414.514.267.923.686 1.23 1.258.187.356.334.948.443 1.778h.564l-.222-4.71h-16.393zm22.582 6.1c-1.797 0-3.292.653-4.486 1.956-1.185 1.293-1.778 3.098-1.778 5.418 0 2.143.578 3.85 1.733 5.124 1.165 1.264 2.56 1.897 4.19 1.897 1.5 0 2.748-.552 3.745-1.657.997-1.116 1.6-2.35 1.807-3.704l-.46-.296c-.443 1.185-.996 2.024-1.657 2.518-.652.484-1.42.725-2.31.725-1.33 0-2.492-.572-3.48-1.717-.986-1.145-1.476-2.725-1.466-4.738h9.373c0-1.68-.488-3.017-1.465-4.014-.977-1.007-2.226-1.51-3.746-1.51zm13.62.015c-1.776 0-3.3.667-4.573 2-1.263 1.332-1.894 3.065-1.894 5.197 0 2.2.572 3.948 1.717 5.24 1.145 1.294 2.488 1.94 4.028 1.94 1.294 0 2.473-.48 3.54-1.437 1.066-.967 1.78-2.344 2.146-4.13l-.43-.208c-.513 1.195-1.04 2.02-1.584 2.473-.77.66-1.638.992-2.605.992-1.352 0-2.43-.617-3.23-1.85-.788-1.245-1.182-2.675-1.182-4.294 0-1.59.4-2.87 1.2-3.836.6-.73 1.395-1.096 2.382-1.096.612 0 1.092.15 1.437.445.346.305.543.75.592 1.33.06.584.172.98.34 1.187.296.375.736.562 1.318.562.435 0 .77-.115 1.008-.342.247-.237.37-.543.37-.918 0-.76-.43-1.49-1.288-2.192-.86-.71-1.956-1.066-3.29-1.066zm10.204 0L215.15 8.75l.223.533c.385-.148.716-.22.992-.22.257 0 .46.063.608.19.158.13.27.372.34.727.078.356.12 1.348.12 2.977v5.033c0 .987-.126 1.66-.372 2.014-.236.345-.7.52-1.39.52h-.297v.53h6.707v-.53c-.74 0-1.234-.066-1.48-.194a1.43 1.43 0 0 1-.563-.637c-.108-.217-.162-.785-.162-1.703v-7.152c1.165-1.283 2.335-1.924 3.51-1.924.76 0 1.297.28 1.613.844.326.553.488 1.446.488 2.68v5.552c0 .78-.02 1.245-.058 1.393-.1.375-.277.66-.533.857-.247.188-.687.283-1.32.283h-.28v.532h6.707v-.532c-.652 0-1.1-.07-1.346-.21a1.226 1.226 0 0 1-.52-.575c-.137-.306-.206-.89-.206-1.748V12.2c0-1.223-.11-2.13-.326-2.723-.316-.85-.74-1.457-1.274-1.823-.533-.375-1.17-.562-1.91-.562-1.44 0-2.956.958-4.545 2.873V7.092h-.637zm18.48 0a6.204 6.204 0 0 0-3.198.888c-1.007.583-1.822 1.49-2.444 2.725-.612 1.224-.918 2.457-.918 3.7 0 1.71.51 3.25 1.526 4.622 1.204 1.63 2.827 2.444 4.87 2.444 1.254 0 2.39-.315 3.407-.947 1.028-.63 1.83-1.57 2.413-2.814.582-1.245.875-2.474.875-3.69 0-1.726-.53-3.256-1.586-4.588-1.244-1.56-2.892-2.34-4.945-2.34zm23.57 0c-1.124 0-2.19.296-3.196.888-1.007.583-1.822 1.49-2.444 2.725-.612 1.224-.918 2.457-.918 3.7 0 1.71.51 3.25 1.526 4.622 1.204 1.63 2.828 2.444 4.87 2.444 1.255 0 2.39-.315 3.407-.947 1.027-.63 1.83-1.57 2.412-2.814.583-1.245.875-2.474.875-3.69 0-1.726-.527-3.256-1.584-4.588-1.243-1.56-2.894-2.34-4.947-2.34zm14.987 0c-1.58 0-2.877.484-3.894 1.45-1.006.968-1.51 2.123-1.51 3.466 0 .878.223 1.683.667 2.414.444.72 1.08 1.283 1.91 1.687-1.016.848-1.67 1.506-1.955 1.97-.276.464-.414.867-.414 1.213 0 .306.103.583.31.83.218.237.583.508 1.096.814-.937.978-1.44 1.51-1.51 1.6-.523.652-.87 1.158-1.037 1.524a1.705 1.705 0 0 0-.162.71c0 .535.37 1.05 1.11 1.543 1.313.858 2.923 1.287 4.828 1.287 2.478 0 4.485-.72 6.025-2.163 1.047-.977 1.57-2.023 1.57-3.138 0-.81-.277-1.49-.83-2.044-.542-.553-1.273-.893-2.19-1.022-.603-.088-1.92-.157-3.954-.207-1.106-.03-1.796-.064-2.072-.103-.474-.07-.795-.184-.963-.342-.16-.158-.238-.32-.238-.488 0-.198.073-.435.22-.71.16-.287.456-.618.89-.993.7.198 1.387.297 2.058.297 1.63 0 2.928-.45 3.895-1.347.967-.898 1.45-1.98 1.45-3.242 0-1.106-.276-2.014-.83-2.725h1.763c.424 0 .67-.015.74-.045a.31.31 0 0 0 .164-.12c.05-.098.074-.274.074-.53 0-.227-.03-.386-.09-.475a.228.228 0 0 0-.148-.12c-.07-.03-.316-.042-.74-.042h-2.87c-.95-.63-2.07-.948-3.363-.948zm12.733 0l-4.086 1.658.207.533c.394-.148.73-.22 1.007-.22.256 0 .46.063.607.19.148.12.255.337.324.653.09.435.135 1.387.135 2.858v5.226c0 .84-.07 1.407-.21 1.703-.127.296-.303.51-.53.637-.227.128-.673.193-1.334.193v.532h6.59v-.532c-.643 0-1.087-.07-1.333-.21a1.356 1.356 0 0 1-.55-.62c-.118-.286-.177-.854-.177-1.703V7.092h-.652zm10.943 0c-1.776 0-3.302.667-4.575 2-1.264 1.332-1.895 3.065-1.895 5.197 0 2.2.572 3.948 1.717 5.24 1.145 1.294 2.488 1.94 4.028 1.94 1.293 0 2.473-.48 3.54-1.437 1.065-.967 1.782-2.344 2.147-4.13l-.43-.208c-.513 1.195-1.04 2.02-1.584 2.473-.77.66-1.64.992-2.607.992-1.35 0-2.426-.617-3.226-1.85-.79-1.245-1.185-2.675-1.185-4.294 0-1.59.4-2.87 1.198-3.836.602-.73 1.398-1.096 2.385-1.096.612 0 1.09.15 1.435.445.346.305.543.75.592 1.33.06.584.174.98.342 1.187.296.375.736.562 1.318.562.435 0 .77-.115 1.006-.342.247-.237.37-.543.37-.918 0-.76-.43-1.49-1.288-2.192-.86-.71-1.954-1.066-3.287-1.066zm13.52 0a6.213 6.213 0 0 0-3.2.888c-1.005.583-1.82 1.49-2.442 2.725-.612 1.224-.918 2.457-.918 3.7 0 1.71.51 3.25 1.526 4.622 1.204 1.63 2.827 2.444 4.87 2.444 1.254 0 2.39-.315 3.407-.947 1.026-.63 1.832-1.57 2.414-2.814.582-1.245.873-2.474.873-3.69 0-1.726-.528-3.256-1.584-4.588-1.244-1.56-2.892-2.34-4.945-2.34zm-37.447.71c.79 0 1.436.328 1.94.98.68.888 1.02 2.115 1.02 3.685 0 1.204-.24 2.088-.723 2.65-.484.563-1.102.846-1.852.846-.79 0-1.442-.327-1.955-.98-.67-.857-1.006-2.066-1.006-3.626 0-1.204.247-2.097.74-2.68.494-.582 1.106-.874 1.836-.874zm-38.765.253c1.086 0 1.98.474 2.68 1.422 1.036 1.382 1.554 3.277 1.554 5.685 0 1.925-.31 3.283-.93 4.072-.623.79-1.413 1.184-2.37 1.184-1.284 0-2.32-.715-3.11-2.147-.78-1.43-1.17-3.132-1.17-5.106 0-1.224.163-2.226.488-3.006.326-.78.75-1.323 1.274-1.63.533-.315 1.06-.473 1.584-.473zm23.572 0c1.086 0 1.98.474 2.682 1.422 1.036 1.382 1.554 3.277 1.554 5.685 0 1.925-.31 3.283-.933 4.072-.622.79-1.412 1.184-2.37 1.184-1.283 0-2.32-.715-3.11-2.147-.78-1.43-1.17-3.132-1.17-5.106 0-1.224.164-2.226.49-3.006.325-.78.75-1.323 1.273-1.63.533-.315 1.06-.473 1.584-.473zm52.182 0c1.086 0 1.98.474 2.68 1.422 1.036 1.382 1.554 3.277 1.554 5.685 0 1.925-.312 3.283-.934 4.072-.62.79-1.41 1.184-2.37 1.184-1.282 0-2.318-.715-3.108-2.147-.78-1.43-1.17-3.132-1.17-5.106 0-1.224.163-2.226.488-3.006.326-.78.75-1.323 1.274-1.63.533-.315 1.063-.473 1.586-.473zm-118.428.074c.533 0 1.042.158 1.525.474.493.315.864.75 1.11 1.302.16.356.262.968.31 1.836h-6.278c.11-1.135.485-2.018 1.127-2.65.65-.642 1.385-.963 2.204-.963zM273.3 21.054c1.193.168 2.9.282 5.122.34 1.52.04 2.537.17 3.05.386.504.218.755.584.755 1.097 0 .71-.425 1.376-1.274 1.998-.84.632-2.147.95-3.924.95-1.866 0-3.293-.307-4.28-.92-.573-.354-.857-.77-.857-1.243 0-.365.118-.765.355-1.2.237-.433.587-.904 1.05-1.407zm-90.743 9.994l-3.56 1.46.167.457c.374-.14.674-.21.9-.21a.8.8 0 0 1 .522.17c.14.114.24.326.3.64.07.312.104 1.152.104 2.517v2.203c-.687-.67-1.555-1.004-2.607-1.004-1.696 0-3.084.713-4.162 2.14-1.078 1.416-1.616 2.98-1.616 4.694 0 1.713.487 3.117 1.46 4.213.974 1.087 2.114 1.63 3.418 1.63a4.2 4.2 0 0 0 1.8-.39c.556-.27 1.126-.71 1.708-1.318v1.71h.6l3.55-1.476-.146-.455c-.39.15-.703.222-.937.222a.78.78 0 0 1-.51-.182c-.14-.12-.243-.336-.313-.64-.06-.313-.09-1.17-.09-2.57V31.05h-.587zm110.26 0c-.373 0-.69.13-.95.39-.252.252-.38.562-.38.927s.133.677.394.938c.262.26.573.392.938.392.366 0 .674-.13.926-.392.26-.26.393-.573.393-.938s-.132-.675-.393-.928c-.252-.26-.56-.39-.926-.39zm-79.206.456a8.828 8.828 0 0 0-4.55 1.224c-1.384.81-2.47 1.954-3.26 3.432-.792 1.478-1.19 3.1-1.19 4.865 0 2.192.6 4.096 1.8 5.713 1.61 2.174 3.878 3.26 6.81 3.26 1.625 0 3.03-.365 4.212-1.096 1.182-.73 2.218-1.883 3.105-3.457l-.404-.26c-1.052 1.46-2.018 2.438-2.897 2.934-.878.488-1.89.732-3.04.732-1.32 0-2.5-.312-3.534-.938-1.026-.626-1.795-1.527-2.308-2.7-.514-1.175-.77-2.56-.77-4.16 0-1.94.27-3.562.81-4.867.546-1.304 1.295-2.252 2.243-2.843.947-.6 2.007-.9 3.18-.9 1.4 0 2.603.396 3.603 1.187 1 .792 1.77 2.088 2.31 3.888h.403l-.404-6.012h-.46c-.094.417-.255.744-.48.978a.86.86 0 0 1-.614.246c-.157 0-.418-.093-.783-.285-1.244-.626-2.504-.94-3.782-.94zm57.95.404v.483h.665c.67 0 1.174.19 1.513.574.244.27.366.96.366 2.072v11.425c0 1.008-.093 1.648-.276 1.918-.322.487-.856.73-1.603.73h-.666v.483h7.577v-.483h-.692c-.66 0-1.156-.19-1.486-.574-.244-.27-.366-.962-.366-2.075v-5.14l.404.03h.365c.28 0 .64-.01 1.082-.03l5.987 8.27h4.722v-.482c-.965-.104-1.747-.348-2.347-.73-.6-.383-1.318-1.157-2.153-2.322l-3.652-5.072c1.487-.33 2.583-.897 3.287-1.697.712-.8 1.07-1.742 1.07-2.83 0-1.016-.314-1.89-.94-2.62a4.653 4.653 0 0 0-2.27-1.514c-.887-.278-2.27-.416-4.148-.416h-6.443zm7.08.99c1.14 0 2.054.35 2.74 1.045.696.687 1.044 1.582 1.044 2.686 0 1.13-.43 2.06-1.29 2.792-.853.73-2.123 1.096-3.81 1.096h-.3a6.203 6.203 0 0 0-.43-.012v-7.358c.86-.165 1.542-.248 2.047-.248zm-29.566.823c-.356.878-.636 1.482-.836 1.812a7.766 7.766 0 0 1-1.342 1.63c-.495.453-.982.775-1.46.966v.432h1.89v8.034c0 .86.09 1.5.274 1.918.182.408.465.725.847.95a2.35 2.35 0 0 0 1.174.327c.592 0 1.167-.212 1.724-.638.556-.434.986-1.077 1.29-1.93h-.51c-.147.348-.354.613-.624.796-.27.173-.55.26-.836.26-.348 0-.633-.133-.86-.403-.217-.27-.325-.793-.325-1.566V38.56h2.79v-.914h-2.79v-3.925h-.406zm-57.492 3.56c-1.582 0-2.9.575-3.953 1.723-1.045 1.14-1.566 2.73-1.566 4.773 0 1.886.508 3.39 1.526 4.51 1.026 1.114 2.257 1.67 3.69 1.67 1.323 0 2.424-.486 3.302-1.46.878-.983 1.407-2.07 1.59-3.26l-.404-.26c-.392 1.042-.88 1.78-1.46 2.215-.575.426-1.252.64-2.035.64-1.173 0-2.196-.504-3.066-1.513-.87-1.008-1.3-2.4-1.29-4.174h8.255c0-1.478-.43-2.657-1.29-3.535-.862-.887-1.96-1.33-3.3-1.33zm36.53.014c-.99 0-1.928.26-2.815.78-.887.514-1.605 1.315-2.152 2.402-.54 1.077-.81 2.165-.81 3.26 0 1.504.45 2.86 1.345 4.07 1.06 1.433 2.49 2.15 4.29 2.15 1.105 0 2.105-.277 3-.833.905-.557 1.613-1.383 2.126-2.48.513-1.094.77-2.177.77-3.247 0-1.52-.465-2.87-1.395-4.043-1.095-1.373-2.548-2.06-4.357-2.06zm11.61 0c-1.07 0-1.944.33-2.622.99-.67.66-1.004 1.482-1.004 2.465 0 .756.196 1.383.588 1.88.39.503 1.217 1.068 2.478 1.694 1.26.626 2.098 1.144 2.516 1.553.426.408.64.91.64 1.51 0 .496-.19.923-.574 1.28-.374.348-.86.52-1.46.52-.853 0-1.622-.307-2.31-.924-.686-.618-1.152-1.535-1.396-2.752h-.43v4.263h.43c.113-.226.27-.338.47-.338.183 0 .417.043.704.13.94.26 1.773.39 2.504.39 1.017 0 1.936-.33 2.754-.99.826-.67 1.238-1.547 1.238-2.634 0-1.41-.883-2.544-2.648-3.404L239.696 42c-.826-.4-1.373-.778-1.642-1.135-.28-.35-.418-.766-.418-1.253 0-.39.186-.746.56-1.068.374-.323.866-.484 1.475-.484.8 0 1.456.23 1.97.692.52.46.948 1.33 1.278 2.607h.43v-4.068h-.43c-.104.21-.195.343-.273.404a.52.52 0 0 1-.327.093c-.147 0-.445-.067-.888-.197-.67-.2-1.238-.3-1.707-.3zm18.637 0c-1.383 0-2.456.313-3.22.94-.767.625-1.15 1.312-1.15 2.06 0 .39.1.7.3.926.21.226.474.338.796.338.33 0 .597-.108.797-.326.208-.217.312-.525.312-.925l-.027-.757c0-.383.166-.722.496-1.018.322-.295.757-.443 1.305-.443.72 0 1.267.222 1.64.666.384.443.576 1.26.576 2.45v.472c-2.053.747-3.522 1.38-4.41 1.902-.877.522-1.494 1.08-1.85 1.67-.26.426-.39.93-.39 1.514 0 .92.264 1.665.794 2.23.54.565 1.22.848 2.047.848.53 0 1.03-.11 1.5-.326.313-.148 1.083-.695 2.31-1.643.007.713.14 1.216.39 1.512.253.295.59.443 1.017.443.887 0 1.82-.65 2.793-1.955v-.73c-.522.52-.874.838-1.057.95a.712.712 0 0 1-.365.093.54.54 0 0 1-.354-.13c-.094-.088-.162-.257-.206-.51-.043-.26-.066-.962-.066-2.1v-4.055c0-1.157-.078-1.923-.234-2.297-.244-.574-.622-.994-1.135-1.264-.68-.356-1.55-.535-2.61-.535zm34.968 0l-3.6 1.46.182.47c.348-.13.643-.196.887-.196.226 0 .405.058.535.17.13.106.226.297.287.575.077.383.116 1.22.116 2.516v4.606c0 .74-.06 1.24-.18 1.5-.114.26-.272.448-.472.56-.2.114-.59.17-1.174.17v.47h5.805v-.47c-.565 0-.957-.06-1.174-.183a1.192 1.192 0 0 1-.48-.547c-.106-.252-.158-.752-.158-1.5v-9.6h-.574zm9.64 0c-1.566 0-2.91.586-4.032 1.76-1.113 1.173-1.67 2.7-1.67 4.578 0 1.94.505 3.478 1.513 4.617 1.008 1.14 2.19 1.71 3.546 1.71 1.14 0 2.178-.423 3.117-1.267.94-.852 1.57-2.065 1.893-3.638l-.38-.182c-.45 1.052-.915 1.778-1.394 2.178-.678.582-1.444.873-2.296.873-1.192 0-2.138-.544-2.842-1.63-.696-1.097-1.045-2.356-1.045-3.782 0-1.4.35-2.527 1.056-3.38.53-.643 1.23-.964 2.1-.964.538 0 .96.132 1.265.392.305.27.48.66.522 1.174.052.513.153.86.3 1.043.262.33.648.495 1.16.495.384 0 .68-.1.888-.3.217-.21.326-.48.326-.81 0-.67-.378-1.31-1.135-1.93-.755-.625-1.72-.938-2.893-.938zm11.007 0c-1.383 0-2.458.313-3.223.94-.765.625-1.147 1.312-1.147 2.06 0 .39.1.7.3.926.208.226.474.338.796.338.332 0 .596-.108.796-.326.21-.217.313-.525.313-.925l-.027-.757c0-.383.166-.722.496-1.018.32-.295.754-.443 1.302-.443.722 0 1.27.222 1.645.666.382.443.574 1.26.574 2.45v.472c-2.05.747-3.52 1.38-4.407 1.902-.88.522-1.497 1.08-1.854 1.67-.262.426-.392.93-.392 1.514 0 .92.265 1.665.795 2.23.54.565 1.223.848 2.05.848.53 0 1.03-.11 1.5-.326.312-.148 1.082-.695 2.308-1.643.01.713.14 1.216.39 1.512.254.295.593.443 1.02.443.886 0 1.816-.65 2.79-1.955v-.73c-.522.52-.874.838-1.057.95a.712.712 0 0 1-.365.093.535.535 0 0 1-.35-.13c-.097-.088-.167-.257-.21-.51-.044-.26-.065-.962-.065-2.1v-4.055c0-1.157-.08-1.923-.236-2.297-.244-.574-.622-.994-1.135-1.264-.678-.356-1.547-.535-2.607-.535zm-135.748.795c.408 0 .825.127 1.252.38.433.242.78.607 1.04 1.094a4.14 4.14 0 0 1 .47 1.618v6.156c-.74.79-1.503 1.185-2.295 1.185-.94 0-1.79-.464-2.556-1.394-.767-.938-1.15-2.286-1.15-4.042 0-1.74.396-3.06 1.188-3.965.6-.687 1.283-1.03 2.05-1.03zm49.482.053c.955 0 1.743.417 2.36 1.25.913 1.22 1.37 2.888 1.37 5.01 0 1.695-.273 2.892-.82 3.587-.55.696-1.245 1.043-2.09 1.043-1.13 0-2.04-.63-2.737-1.89-.687-1.26-1.03-2.76-1.03-4.5 0-1.08.143-1.962.43-2.65.287-.686.66-1.163 1.12-1.432.47-.28.935-.418 1.396-.418zm-36.858.064c.47 0 .917.14 1.343.417.435.278.76.66.977 1.148.14.313.232.852.275 1.618h-5.53c.095-1 .426-1.78.99-2.336.575-.566 1.223-.848 1.945-.848zm69.334 4.265v4.55c-1.08.87-1.947 1.305-2.608 1.305-.487 0-.917-.205-1.29-.613-.375-.418-.563-.94-.563-1.565 0-.495.147-.95.443-1.37.296-.416.788-.817 1.475-1.2.382-.217 1.23-.586 2.543-1.107zm55.615 0v4.55c-1.077.87-1.948 1.305-2.61 1.305-.486 0-.916-.205-1.29-.613-.374-.418-.56-.94-.56-1.565 0-.495.148-.95.443-1.37.296-.416.788-.817 1.475-1.2.382-.217 1.23-.586 2.543-1.107z"/>
</svg>
