<svg xmlns="http://www.w3.org/2000/svg" width="320" height="320" viewBox="0 0 320 320"><path d="M160.007 0C98.046 0 47.645 50.401 47.645 112.35c0 21.685 5.288 39.424 18.477 61.588L160.007 320l94.352-146.94c9.35-17.67 17.996-37.259 17.996-60.71C272.355 50.401 221.956 0 160.007 0zm0 23.967c48.738 0 88.384 39.645 88.385 88.383 0 17.178-6.074 32.215-14.663 48.622l-73.722 114.7-73.512-114.339c-10.707-18.02-14.885-31.746-14.885-48.983 0-48.738 39.659-88.383 88.397-88.383zm-.043 37.79c-25.204 0-45.755 20.553-45.755 45.756 0 25.241 20.55 45.795 45.755 45.795 25.241 0 45.793-20.555 45.793-45.795 0-25.203-20.552-45.755-45.793-45.755zm0 19.061c14.742 0 26.732 11.99 26.73 26.695 0 14.745-11.988 26.733-26.73 26.733-14.707 0-26.695-11.988-26.695-26.733 0-14.707 11.988-26.695 26.695-26.695z"/></svg>