<svg xmlns="http://www.w3.org/2000/svg" width="320" height="320" viewBox="0 0 320 320"><path d="M89.067 19.64a9.54 9.54 0 0 0-9.544 9.544V39.91H22.258C9.982 39.911 0 49.885 0 62.151v188.245c0 12.275 9.982 22.258 22.258 22.258h162.701c13.982 16.925 35.099 27.707 58.686 27.707 42.185 0 76.355-34.17 76.355-76.355 0-27.074-14.216-50.878-35.613-64.387V62.15c.001-12.265-9.98-22.239-22.255-22.239h-57.267V29.184a9.54 9.54 0 0 0-9.545-9.545 9.538 9.538 0 0 0-9.543 9.545V39.91H98.612V29.184a9.54 9.54 0 0 0-9.545-9.545zM22.257 59h57.266v10.74a9.538 9.538 0 0 0 9.544 9.542 9.538 9.538 0 0 0 9.545-9.543V59.001h87.165v10.738a9.538 9.538 0 0 0 9.545 9.543 9.538 9.538 0 0 0 9.545-9.543V59.001h57.265c1.743 0 3.17 1.415 3.17 3.15v40.414H19.09V62.15c0-1.77 1.387-3.15 3.168-3.15zm-3.17 62.652H265.3v29.321a76.423 76.423 0 0 0-21.655-3.129c-41.994 0-76.163 34.168-76.162 76.162 0 10.483 2.114 20.468 5.93 29.56H22.257a3.178 3.178 0 0 1-3.17-3.168V121.652zm224.558 45.28c.969 0 1.931.025 2.887.072.726.036 1.444.099 2.162.161.21.019.423.026.632.046l.02.002c.718.07 1.427.167 2.136.263.226.031.455.053.68.087.825.123 1.643.269 2.457.426.075.014.151.024.226.039.007 0 .014.004.022.006a57.104 57.104 0 0 1 10.433 3.129 57.284 57.284 0 0 1 19.088 12.735l.096.1a57.42 57.42 0 0 1 8.264 10.624 56.887 56.887 0 0 1 3.732 7.335c.354.842.69 1.695 1.003 2.557l.007.018c.044.12.08.244.122.365.267.748.525 1.5.761 2.261 0 .003.003.005.004.007.02.066.036.133.056.198.25.823.488 1.651.703 2.49v.001l.013.058a56.596 56.596 0 0 1 1.108 5.453l.004.02c.052.34.084.685.13 1.025.08.599.166 1.195.227 1.8l.002.008c.02.205.028.414.046.62.068.75.133 1.499.17 2.256.05.965.075 1.936.075 2.912 0 8.912-2.023 17.34-5.637 24.852a57.136 57.136 0 0 1-11.114 15.663 57.442 57.442 0 0 1-6.227 5.392 57.134 57.134 0 0 1-9.433 5.722h-.002a56.92 56.92 0 0 1-10.52 3.838 57.604 57.604 0 0 1-14.332 1.798 57.614 57.614 0 0 1-3.355-.105c-.676-.04-1.35-.09-2.02-.154-.205-.019-.412-.034-.617-.055a56.754 56.754 0 0 1-2.434-.311c-.26-.039-.517-.084-.775-.126a56.572 56.572 0 0 1-1.714-.305c-.312-.06-.625-.12-.936-.185a56.592 56.592 0 0 1-2.208-.511c-.3-.076-.595-.163-.893-.244a56.525 56.525 0 0 1-2.569-.76 61.49 61.49 0 0 1-1.167-.397 56.509 56.509 0 0 1-2.01-.742c-.31-.121-.623-.241-.93-.368a56.645 56.645 0 0 1-2.09-.912 56.789 56.789 0 0 1-4.5-2.312c-.148-.084-.294-.17-.44-.255-.49-.286-.978-.575-1.459-.875a57.402 57.402 0 0 1-18.78-19.088 57.31 57.31 0 0 1-1.083-1.884 57.166 57.166 0 0 1-1.173-2.256c-.129-.26-.26-.518-.385-.78a57.084 57.084 0 0 1-.914-2.03c-.119-.277-.232-.557-.346-.837a57.006 57.006 0 0 1-.587-1.491c-.106-.281-.215-.56-.316-.844a56.92 56.92 0 0 1-.718-2.13c-.083-.261-.158-.525-.237-.788a56.88 56.88 0 0 1-.489-1.723c-.066-.248-.133-.495-.196-.744a57.07 57.07 0 0 1-.538-2.339c-.04-.19-.072-.381-.11-.572a57.217 57.217 0 0 1-.362-2.045 57.493 57.493 0 0 1-.416-3.131c-.017-.156-.026-.315-.041-.471a57.951 57.951 0 0 1-.202-2.89 58.385 58.385 0 0 1-.065-2.605c0-.984.025-1.962.074-2.934a56.713 56.713 0 0 1 9.68-28.966 57.395 57.395 0 0 1 13.183-13.829 56.799 56.799 0 0 1 34.137-11.345zm0 12.789c-2.48 0-4.772 2.1-4.772 4.772v39.513c0 2.673 2.291 4.773 4.772 4.773h24.244a4.753 4.753 0 0 0 3.386-1.384h.002a4.73 4.73 0 0 0 1.358-2.895 5.033 5.033 0 0 0 0-.956 4.766 4.766 0 0 0-.78-2.138c-.85-1.277-2.296-2.172-3.966-2.172h-19.471v-34.741c0-2.672-2.1-4.772-4.772-4.772z"/></svg>