<svg xmlns="http://www.w3.org/2000/svg" width="320" height="320" viewBox="0 0 320 320"><path d="M90.863 0a11.55 11.55 0 0 0-11.556 11.557V28.87H59.52c-24.842 0-45.056 20.215-45.056 45.068v200.993C14.465 299.785 34.679 320 59.52 320h200.96c24.842 0 45.056-20.215 45.056-45.068V73.939c0-24.853-20.214-45.068-45.056-45.068h-19.786V11.557A11.55 11.55 0 0 0 229.137 0a11.55 11.55 0 0 0-11.557 11.557V28.87H102.42V11.557A11.55 11.55 0 0 0 90.863 0zM59.521 51.986h19.786v19.797A11.55 11.55 0 0 0 90.863 83.34a11.55 11.55 0 0 0 11.557-11.557V51.986h115.16v19.797a11.55 11.55 0 0 0 11.557 11.557 11.55 11.55 0 0 0 11.556-11.557V51.986h19.786c12.099 0 21.943 9.854 21.943 21.953v43.612H37.578V73.939c0-12.099 9.844-21.953 21.943-21.953zm-21.943 88.68h244.844v134.266c0 12.099-9.844 21.953-21.943 21.953H59.52c-12.099 0-21.943-9.854-21.943-21.953V140.666z"/></svg>