<svg xmlns="http://www.w3.org/2000/svg" width="320" height="320" viewBox="0 0 320 320"><path d="M161.406 46.02C100.209 46.02 43.6 85.36 1.639 156.613a10.673 10.673 0 0 0 0 11.365c41.744 68.19 97.478 106.002 156.926 106.002 61.196 0 117.804-39.341 159.985-110.81 1.968-3.498 1.968-7.651-.218-11.148-41.745-68.41-97.478-106-156.926-106zm-1.311 22.95c50.05 0 90.92 40.869 90.92 90.919 0 50.269-40.87 90.922-90.92 90.922-50.27 0-91.14-40.653-91.14-90.922 0-50.05 40.87-90.919 91.14-90.919zm0 42.837c-26.664 0-48.302 21.42-48.302 48.084-.001 26.663 21.637 48.3 48.302 48.3 26.446 0 48.083-21.638 48.083-48.302 0-2.185-.438-4.37-.657-6.555-3.933 2.403-8.304 4.152-13.33 4.152-13.989 0-25.353-11.366-25.353-25.353 0-6.777 2.622-12.894 6.993-17.485-5.027-1.747-10.273-2.84-15.736-2.84zm104.032 5.026c11.366 11.802 22.076 25.353 32.129 41.09-9.397 15.081-19.45 28.632-30.161 40.434a112.105 112.105 0 0 0 6.776-38.468c0-15.3-3.06-29.943-8.744-43.056zM53.874 121.64c-4.372 11.803-6.776 24.698-6.776 38.248 0 15.299 3.06 29.943 8.743 43.277-11.365-11.804-22.075-25.354-32.128-41.09 9.397-15.298 19.452-28.632 30.16-40.435z"/></svg>