<svg xmlns="http://www.w3.org/2000/svg" width="320" height="320" viewBox="0 0 320 320"><path d="M159.929 0C71.744 0 0 71.771 0 159.999S71.744 320 159.929 320C248.193 320 320 248.227 320 159.999 320 71.77 248.193 0 159.929 0zm0 20.526c76.948 0 139.544 62.57 139.544 139.473 0 76.904-62.596 139.473-139.544 139.473-76.868 0-139.402-62.57-139.402-139.473 0-76.904 62.534-139.473 139.402-139.473zm.886 51.277c-5.452 0-10.265 1.925-14.114 5.734-4.19 3.89-5.752 8.658-5.752 14.11 0 5.454 1.883 10.305 5.752 14.113 3.85 3.89 8.662 5.774 14.114 5.774 5.11 0 9.943-1.884 13.792-5.774 3.85-3.808 5.753-8.659 5.753-14.113 0-5.452-1.904-10.22-5.753-14.11-3.849-3.809-8.34-5.734-13.792-5.734zm-31.133 58.974v6.093c5.11 1.001 8.699 2.285 10.263 4.208 1.603 1.925 2.565 5.453 2.565 10.544v74.769c0 5.733-1.261 9.902-3.848 12.186-1.585 1.606-4.792 2.848-9.283 3.49v6.134h60.922v-.002h.322v-6.132c-4.489-.962-7.698-2.208-9.281-3.85-1.623-1.282-2.587-5.092-2.587-10.584v-96.856h-49.073z"/></svg>