<svg xmlns="http://www.w3.org/2000/svg" width="320" height="320" viewBox="0 0 320 320"><path d="M229.575 0c-20.335.035-40.423 9.315-53.507 26.833l-52.79 70.759c-2.845 3.815-5.165 7.896-7.107 12.127 5.076-1.866 10.349-3.3 15.834-4.102 4.434-.63 8.845-.708 13.23-.601l48.501-65.012c8.77-11.75 22.263-17.97 35.917-17.97a44.534 44.534 0 0 1 26.674 8.845c19.767 14.763 23.856 42.847 9.104 62.624l-48.463 64.948-4.336 5.812c-1.317 1.763-2.852 3.25-4.365 4.76-5.84 5.833-12.961 9.72-20.618 11.638-3.575.895-7.213 1.397-10.901 1.398-9.308.006-18.687-2.723-26.71-8.693-7.882-5.886-13.147-13.92-15.84-22.67-7.128 2.002-13.574 5.701-18.032 11.673l-.667.897c4.544 10.907 11.692 20.537 21.371 27.745 9.663 7.226 20.893 11.398 32.626 12.65 2.352.252 4.694.562 7.079.562 1.902 0 3.827-.253 5.744-.415 1.359-.114 2.709-.097 4.07-.293 7.857-1.148 15.196-3.808 21.974-7.442 4.376-2.344 8.525-5.054 12.279-8.331 3.523-3.079 6.798-6.476 9.659-10.31l52.798-70.759c22.004-29.505 15.903-71.447-13.601-93.441C257.516 4.279 243.488-.024 229.575 0zM144.06 116.087a69.384 69.384 0 0 0-6.455.252c-1.338.114-2.664-.007-4.004.188-7.848 1.144-15.177 3.8-21.946 7.421-4.388 2.347-8.551 5.059-12.313 8.345-3.527 3.08-6.802 6.481-9.666 10.317L36.89 213.368c-10.621 14.246-15.065 31.83-12.493 49.519 2.572 17.69 11.835 33.291 26.081 43.9C62.077 315.46 75.892 320 90.181 320c3.25 0 6.533-.235 9.815-.709 17.69-2.582 33.28-11.837 43.911-26.083l52.799-70.758c2.985-4.003 5.354-8.258 7.317-12.637-8.791 3.294-17.963 5.45-27.33 5.45-.67.001-1.332-.138-2-.156l-48.454 64.933c-14.731 19.776-42.817 23.822-62.594 9.103-19.766-14.763-23.844-42.824-9.092-62.602l48.454-64.948 4.336-5.812c1.315-1.768 2.858-3.293 4.39-4.822 5.678-5.66 12.727-9.571 20.596-11.537 1.476-.369 2.905-.869 4.434-1.094 2.18-.297 4.36-.463 6.519-.468.026 0 .052-.007.076-.007a44.22 44.22 0 0 1 26.578 8.824c7.879 5.887 13.141 13.921 15.836 22.67 7.13-2.002 13.578-5.7 18.036-11.673l.667-.892c-4.451-10.648-11.467-20.37-21.368-27.752-9.663-7.23-20.922-11.33-32.655-12.58a65.26 65.26 0 0 0-6.392-.363z"/></svg>