<svg xmlns="http://www.w3.org/2000/svg" width="320" height="320" viewBox="0 0 320 320"><path d="M263.885 38.33a9 9 0 0 0-1.043.103L9.432 69.41a10.748 10.748 0 0 0-7.16 4.038A10.746 10.746 0 0 0 .08 81.363l23.321 190.71c.346 2.842 2.717 5.306 4.971 7.058 1.194.93 2.829 1.447 4.515 1.775.965.286 1.924.604 2.982.604l17.985.01 255.293.158h.011c5.924 0 10.737-4.802 10.737-10.727L320 103.385a10.81 10.81 0 0 0-3.135-7.604 10.747 10.747 0 0 0-7.592-3.145l-29.003-.02-5.474-44.83a10.705 10.705 0 0 0-4.038-7.161c-1.964-1.523-4.432-2.396-6.873-2.295zm-9.098 22.722l3.855 31.551-204.663-.125h-.01c-5.925 0-10.739 4.803-10.739 10.727l-.095 153.32L22.698 89.417l232.09-28.364zM64.696 113.965l233.82.136-.086 146.092-233.818-.136.083-146.092zm27.18 18.034a8.045 8.045 0 0 0-5.694 2.36 8.041 8.041 0 0 0-2.361 5.683l-.041 62.728c0 4.457 3.597 8.065 8.043 8.065l47.124.03h.01a8.049 8.049 0 0 0 5.695-2.359 8.042 8.042 0 0 0 2.36-5.683l.042-62.728c0-4.457-3.596-8.065-8.043-8.065L91.885 132h-.01zm73.716.054a8.055 8.055 0 0 0-8.053 8.053 8.049 8.049 0 0 0 8.053 8.053l110.838.064a8.055 8.055 0 0 0 8.053-8.053 8.05 8.05 0 0 0-8.053-8.054l-110.838-.063zm-65.674 16.065l31.019.01-.022 46.62-31.018-.01.021-46.62zm65.654 15.3a8.055 8.055 0 0 0-8.053 8.052 8.048 8.048 0 0 0 8.053 8.053l110.838.064a8.057 8.057 0 0 0 8.053-8.054 8.048 8.048 0 0 0-8.053-8.053l-110.838-.063zm-.021 31.352c-4.446 0-8.053 3.607-8.053 8.043a8.05 8.05 0 0 0 8.053 8.064l110.828.073h.01c4.446 0 8.053-3.608 8.053-8.043 0-4.457-3.596-8.065-8.053-8.065l-110.828-.072h-.01zm-73.738 31.165a8.055 8.055 0 0 0-8.053 8.053 8.05 8.05 0 0 0 8.053 8.054l184.554.115a8.055 8.055 0 0 0 8.053-8.052 8.05 8.05 0 0 0-8.053-8.055l-184.554-.115z"/></svg>