<svg xmlns="http://www.w3.org/2000/svg" width="320" height="320" viewBox="0 0 320 320"><path d="M68.32 312.482c-2.412 0-4.815-.752-6.852-2.22a11.676 11.676 0 0 1-4.633-11.406l16.472-96.05-69.79-68.025a11.66 11.66 0 0 1-2.949-11.942 11.645 11.645 0 0 1 9.414-7.934l96.427-14.035 43.118-87.377c3.916-7.969 16.984-7.969 20.9 0l43.142 87.377 96.449 14.035a11.645 11.645 0 0 1 9.414 7.934 11.66 11.66 0 0 1-2.949 11.942l-69.79 68.025 15.914 92.932a11.564 11.564 0 0 1 1.173 5.088c0 6.523-5.611 11.406-11.895 11.657-1.947.022-3.882-.399-5.658-1.343l-86.25-45.373L73.75 311.14a11.645 11.645 0 0 1-5.43 1.342zm91.658-71.543c1.867 0 3.734.444 5.43 1.343l70.77 37.235-13.49-78.817a11.651 11.651 0 0 1 3.347-10.313l57.268-55.81-79.146-11.52a11.638 11.638 0 0 1-8.777-6.375L159.978 44.99 124.6 116.681a11.634 11.634 0 0 1-8.777 6.374L36.7 134.575l57.268 55.811a11.656 11.656 0 0 1 3.347 10.313l-13.512 78.805 70.746-37.223a11.598 11.598 0 0 1 5.43-1.342z"/></svg>