<?xml version="1.0" encoding="UTF-8" standalone="no"?>
<!-- Created with Inkscape (http://www.inkscape.org/) -->

<svg
   xmlns:dc="http://purl.org/dc/elements/1.1/"
   xmlns:cc="http://creativecommons.org/ns#"
   xmlns:rdf="http://www.w3.org/1999/02/22-rdf-syntax-ns#"
   xmlns:svg="http://www.w3.org/2000/svg"
   xmlns="http://www.w3.org/2000/svg"
   xmlns:sodipodi="http://sodipodi.sourceforge.net/DTD/sodipodi-0.dtd"
   xmlns:inkscape="http://www.inkscape.org/namespaces/inkscape"
   id="svg4155"
   version="1.1"
   inkscape:version="0.91 r13725"
   xml:space="preserve"
   width="800"
   height="600"
   viewBox="0 0 799.99999 600"
   sodipodi:docname="404.svg"
   inkscape:export-filename="/Users/rs/Desktop/404.png"
   inkscape:export-xdpi="90"
   inkscape:export-ydpi="90"><metadata
     id="metadata4161"><rdf:RDF><cc:Work
         rdf:about=""><dc:format>image/svg+xml</dc:format><dc:type
           rdf:resource="http://purl.org/dc/dcmitype/StillImage" /><dc:title></dc:title></cc:Work></rdf:RDF></metadata><defs
     id="defs4159"><clipPath
       clipPathUnits="userSpaceOnUse"
       id="clipPath4171"><path
         d="m 0,0 488.082,0 0,470 L 0,470 0,0 Z"
         id="path4173"
         inkscape:connector-curvature="0" /></clipPath><clipPath
       clipPathUnits="userSpaceOnUse"
       id="clipPath4235"><path
         d="m 0,0 488.082,0 0,470 L 0,470 0,0 Z"
         id="path4237"
         inkscape:connector-curvature="0" /></clipPath><clipPath
       clipPathUnits="userSpaceOnUse"
       id="clipPath4297"><path
         d="m 0,0 488.082,0 0,470 L 0,470 0,0 Z"
         id="path4299"
         inkscape:connector-curvature="0" /></clipPath><clipPath
       clipPathUnits="userSpaceOnUse"
       id="clipPath4367"><path
         d="m 0,0 488.082,0 0,470 L 0,470 0,0 Z"
         id="path4369"
         inkscape:connector-curvature="0" /></clipPath><clipPath
       clipPathUnits="userSpaceOnUse"
       id="clipPath4385"><path
         d="m 0,0 488.082,0 0,470 L 0,470 0,0 Z"
         id="path4387"
         inkscape:connector-curvature="0" /></clipPath><clipPath
       clipPathUnits="userSpaceOnUse"
       id="clipPath4403"><path
         d="m 0,0 488.082,0 0,470 L 0,470 0,0 Z"
         id="path4405"
         inkscape:connector-curvature="0" /></clipPath><clipPath
       clipPathUnits="userSpaceOnUse"
       id="clipPath4421"><path
         d="m 0,0 488.082,0 0,470 L 0,470 0,0 Z"
         id="path4423"
         inkscape:connector-curvature="0" /></clipPath></defs><sodipodi:namedview
     pagecolor="#ffffff"
     bordercolor="#666666"
     borderopacity="1"
     objecttolerance="10"
     gridtolerance="10"
     guidetolerance="10"
     inkscape:pageopacity="0"
     inkscape:pageshadow="2"
     inkscape:window-width="2560"
     inkscape:window-height="1418"
     id="namedview4157"
     showgrid="false"
     fit-margin-top="0"
     fit-margin-left="0"
     fit-margin-right="0"
     fit-margin-bottom="0"
     inkscape:zoom="1.106383"
     inkscape:cx="631.79165"
     inkscape:cy="73.211494"
     inkscape:window-x="0"
     inkscape:window-y="0"
     inkscape:window-maximized="1"
     inkscape:current-layer="g4163" /><g
     id="g4163"
     inkscape:groupmode="layer"
     inkscape:label="EspecificacionesPaginasInternas"
     transform="matrix(1.25,0,0,-1.25,338.94234,856.69235)"><g
       id="g4615"
       transform="matrix(2.2878775,0,0,2.2878775,-388.22589,-296.97014)"><path
         inkscape:connector-curvature="0"
         id="path4175"
         style="fill:#4e4e4e;fill-opacity:1;fill-rule:nonzero;stroke:none"
         d="m 72.342,237.2591 c -1.362,0 -2.466,1.103 -2.466,2.465 l 0,60.6 c 0,1.362 1.104,2.487 2.466,2.487 l 47.549,0 c 1.362,0 2.466,-1.104 2.466,-2.467 0,-1.362 -1.104,-2.465 -2.466,-2.465 l -45.083,0 0,-58.155 c 0,-1.362 -1.104,-2.465 -2.466,-2.465" /><path
         inkscape:connector-curvature="0"
         id="path4177"
         style="fill:#4e4e4e;fill-opacity:1;fill-rule:nonzero;stroke:none"
         d="m 102.3981,304.1689 -23.537,0 c -0.553,0 -1.067,0.307 -1.321,0.799 l -10.224,19.76 c -0.376,0.726 -0.092,1.618 0.634,1.994 0.725,0.375 1.617,0.092 1.993,-0.634 l 9.811,-18.961 22.644,0 c 0.817,0 1.48,-0.662 1.48,-1.479 0,-0.816 -0.663,-1.479 -1.48,-1.479" /><path
         inkscape:connector-curvature="0"
         id="path4179"
         style="fill:#4e4e4e;fill-opacity:1;fill-rule:nonzero;stroke:none"
         d="m 154.6211,240.7444 c 0,-1.701 -1.38,-3.081 -3.082,-3.081 -1.703,0 -3.083,1.38 -3.083,3.081 0,1.703 1.38,3.084 3.083,3.084 1.702,0 3.082,-1.381 3.082,-3.084" /><path
         inkscape:connector-curvature="0"
         id="path4181"
         style="fill:#4e4e4e;fill-opacity:1;fill-rule:nonzero;stroke:none"
         d="m 186.7892,271.7675 c 4.385,4.76 5.187,12.649 5.187,26.47 l 0,28.155 c 0,2.179 -1.767,3.945 -3.945,3.945 -2.179,0 -3.945,-1.766 -3.945,-3.945 l 0,-28.155 c 0,-10.964 -0.519,-18.321 -3.1,-21.124 -1.243,-1.348 -2.317,-2.208 -5.612,-2.544 -2.282,-0.233 -5.629,-0.124 -10.836,-0.124 l -12.205,0 c -2.179,0 -3.946,-1.766 -3.946,-3.945 0,-2.178 1.767,-3.945 3.946,-3.945 l 12.205,0 c 1.197,0 2.337,0.006 3.439,0.02 l 0,-11.969 -15.8,-6.924 c -0.748,-0.329 -1.089,-1.202 -0.761,-1.951 0.244,-0.555 0.786,-0.885 1.356,-0.885 0.198,0 0.4,0.04 0.594,0.124 l 14.611,6.404 0,-5.203 c 0,-0.816 0.663,-1.478 1.48,-1.478 0.817,0 1.48,0.662 1.48,1.478 l 0,5.081 14.332,-6.282 c 0.193,-0.084 0.394,-0.124 0.592,-0.124 0.571,0 1.114,0.33 1.357,0.885 0.327,0.749 -0.014,1.622 -0.761,1.951 l -15.52,6.801 0,12.164 c 7.28,0.264 12.327,1.293 15.852,5.12" /><path
         inkscape:connector-curvature="0"
         id="path4183"
         style="fill:#4e4e4e;fill-opacity:1;fill-rule:nonzero;stroke:none"
         d="m 184.013,240.7444 c 0,-1.701 1.38,-3.081 3.082,-3.081 1.703,0 3.083,1.38 3.083,3.081 0,1.703 -1.38,3.084 -3.083,3.084 -1.702,0 -3.082,-1.381 -3.082,-3.084" /><path
         inkscape:connector-curvature="0"
         id="path4185"
         style="fill:#4e4e4e;fill-opacity:1;fill-rule:nonzero;stroke:none"
         d="m 172.5371,240.7444 c 0,-1.701 -1.38,-3.081 -3.083,-3.081 -1.703,0 -3.082,1.38 -3.082,3.081 0,1.703 1.379,3.084 3.082,3.084 1.703,0 3.083,-1.381 3.083,-3.084" /><path
         inkscape:connector-curvature="0"
         id="path4187"
         style="fill:#4e4e4e;fill-opacity:1;fill-rule:nonzero;stroke:none"
         d="m 179.7241,285.1021 c -8.502,22.427 -25.369,32.927 -50.16,31.248 -3.114,-0.212 -5.552,-2.615 -5.923,-5.6 -0.036,-0.203 -0.062,-0.409 -0.062,-0.622 l 0.389,-39.854 c 0,-1.908 1.156,-3.453 3.062,-3.453 1.907,0 2.91,1.545 2.91,3.453 l 0.641,33.292 c 10.454,0.703 18.62,-1.094 24.939,-5.66 3.686,-2.663 6.733,-6.293 9.252,-10.895 l -23.973,-0.235 c -2.696,-0.027 -4.908,-2.018 -5.303,-4.599 -0.012,-0.075 -0.024,-0.149 -0.033,-0.228 -0.023,-0.213 -0.039,-0.429 -0.036,-0.65 0,-0.055 0.008,-0.106 0.01,-0.158 0.001,-0.029 -0.006,-0.056 -0.004,-0.084 l 0.02,-0.194 c 0.006,-0.064 0.011,-0.127 0.019,-0.191 l 3.907,-39.03 c 0.175,-2.603 1.663,-4.599 4.235,-4.599 0.432,-0.004 0.336,0.011 0.336,0.011 2.718,0.182 3.766,2.369 3.584,5.087 l -1.932,33.831 c 7.717,0.075 22.848,0.223 29,0.285 0.11,0 0.218,0.012 0.326,0.019 0.102,0 0.216,0.004 0.363,0.022 4.603,0.533 5.688,5.494 4.433,8.804" /><path
         inkscape:connector-curvature="0"
         id="path4189"
         style="fill:#4e4e4e;fill-opacity:1;fill-rule:nonzero;stroke:none"
         d="m 122.9333,313.2425 c 0,-4.902 -3.974,-8.877 -8.878,-8.877 -4.902,0 -8.876,3.975 -8.876,8.877 0,4.902 3.974,8.876 8.876,8.876 4.904,0 8.878,-3.974 8.878,-8.876" /><path
         inkscape:connector-curvature="0"
         id="path4191"
         style="fill:#356ea7;fill-opacity:1;fill-rule:nonzero;stroke:none"
         d="m 122.5315,411.782 c -21.557,1.492 -40.241,-14.775 -41.734,-36.331 -0.779,-11.265 3.297,-21.741 10.44,-29.394 l -1.723,-11.291 10.653,4.158 c 5.022,-2.925 10.773,-4.776 16.961,-5.204 21.557,-1.492 40.24,14.773 41.732,36.33 1.493,21.555 -14.773,40.241 -36.329,41.732" /><path
         inkscape:connector-curvature="0"
         id="path4193"
         style="fill:#ffffff;fill-opacity:1;fill-rule:nonzero;stroke:none"
         d="m 108.259,372.8766 -4.999,-4.998 c -1.538,-1.539 -2.362,-3.516 -2.362,-5.658 0,-2.143 0.879,-4.175 2.362,-5.659 3.077,-3.131 8.13,-3.131 11.262,0 l 8.239,8.351 c 1.979,1.977 2.803,4.834 2.087,7.69 -0.164,0.768 -0.494,1.428 -0.878,2.087 -0.604,0.989 -1.428,1.868 -2.363,2.472 -0.439,0.331 -1.097,0.22 -1.427,-0.219 0,0 -0.055,0 -0.055,-0.055 -0.439,-0.495 -0.331,-1.209 0.219,-1.593 0.66,-0.44 1.21,-1.044 1.649,-1.758 0.329,-0.494 0.549,-1.099 0.714,-1.703 0.494,-2.087 -0.109,-4.176 -1.594,-5.658 l -7.8,-7.802 c -1.099,-1.151 -2.636,-1.757 -4.229,-1.757 -1.593,0 -3.076,0.606 -4.231,1.757 -1.428,1.43 -2.031,3.408 -1.647,5.439 0.219,1.209 0.878,2.307 1.757,3.186 l 4.504,4.505 c 0.22,0.165 0.331,0.44 0.275,0.77 -0.055,0.769 -0.989,1.097 -1.483,0.603" /><path
         inkscape:connector-curvature="0"
         id="path4195"
         style="fill:#ffffff;fill-opacity:1;fill-rule:nonzero;stroke:none"
         d="m 108.8343,372.6182 c -0.09,0 -0.167,-0.031 -0.226,-0.09 l -5,-4.998 c -1.45,-1.452 -2.217,-3.288 -2.217,-5.31 0,-1.965 0.808,-3.901 2.217,-5.31 1.398,-1.422 3.266,-2.204 5.263,-2.204 1.997,0 3.88,0.784 5.302,2.204 l 8.237,8.349 c 1.888,1.886 2.621,4.586 1.96,7.224 -0.162,0.755 -0.492,1.387 -0.826,1.957 -0.571,0.936 -1.356,1.759 -2.205,2.308 -0.13,0.096 -0.243,0.112 -0.321,0.112 -0.175,0 -0.346,-0.082 -0.444,-0.214 l -0.159,-0.197 c -0.056,-0.099 -0.078,-0.207 -0.065,-0.317 0.02,-0.17 0.119,-0.322 0.277,-0.433 0.69,-0.461 1.292,-1.103 1.785,-1.905 0.305,-0.456 0.559,-1.059 0.77,-1.831 0.532,-2.243 -0.114,-4.532 -1.72,-6.136 l -7.8,-7.801 c -1.15,-1.206 -2.821,-1.902 -4.579,-1.902 -1.75,0 -3.333,0.658 -4.579,1.902 -1.547,1.548 -2.197,3.691 -1.782,5.879 0.223,1.235 0.878,2.428 1.892,3.443 l 4.504,4.505 c 0.132,0.105 0.16,0.204 0.138,0.339 -0.026,0.322 -0.272,0.426 -0.422,0.426 m 0.037,-18.897 c -2.264,0 -4.381,0.886 -5.963,2.495 -1.59,1.59 -2.503,3.78 -2.503,6.004 0,2.289 0.867,4.368 2.506,6.007 l 4.999,4.998 c 0.244,0.246 0.572,0.379 0.924,0.379 0.745,0 1.347,-0.557 1.401,-1.296 0.076,-0.453 -0.098,-0.918 -0.473,-1.198 l -4.45,-4.46 c -0.872,-0.872 -1.433,-1.884 -1.62,-2.925 -0.355,-1.867 0.196,-3.688 1.509,-5.002 1.057,-1.056 2.399,-1.613 3.882,-1.613 1.49,0 2.901,0.584 3.872,1.604 l 7.809,7.81 c 1.384,1.382 1.917,3.277 1.463,5.196 -0.178,0.652 -0.39,1.161 -0.645,1.542 -0.428,0.696 -0.934,1.235 -1.511,1.622 -0.396,0.276 -0.648,0.687 -0.701,1.132 -0.043,0.37 0.049,0.733 0.262,1.04 l 0,0.324 0.306,0.031 c 0.51,0.496 1.393,0.574 1.965,0.146 0.943,-0.61 1.837,-1.544 2.488,-2.61 0.362,-0.621 0.751,-1.365 0.94,-2.241 0.74,-2.961 -0.087,-6.011 -2.221,-8.142 l -8.238,-8.348 c -1.61,-1.611 -3.739,-2.495 -6.001,-2.495" /><path
         inkscape:connector-curvature="0"
         id="path4197"
         style="fill:#ffffff;fill-opacity:1;fill-rule:nonzero;stroke:none"
         d="m 116.0059,378.9754 c -0.549,0.384 -1.265,0.273 -1.594,-0.275 -0.824,-1.264 -1.264,-2.746 -1.264,-4.285 0,-2.142 0.879,-4.175 2.363,-5.658 0.383,-0.385 0.768,-0.715 1.208,-0.988 0.439,-0.276 1.099,-0.165 1.429,0.22 0,0.053 0.055,0.053 0.055,0.109 0.384,0.494 0.329,1.209 -0.22,1.592 -0.604,0.44 -1.099,0.989 -1.539,1.594 -0.383,0.55 -0.658,1.153 -0.824,1.812 -0.385,1.593 -0.163,3.186 0.605,4.505 0.275,0.495 0.165,1.044 -0.219,1.374" /><path
         inkscape:connector-curvature="0"
         id="path4199"
         style="fill:#ffffff;fill-opacity:1;fill-rule:nonzero;stroke:none"
         d="m 115.3059,378.709 c -0.116,0 -0.334,-0.034 -0.471,-0.262 -0.784,-1.203 -1.193,-2.592 -1.193,-4.031 0,-1.966 0.808,-3.901 2.217,-5.31 0.406,-0.406 0.751,-0.688 1.12,-0.918 0.083,-0.052 0.187,-0.08 0.302,-0.08 0.151,0 0.302,0.049 0.411,0.127 l 0.122,0.166 c 0.112,0.146 0.162,0.326 0.137,0.494 -0.017,0.11 -0.074,0.269 -0.251,0.393 -0.593,0.43 -1.131,0.988 -1.655,1.707 -0.422,0.603 -0.724,1.267 -0.903,1.982 -0.413,1.709 -0.179,3.438 0.657,4.873 0.147,0.265 0.105,0.564 -0.114,0.751 -0.092,0.061 -0.234,0.108 -0.379,0.108 m 1.975,-11.586 0,0 c -0.301,0 -0.586,0.078 -0.824,0.227 -0.428,0.268 -0.84,0.605 -1.296,1.059 -1.593,1.592 -2.505,3.782 -2.505,6.007 0,1.632 0.464,3.207 1.344,4.554 0.438,0.732 1.525,0.944 2.289,0.408 0.608,-0.519 0.744,-1.335 0.367,-2.016 -0.711,-1.222 -0.908,-2.693 -0.556,-4.15 0.149,-0.593 0.401,-1.148 0.748,-1.644 0.457,-0.629 0.925,-1.114 1.425,-1.478 0.356,-0.248 0.589,-0.622 0.653,-1.049 0.057,-0.375 -0.028,-0.766 -0.23,-1.095 l 0,-0.053 -0.174,-0.226 c -0.293,-0.342 -0.756,-0.544 -1.241,-0.544" /><path
         inkscape:connector-curvature="0"
         id="path4201"
         style="fill:#ffffff;fill-opacity:1;fill-rule:nonzero;stroke:none"
         d="m 137.1546,380.7875 c 0.439,-0.935 0.714,-1.923 0.714,-2.912 0,-2.197 -1.208,-4.229 -3.132,-5.273 l -5.602,-3.022 c -0.33,-0.164 -0.55,-0.494 -0.606,-0.878 l 0,-0.11 c -0.165,-0.935 0.825,-1.594 1.594,-1.154 l 5.988,3.186 c 3.351,1.869 4.175,4.67 4.175,7.581 0,1.319 -0.384,2.638 -0.988,3.791 -0.165,0.219 -0.551,0.934 -0.715,1.153 -1.867,2.857 -5.274,3.736 -10.163,2.692 -0.604,-0.111 -0.989,-0.77 -0.823,-1.373 l 0.055,-0.165 c 0.109,-0.55 0.712,-0.879 1.263,-0.768 5.109,1.042 6.977,-0.66 8.24,-2.748" /><path
         inkscape:connector-curvature="0"
         id="path4203"
         style="fill:#ffffff;fill-opacity:1;fill-rule:nonzero;stroke:none"
         d="m 131.7121,384.3445 c 3.407,0 4.876,-1.669 5.863,-3.302 0.53,-1.118 0.786,-2.167 0.786,-3.167 0,-2.387 -1.298,-4.573 -3.389,-5.707 l -5.604,-3.022 c -0.191,-0.096 -0.318,-0.286 -0.351,-0.516 l 0.006,-0.038 c -0.05,-0.321 0.037,-0.484 0.117,-0.58 0.181,-0.215 0.495,-0.286 0.737,-0.145 l 6.002,3.192 c 2.703,1.509 3.913,3.713 3.913,7.146 0,1.166 -0.322,2.396 -0.932,3.561 -0.048,0.053 -0.198,0.305 -0.346,0.559 -0.127,0.214 -0.251,0.428 -0.326,0.529 -1.774,2.709 -4.955,3.509 -9.665,2.503 -0.208,-0.036 -0.321,-0.175 -0.371,-0.256 -0.097,-0.153 -0.126,-0.336 -0.08,-0.503 l 0.047,-0.139 c 0.075,-0.356 0.422,-0.495 0.698,-0.441 1.058,0.216 2.033,0.326 2.895,0.326 m -2.109,-17.539 c -0.462,0 -0.918,0.215 -1.219,0.573 -0.304,0.362 -0.424,0.824 -0.341,1.3 l -0.007,0.024 c 0.085,0.619 0.411,1.087 0.878,1.319 l 5.59,3.016 c 1.771,0.959 2.871,2.813 2.871,4.838 0,0.853 -0.224,1.762 -0.667,2.701 -0.864,1.423 -2.087,2.781 -4.996,2.781 -0.797,0 -1.706,-0.103 -2.699,-0.306 -0.856,-0.171 -1.688,0.372 -1.846,1.155 l -0.039,0.106 c -0.127,0.459 -0.055,0.929 0.19,1.316 0.231,0.368 0.601,0.623 1.013,0.698 5.057,1.078 8.695,0.104 10.664,-2.907 0.072,-0.094 0.221,-0.343 0.368,-0.595 0.127,-0.216 0.252,-0.432 0.329,-0.535 0.725,-1.37 1.087,-2.759 1.087,-4.084 0,-3.782 -1.408,-6.327 -4.428,-8.012 l -5.997,-3.19 c -0.221,-0.127 -0.485,-0.198 -0.751,-0.198" /><path
         inkscape:connector-curvature="0"
         id="path4205"
         style="fill:#ffffff;fill-opacity:1;fill-rule:nonzero;stroke:none"
         d="m 124.1353,386.7747 c 0.604,-0.055 1.097,0.385 1.097,0.989 l 0.111,2.692 c 0.055,0.606 -0.384,1.044 -0.989,1.1 -0.604,0.054 -1.098,-0.385 -1.098,-0.988 l -0.109,-2.693 c -0.056,-0.606 0.384,-1.044 0.988,-1.1" /><path
         inkscape:connector-curvature="0"
         id="path4207"
         style="fill:#ffffff;fill-opacity:1;fill-rule:nonzero;stroke:none"
         d="m 124.3038,391.0636 c -0.345,0 -0.554,-0.209 -0.554,-0.496 l -0.11,-2.713 c -0.036,-0.4 0.269,-0.563 0.541,-0.588 l 0.056,-0.004 c 0.141,0 0.27,0.05 0.361,0.142 0.093,0.092 0.142,0.216 0.142,0.359 l 0.111,2.711 c 0.036,0.402 -0.269,0.564 -0.54,0.589 l -0.007,0 z m -0.067,-4.786 -0.001,0 c -0.047,0 -0.096,0.002 -0.145,0.006 -0.897,0.082 -1.513,0.786 -1.436,1.636 l 0.109,2.667 c 10e-4,0.858 0.735,1.542 1.635,1.459 0.42,-0.038 0.795,-0.216 1.06,-0.498 0.281,-0.304 0.415,-0.708 0.377,-1.136 l -0.11,-2.667 c 0,-0.388 -0.155,-0.764 -0.435,-1.042 -0.278,-0.274 -0.652,-0.425 -1.054,-0.425" /><path
         inkscape:connector-curvature="0"
         id="path4209"
         style="fill:#ffffff;fill-opacity:1;fill-rule:nonzero;stroke:none"
         d="m 116.5545,393.3674 c -0.549,-0.22 -0.825,-0.824 -0.604,-1.374 l 2.252,-5.548 c 0.219,-0.548 0.824,-0.823 1.373,-0.604 0.55,0.221 0.824,0.824 0.604,1.374 l -2.251,5.546 c -0.22,0.551 -0.825,0.771 -1.374,0.606" /><path
         inkscape:connector-curvature="0"
         id="path4211"
         style="fill:#ffffff;fill-opacity:1;fill-rule:nonzero;stroke:none"
         d="m 116.9165,392.928 c -0.074,0 -0.149,-0.011 -0.22,-0.032 -0.106,-0.044 -0.22,-0.154 -0.282,-0.292 -0.06,-0.136 -0.063,-0.288 -0.007,-0.427 l 2.252,-5.546 c 0.117,-0.296 0.445,-0.449 0.733,-0.332 0.3,0.12 0.445,0.443 0.33,0.734 l -2.251,5.543 c -0.088,0.221 -0.296,0.352 -0.555,0.352 m 2.271,-7.656 c -0.637,0 -1.203,0.389 -1.444,0.992 l -2.251,5.544 c -0.156,0.392 -0.149,0.816 0.021,1.196 0.166,0.375 0.471,0.666 0.858,0.821 0.205,0.065 0.375,0.09 0.545,0.09 0.668,0 1.232,-0.372 1.469,-0.97 l 2.251,-5.543 c 0.323,-0.807 -0.063,-1.692 -0.878,-2.018 -0.184,-0.075 -0.378,-0.112 -0.571,-0.112" /><path
         inkscape:connector-curvature="0"
         id="path4213"
         style="fill:#ffffff;fill-opacity:1;fill-rule:nonzero;stroke:none"
         d="m 113.533,387.8184 c -0.439,0.385 -1.099,0.385 -1.484,-0.055 -0.384,-0.439 -0.384,-1.098 0.055,-1.482 l 2.583,-2.473 c 0.439,-0.384 1.099,-0.384 1.482,0.056 0.385,0.439 0.385,1.098 -0.054,1.482 l -2.582,2.472 z" /><path
         inkscape:connector-curvature="0"
         id="path4215"
         style="fill:#ffffff;fill-opacity:1;fill-rule:nonzero;stroke:none"
         d="m 112.7971,387.6067 c -0.104,0 -0.254,-0.028 -0.377,-0.166 -0.106,-0.123 -0.163,-0.274 -0.158,-0.426 10e-4,-0.101 0.033,-0.245 0.167,-0.361 l 2.599,-2.489 c 0.172,-0.151 0.477,-0.312 0.769,0.023 0.113,0.128 0.171,0.291 0.16,0.448 -0.006,0.093 -0.04,0.229 -0.166,0.341 l -2.599,2.487 c -0.101,0.087 -0.248,0.143 -0.395,0.143 m 2.624,-4.572 c -0.385,0 -0.761,0.142 -1.059,0.403 l -2.599,2.488 c -0.299,0.26 -0.478,0.643 -0.488,1.064 -0.011,0.398 0.133,0.79 0.402,1.1 0.54,0.612 1.547,0.655 2.18,0.1 l 2.599,-2.486 c 0.281,-0.246 0.459,-0.608 0.485,-1.003 0.028,-0.415 -0.119,-0.839 -0.401,-1.162 -0.283,-0.326 -0.682,-0.504 -1.119,-0.504" /><path
         inkscape:connector-curvature="0"
         id="path4239"
         style="fill:#4e4e4e;fill-opacity:1;fill-rule:nonzero;stroke:none"
         d="m 226.628,276.4833 c -0.406,0.192 -0.964,0.289 -1.672,0.289 l -3.661,0 0,-4.739 3.661,0 c 0.825,0 1.495,0.177 2.01,0.53 0.514,0.354 0.772,0.978 0.772,1.872 0,1.005 -0.37,1.687 -1.11,2.048 m -7.186,1.881 6.12,0 c 1.21,0 2.187,-0.344 2.931,-1.03 0.744,-0.685 1.116,-1.649 1.116,-2.89 0,-1.068 -0.332,-1.997 -0.995,-2.789 -0.665,-0.791 -1.68,-1.186 -3.048,-1.186 l -4.271,0 0,-5.782 -1.853,0 0,13.677 z" /><path
         inkscape:connector-curvature="0"
         id="path4241"
         style="fill:#4e4e4e;fill-opacity:1;fill-rule:nonzero;stroke:none"
         d="m 237.8111,278.6712 -2.486,-2.691 -1.285,0 1.704,2.691 2.067,0 z m -4.236,-12.476 c 0.354,-0.28 0.773,-0.418 1.257,-0.418 0.59,0 1.16,0.136 1.713,0.408 0.931,0.452 1.396,1.193 1.396,2.222 l 0,1.347 c -0.204,-0.13 -0.468,-0.239 -0.789,-0.326 -0.323,-0.087 -0.638,-0.15 -0.948,-0.186 l -1.013,-0.131 c -0.607,-0.08 -1.063,-0.207 -1.37,-0.381 -0.518,-0.291 -0.777,-0.755 -0.777,-1.394 0,-0.482 0.177,-0.863 0.531,-1.141 m 3.528,4.526 c 0.386,0.05 0.643,0.211 0.773,0.483 0.075,0.15 0.112,0.365 0.112,0.645 0,0.574 -0.203,0.99 -0.609,1.249 -0.405,0.258 -0.987,0.387 -1.741,0.387 -0.874,0 -1.493,-0.237 -1.859,-0.711 -0.205,-0.262 -0.338,-0.652 -0.4,-1.169 l -1.564,0 c 0.032,1.232 0.429,2.089 1.195,2.572 0.766,0.482 1.654,0.723 2.665,0.723 1.171,0 2.122,-0.223 2.855,-0.67 0.725,-0.447 1.087,-1.143 1.087,-2.085 l 0,-5.746 c 0,-0.173 0.036,-0.313 0.107,-0.419 0.072,-0.104 0.222,-0.157 0.452,-0.157 0.074,0 0.158,0.004 0.251,0.014 0.093,0.009 0.192,0.023 0.298,0.042 l 0,-1.238 c -0.261,-0.075 -0.46,-0.121 -0.596,-0.14 -0.136,-0.019 -0.322,-0.028 -0.558,-0.028 -0.578,0 -0.997,0.205 -1.257,0.615 -0.137,0.216 -0.233,0.523 -0.289,0.92 -0.341,-0.446 -0.832,-0.834 -1.471,-1.163 -0.639,-0.329 -1.344,-0.493 -2.113,-0.493 -0.925,0 -1.681,0.28 -2.267,0.841 -0.587,0.561 -0.88,1.263 -0.88,2.106 0,0.924 0.289,1.64 0.866,2.148 0.577,0.509 1.335,0.822 2.271,0.94 l 2.672,0.334 z" /><path
         inkscape:connector-curvature="0"
         id="path4243"
         style="fill:#4e4e4e;fill-opacity:1;fill-rule:nonzero;stroke:none"
         d="m 248.1123,272.4614 c -0.507,0.596 -1.152,0.894 -1.936,0.894 -1.174,0 -1.976,-0.553 -2.408,-1.657 -0.229,-0.59 -0.343,-1.363 -0.343,-2.319 0,-1.124 0.227,-1.978 0.68,-2.565 0.455,-0.587 1.064,-0.879 1.83,-0.879 1.198,0 2.041,0.542 2.528,1.629 0.272,0.614 0.408,1.331 0.408,2.151 0,1.234 -0.253,2.15 -0.759,2.746 m -0.206,1.797 c 0.316,-0.218 0.638,-0.534 0.965,-0.95 l 0,1.257 1.546,0 0,-9.068 c 0,-1.266 -0.186,-2.266 -0.557,-2.998 -0.693,-1.353 -2.001,-2.029 -3.925,-2.029 -1.071,0 -1.97,0.24 -2.7,0.721 -0.73,0.481 -1.138,1.234 -1.225,2.258 l 1.703,0 c 0.081,-0.447 0.241,-0.792 0.482,-1.034 0.377,-0.372 0.969,-0.558 1.777,-0.558 1.278,0 2.115,0.453 2.51,1.359 0.234,0.534 0.343,1.486 0.324,2.858 -0.333,-0.509 -0.735,-0.888 -1.205,-1.136 -0.47,-0.248 -1.092,-0.372 -1.865,-0.372 -1.076,0 -2.017,0.383 -2.823,1.149 -0.807,0.767 -1.211,2.035 -1.211,3.804 0,1.669 0.407,2.972 1.22,3.91 0.813,0.937 1.794,1.406 2.945,1.406 0.778,0 1.459,-0.193 2.039,-0.577" /><path
         inkscape:connector-curvature="0"
         id="path4245"
         style="fill:#4e4e4e;fill-opacity:1;fill-rule:nonzero;stroke:none"
         d="m 252.968,274.612 1.704,0 0,-9.925 -1.704,0 0,9.925 z m 0,3.752 1.704,0 0,-1.899 -1.704,0 0,1.899 z" /><path
         inkscape:connector-curvature="0"
         id="path4247"
         style="fill:#4e4e4e;fill-opacity:1;fill-rule:nonzero;stroke:none"
         d="m 257.204,274.6586 1.592,0 0,-1.415 c 0.471,0.583 0.972,1.002 1.499,1.257 0.527,0.254 1.114,0.381 1.76,0.381 1.415,0 2.37,-0.493 2.867,-1.48 0.273,-0.54 0.41,-1.313 0.41,-2.318 l 0,-6.396 -1.704,0 0,6.284 c 0,0.608 -0.09,1.099 -0.27,1.471 -0.298,0.621 -0.838,0.931 -1.62,0.931 -0.397,0 -0.723,-0.04 -0.978,-0.121 -0.459,-0.137 -0.862,-0.409 -1.21,-0.819 -0.279,-0.329 -0.46,-0.67 -0.545,-1.02 -0.083,-0.35 -0.125,-0.851 -0.125,-1.503 l 0,-5.223 -1.676,0 0,9.971 z" /><path
         inkscape:connector-curvature="0"
         id="path4249"
         style="fill:#4e4e4e;fill-opacity:1;fill-rule:nonzero;stroke:none"
         d="m 269.6236,266.1949 c 0.354,-0.279 0.773,-0.418 1.257,-0.418 0.59,0 1.16,0.136 1.713,0.409 0.931,0.452 1.396,1.192 1.396,2.221 l 0,1.348 c -0.204,-0.13 -0.468,-0.24 -0.789,-0.327 -0.323,-0.087 -0.638,-0.15 -0.948,-0.186 l -1.012,-0.13 c -0.608,-0.081 -1.064,-0.208 -1.371,-0.381 -0.518,-0.291 -0.777,-0.756 -0.777,-1.394 0,-0.483 0.177,-0.864 0.531,-1.142 m 3.529,4.526 c 0.385,0.05 0.642,0.211 0.772,0.484 0.075,0.149 0.112,0.364 0.112,0.645 0,0.573 -0.203,0.989 -0.609,1.248 -0.405,0.258 -0.986,0.388 -1.741,0.388 -0.874,0 -1.493,-0.237 -1.859,-0.711 -0.205,-0.263 -0.338,-0.653 -0.399,-1.17 l -1.565,0 c 0.032,1.232 0.43,2.09 1.195,2.572 0.766,0.483 1.654,0.724 2.665,0.724 1.171,0 2.123,-0.224 2.855,-0.671 0.725,-0.446 1.087,-1.142 1.087,-2.085 l 0,-5.745 c 0,-0.174 0.036,-0.313 0.107,-0.419 0.072,-0.105 0.222,-0.158 0.452,-0.158 0.074,0 0.158,0.005 0.251,0.014 0.093,0.009 0.192,0.024 0.298,0.042 l 0,-1.238 c -0.261,-0.074 -0.459,-0.121 -0.596,-0.14 -0.136,-0.018 -0.322,-0.028 -0.558,-0.028 -0.578,0 -0.996,0.205 -1.257,0.615 -0.136,0.217 -0.233,0.524 -0.289,0.921 -0.341,-0.447 -0.832,-0.835 -1.471,-1.163 -0.639,-0.329 -1.344,-0.494 -2.113,-0.494 -0.925,0 -1.681,0.281 -2.267,0.842 -0.587,0.561 -0.88,1.263 -0.88,2.106 0,0.924 0.289,1.64 0.866,2.148 0.577,0.508 1.335,0.821 2.272,0.939 l 2.672,0.334 z" /><path
         inkscape:connector-curvature="0"
         id="path4251"
         style="fill:#4e4e4e;fill-opacity:1;fill-rule:nonzero;stroke:none"
         d="m 283.9332,278.364 2.183,0 6.82,-11.05 0,11.05 1.769,0 0,-13.677 -2.081,0 -6.922,11.037 0,-11.037 -1.769,0 0,13.677 z" /><path
         inkscape:connector-curvature="0"
         id="path4253"
         style="fill:#4e4e4e;fill-opacity:1;fill-rule:nonzero;stroke:none"
         d="m 303.6638,267.0362 c 0.408,0.84 0.612,1.775 0.612,2.804 0,0.93 -0.147,1.686 -0.442,2.269 -0.466,0.918 -1.27,1.376 -2.412,1.376 -1.012,0 -1.749,-0.391 -2.209,-1.172 -0.46,-0.781 -0.691,-1.723 -0.691,-2.827 0,-1.059 0.231,-1.943 0.691,-2.65 0.46,-0.706 1.19,-1.059 2.19,-1.059 1.099,0 1.852,0.419 2.261,1.259 m 1.04,6.627 c 0.881,-0.856 1.322,-2.114 1.322,-3.776 0,-1.607 -0.388,-2.934 -1.164,-3.982 -0.777,-1.048 -1.982,-1.571 -3.615,-1.571 -1.363,0 -2.444,0.462 -3.245,1.39 -0.802,0.927 -1.202,2.172 -1.202,3.734 0,1.675 0.422,3.008 1.266,4 0.845,0.992 1.979,1.489 3.403,1.489 1.275,0 2.354,-0.428 3.235,-1.284" /><path
         inkscape:connector-curvature="0"
         id="path4255"
         style="fill:#4e4e4e;fill-opacity:1;fill-rule:nonzero;stroke:none"
         d="m 219.4423,255.8302 9.925,0 0,-1.676 -8.119,0 0,-4.152 7.504,0 0,-1.583 -7.504,0 0,-4.636 8.258,0 0,-1.63 -10.064,0 0,13.677 z" /><path
         inkscape:connector-curvature="0"
         id="path4257"
         style="fill:#4e4e4e;fill-opacity:1;fill-rule:nonzero;stroke:none"
         d="m 231.7595,252.1248 1.592,0 0,-1.415 c 0.471,0.583 0.972,1.002 1.499,1.257 0.527,0.254 1.114,0.381 1.76,0.381 1.415,0 2.37,-0.493 2.867,-1.48 0.273,-0.54 0.41,-1.313 0.41,-2.318 l 0,-6.396 -1.704,0 0,6.284 c 0,0.608 -0.09,1.099 -0.27,1.471 -0.298,0.621 -0.838,0.931 -1.62,0.931 -0.397,0 -0.723,-0.04 -0.978,-0.121 -0.459,-0.137 -0.862,-0.409 -1.21,-0.819 -0.279,-0.329 -0.46,-0.67 -0.545,-1.02 -0.083,-0.35 -0.125,-0.851 -0.125,-1.503 l 0,-5.223 -1.676,0 0,9.971 z" /><path
         inkscape:connector-curvature="0"
         id="path4259"
         style="fill:#4e4e4e;fill-opacity:1;fill-rule:nonzero;stroke:none"
         d="m 248.9502,251.5941 c 0.705,-0.547 1.128,-1.487 1.271,-2.821 l -1.629,0 c -0.099,0.615 -0.326,1.125 -0.68,1.531 -0.353,0.406 -0.921,0.61 -1.703,0.61 -1.068,0 -1.831,-0.521 -2.291,-1.562 -0.298,-0.675 -0.447,-1.51 -0.447,-2.501 0,-0.999 0.211,-1.838 0.634,-2.521 0.422,-0.682 1.085,-1.022 1.992,-1.022 0.695,0 1.246,0.212 1.653,0.635 0.406,0.424 0.687,1.003 0.842,1.739 l 1.629,0 c -0.186,-1.322 -0.651,-2.289 -1.396,-2.9 -0.745,-0.611 -1.698,-0.917 -2.858,-0.917 -1.304,0 -2.343,0.476 -3.119,1.429 -0.776,0.953 -1.164,2.143 -1.164,3.57 0,1.751 0.425,3.113 1.275,4.088 0.851,0.974 1.933,1.461 3.25,1.461 1.123,0 2.037,-0.273 2.741,-0.819" /><path
         inkscape:connector-curvature="0"
         id="path4261"
         style="fill:#4e4e4e;fill-opacity:1;fill-rule:nonzero;stroke:none"
         d="m 258.0817,244.5023 c 0.408,0.84 0.612,1.775 0.612,2.804 0,0.93 -0.147,1.686 -0.442,2.269 -0.466,0.918 -1.27,1.376 -2.412,1.376 -1.012,0 -1.749,-0.391 -2.209,-1.172 -0.46,-0.781 -0.691,-1.723 -0.691,-2.827 0,-1.059 0.231,-1.943 0.691,-2.65 0.46,-0.706 1.19,-1.059 2.19,-1.059 1.099,0 1.852,0.419 2.261,1.259 m 1.04,6.627 c 0.881,-0.856 1.322,-2.114 1.322,-3.776 0,-1.607 -0.388,-2.934 -1.164,-3.982 -0.777,-1.048 -1.982,-1.571 -3.615,-1.571 -1.363,0 -2.444,0.463 -3.245,1.39 -0.802,0.927 -1.202,2.172 -1.202,3.734 0,1.675 0.422,3.008 1.266,4 0.845,0.992 1.979,1.489 3.403,1.489 1.275,0 2.354,-0.428 3.235,-1.284" /><path
         inkscape:connector-curvature="0"
         id="path4263"
         style="fill:#4e4e4e;fill-opacity:1;fill-rule:nonzero;stroke:none"
         d="m 262.5014,252.1248 1.592,0 0,-1.415 c 0.471,0.583 0.972,1.002 1.499,1.257 0.527,0.254 1.114,0.381 1.76,0.381 1.415,0 2.37,-0.493 2.867,-1.48 0.273,-0.54 0.41,-1.313 0.41,-2.318 l 0,-6.396 -1.704,0 0,6.284 c 0,0.608 -0.09,1.099 -0.27,1.471 -0.298,0.621 -0.838,0.931 -1.62,0.931 -0.397,0 -0.723,-0.04 -0.978,-0.121 -0.459,-0.137 -0.862,-0.409 -1.21,-0.819 -0.279,-0.329 -0.46,-0.67 -0.545,-1.02 -0.083,-0.35 -0.125,-0.851 -0.125,-1.503 l 0,-5.223 -1.676,0 0,9.971 z" /><path
         inkscape:connector-curvature="0"
         id="path4265"
         style="fill:#4e4e4e;fill-opacity:1;fill-rule:nonzero;stroke:none"
         d="m 273.4408,254.9085 1.694,0 0,-2.784 1.592,0 0,-1.368 -1.592,0 0,-6.508 c 0,-0.348 0.118,-0.581 0.354,-0.698 0.131,-0.069 0.348,-0.103 0.652,-0.103 0.08,0 0.168,0.002 0.261,0.006 0.093,0.004 0.201,0.015 0.325,0.032 l 0,-1.332 c -0.192,-0.056 -0.392,-0.096 -0.6,-0.121 -0.208,-0.024 -0.433,-0.037 -0.675,-0.037 -0.782,0 -1.313,0.2 -1.592,0.6 -0.279,0.4 -0.419,0.92 -0.419,1.56 l 0,6.601 -1.35,0 0,1.368 1.35,0 0,2.784 z" /><path
         inkscape:connector-curvature="0"
         id="path4267"
         style="fill:#4e4e4e;fill-opacity:1;fill-rule:nonzero;stroke:none"
         d="m 278.4496,252.1248 1.592,0 0,-1.722 c 0.13,0.335 0.45,0.743 0.959,1.223 0.509,0.481 1.095,0.722 1.76,0.722 0.031,0 0.083,-0.003 0.158,-0.009 0.074,-0.007 0.201,-0.018 0.382,-0.037 l 0,-1.769 c -0.099,0.019 -0.192,0.03 -0.275,0.037 -0.084,0.006 -0.176,0.01 -0.275,0.01 -0.844,0 -1.493,-0.272 -1.946,-0.816 -0.452,-0.543 -0.679,-1.168 -0.679,-1.875 l 0,-5.735 -1.676,0 0,9.971 z" /><path
         inkscape:connector-curvature="0"
         id="path4269"
         style="fill:#4e4e4e;fill-opacity:1;fill-rule:nonzero;stroke:none"
         d="m 286.568,243.6611 c 0.354,-0.279 0.773,-0.418 1.257,-0.418 0.59,0 1.16,0.136 1.713,0.409 0.931,0.452 1.396,1.192 1.396,2.221 l 0,1.348 c -0.204,-0.13 -0.468,-0.24 -0.789,-0.327 -0.323,-0.087 -0.638,-0.15 -0.948,-0.186 l -1.012,-0.13 c -0.608,-0.081 -1.064,-0.208 -1.371,-0.381 -0.518,-0.291 -0.777,-0.756 -0.777,-1.394 0,-0.483 0.177,-0.864 0.531,-1.142 m 3.529,4.526 c 0.385,0.05 0.642,0.211 0.772,0.484 0.075,0.149 0.112,0.364 0.112,0.645 0,0.573 -0.203,0.989 -0.609,1.248 -0.405,0.258 -0.986,0.388 -1.741,0.388 -0.874,0 -1.493,-0.237 -1.859,-0.711 -0.205,-0.263 -0.338,-0.653 -0.399,-1.17 l -1.565,0 c 0.032,1.232 0.429,2.09 1.195,2.572 0.766,0.483 1.654,0.724 2.665,0.724 1.171,0 2.123,-0.224 2.855,-0.671 0.725,-0.446 1.087,-1.142 1.087,-2.085 l 0,-5.745 c 0,-0.174 0.036,-0.313 0.107,-0.419 0.072,-0.105 0.222,-0.158 0.452,-0.158 0.074,0 0.158,0.005 0.251,0.014 0.093,0.009 0.192,0.024 0.298,0.042 l 0,-1.238 c -0.261,-0.074 -0.459,-0.121 -0.596,-0.14 -0.136,-0.018 -0.322,-0.028 -0.558,-0.028 -0.578,0 -0.996,0.205 -1.257,0.615 -0.136,0.217 -0.233,0.524 -0.289,0.921 -0.341,-0.447 -0.832,-0.835 -1.471,-1.163 -0.639,-0.329 -1.344,-0.494 -2.113,-0.494 -0.925,0 -1.681,0.281 -2.267,0.842 -0.587,0.561 -0.88,1.263 -0.88,2.106 0,0.924 0.289,1.64 0.866,2.148 0.577,0.508 1.335,0.821 2.272,0.939 l 2.672,0.334 z" /><path
         inkscape:connector-curvature="0"
         id="path4271"
         style="fill:#4e4e4e;fill-opacity:1;fill-rule:nonzero;stroke:none"
         d="m 297.0943,244.3416 c 0.451,-0.72 1.173,-1.08 2.168,-1.08 0.771,0 1.406,0.333 1.903,1 0.497,0.667 0.746,1.625 0.746,2.873 0,1.259 -0.257,2.192 -0.769,2.797 -0.513,0.605 -1.146,0.908 -1.899,0.908 -0.84,0 -1.521,-0.323 -2.042,-0.968 -0.523,-0.646 -0.783,-1.595 -0.783,-2.849 0,-1.068 0.225,-1.962 0.676,-2.681 m 3.741,7.476 c 0.296,-0.186 0.633,-0.512 1.011,-0.978 l 0,5.037 1.61,0 0,-13.723 -1.508,0 0,1.387 c -0.389,-0.614 -0.851,-1.058 -1.382,-1.331 -0.532,-0.273 -1.141,-0.41 -1.827,-0.41 -1.107,0 -2.066,0.467 -2.875,1.401 -0.811,0.934 -1.215,2.177 -1.215,3.729 0,1.453 0.369,2.71 1.108,3.775 0.739,1.065 1.795,1.597 3.167,1.597 0.761,0 1.397,-0.162 1.911,-0.484" /><path
         inkscape:connector-curvature="0"
         id="path4273"
         style="fill:#4e4e4e;fill-opacity:1;fill-rule:nonzero;stroke:none"
         d="m 307.7764,243.6611 c 0.354,-0.279 0.773,-0.418 1.257,-0.418 0.59,0 1.16,0.136 1.713,0.409 0.931,0.452 1.396,1.192 1.396,2.221 l 0,1.348 c -0.204,-0.13 -0.468,-0.24 -0.789,-0.327 -0.323,-0.087 -0.638,-0.15 -0.948,-0.186 l -1.012,-0.13 c -0.608,-0.081 -1.064,-0.208 -1.371,-0.381 -0.518,-0.291 -0.777,-0.756 -0.777,-1.394 0,-0.483 0.177,-0.864 0.531,-1.142 m 3.529,4.526 c 0.385,0.05 0.642,0.211 0.772,0.484 0.075,0.149 0.112,0.364 0.112,0.645 0,0.573 -0.203,0.989 -0.609,1.248 -0.405,0.258 -0.986,0.388 -1.741,0.388 -0.874,0 -1.493,-0.237 -1.859,-0.711 -0.205,-0.263 -0.338,-0.653 -0.399,-1.17 l -1.565,0 c 0.032,1.232 0.429,2.09 1.195,2.572 0.766,0.483 1.654,0.724 2.665,0.724 1.171,0 2.123,-0.224 2.855,-0.671 0.725,-0.446 1.087,-1.142 1.087,-2.085 l 0,-5.745 c 0,-0.174 0.036,-0.313 0.107,-0.419 0.072,-0.105 0.222,-0.158 0.452,-0.158 0.074,0 0.158,0.005 0.251,0.014 0.093,0.009 0.192,0.024 0.298,0.042 l 0,-1.238 c -0.261,-0.074 -0.459,-0.121 -0.596,-0.14 -0.136,-0.018 -0.322,-0.028 -0.558,-0.028 -0.578,0 -0.996,0.205 -1.257,0.615 -0.136,0.217 -0.233,0.524 -0.289,0.921 -0.341,-0.447 -0.832,-0.835 -1.471,-1.163 -0.639,-0.329 -1.344,-0.494 -2.113,-0.494 -0.925,0 -1.681,0.281 -2.267,0.842 -0.587,0.561 -0.88,1.263 -0.88,2.106 0,0.924 0.289,1.64 0.866,2.148 0.577,0.508 1.335,0.821 2.272,0.939 l 2.672,0.334 z" /><path
         inkscape:connector-curvature="0"
         id="path4275"
         style="fill:#356ea7;fill-opacity:1;fill-rule:nonzero;stroke:none"
         d="m 220.832,301.7323 15.713,0 0,22.69 -15.713,-22.69 z m 15.713,-3.276 -19.535,0 0,3.337 19.899,28.453 3.519,0 0,-28.514 5.945,0 0,-3.276 -5.945,0 0,-10.556 -3.883,0 0,10.556 z" /><path
         inkscape:connector-curvature="0"
         id="path4277"
         style="fill:#356ea7;fill-opacity:1;fill-rule:nonzero;stroke:none"
         d="m 275.979,308.9518 c 0,2.306 -0.131,4.559 -0.394,6.764 -0.264,2.204 -0.779,4.176 -1.547,5.916 -0.769,1.738 -1.851,3.134 -3.246,4.186 -1.395,1.051 -3.226,1.577 -5.49,1.577 -2.145,0 -3.893,-0.536 -5.248,-1.608 -1.355,-1.072 -2.418,-2.497 -3.185,-4.277 -0.769,-1.78 -1.304,-3.802 -1.608,-6.066 -0.303,-2.266 -0.455,-4.572 -0.455,-6.917 0,-2.751 0.172,-5.247 0.516,-7.492 0.343,-2.245 0.919,-4.156 1.729,-5.733 0.808,-1.578 1.89,-2.802 3.246,-3.671 1.354,-0.87 3.063,-1.304 5.126,-1.304 2.306,0 4.156,0.566 5.551,1.698 1.395,1.133 2.457,2.589 3.185,4.369 0.728,1.779 1.214,3.781 1.456,6.006 0.243,2.224 0.364,4.408 0.364,6.552 m -10.556,21.719 c 2.102,0 3.923,-0.313 5.46,-0.941 1.537,-0.627 2.841,-1.486 3.914,-2.578 1.07,-1.091 1.94,-2.366 2.608,-3.822 0.667,-1.456 1.183,-3.003 1.547,-4.64 0.364,-1.639 0.606,-3.328 0.728,-5.067 0.121,-1.739 0.182,-3.438 0.182,-5.096 0,-2.831 -0.203,-5.541 -0.607,-8.129 -0.404,-2.589 -1.143,-4.875 -2.214,-6.856 -1.072,-1.982 -2.539,-3.559 -4.398,-4.732 -1.862,-1.172 -4.268,-1.76 -7.22,-1.76 -2.953,0 -5.369,0.588 -7.25,1.76 -1.881,1.173 -3.358,2.761 -4.429,4.763 -1.072,2.002 -1.81,4.327 -2.214,6.976 -0.405,2.649 -0.607,5.45 -0.607,8.403 0,2.709 0.182,5.358 0.546,7.947 0.364,2.589 1.062,4.904 2.093,6.947 1.032,2.042 2.497,3.691 4.399,4.944 1.901,1.254 4.388,1.881 7.462,1.881" /><path
         inkscape:connector-curvature="0"
         id="path4279"
         style="fill:#356ea7;fill-opacity:1;fill-rule:nonzero;stroke:none"
         d="m 288.2946,301.7323 15.713,0 0,22.69 -15.713,-22.69 z m 15.713,-3.276 -19.535,0 0,3.337 19.9,28.453 3.518,0 0,-28.514 5.946,0 0,-3.276 -5.946,0 0,-10.556 -3.883,0 0,10.556 z" /></g></g></svg>