<svg xmlns="http://www.w3.org/2000/svg" width="320" height="320" viewBox="0 0 320 320">
    <path d="M160.02 0C96.41 0 44.66 51.741 44.66 115.34c0 22.204 5.44 40.431 18.959 63.239l87.97 136.83a9.998 9.998 0 0 0 16.82 0l87.95-136.83a9.712 9.712 0 0 0 .85-1.632c9.486-17.953 18.132-37.85 18.132-61.606C275.34 51.74 223.609 0 160.019 0zm0 20.006c52.56 0 95.314 42.762 95.314 95.335 0 19.78-7.823 37.226-16.272 53.128-.03.048-.05.1-.08.148L160 291.497 80.663 168.058c-11.516-19.37-16-34.15-16-52.718 0-52.571 42.775-95.335 95.356-95.335zM121.582 64.08v100.786h45.4c5.119 0 9.868-.457 14.244-1.366 4.376-.91 8.165-2.6 11.388-5.061 2.853-2.14 5.236-4.787 7.132-7.932 2.989-4.738 4.493-10.1 4.493-16.068 0-5.793-1.31-10.715-3.927-14.77-2.618-4.053-6.506-7.023-11.644-8.89 3.379-1.728 5.96-3.643 7.698-5.743 3.106-3.741 4.65-8.683 4.65-14.837 0-5.968-1.525-11.096-4.612-15.385-5.138-6.974-13.832-10.548-26.119-10.734h-48.703zm20.081 17.505h21.941c4.825 0 8.79.527 11.897 1.573 3.614 1.504 5.43 4.598 5.43 9.297 0 4.24-1.367 7.19-4.102 8.86-2.735 1.66-6.29 2.49-10.666 2.49h-24.5v-22.22zm0 38.904h24.811c4.338.05 7.7.616 10.083 1.71 4.278 1.963 6.406 5.557 6.406 10.803 0 6.202-2.208 10.392-6.623 12.58-2.423 1.182-5.822 1.779-10.198 1.779h-24.479v-26.872z"/>
</svg>
