<svg xmlns="http://www.w3.org/2000/svg" width="320" height="320" viewBox="0 0 320 320"><path d="M113.89 3.41c-5.761 0-10.39 4.668-10.39 10.39v98.507h-4.707c-13.377 0-25.441 5.682-33.934 14.75-6.729-8.705-16.856-14.261-28.167-14.261C16.478 112.796 0 130.532 0 152.287V277.06c0 21.796 16.478 39.531 36.692 39.531 11.66 0 22.055-5.907 28.773-15.085 8.456 8.696 20.266 14.11 33.328 14.11h174.693c25.652 0 46.513-20.861 46.514-46.514V158.823c0-25.653-20.861-46.516-46.514-46.516h-4.668V13.8c0-5.723-4.669-10.391-10.392-10.391H113.891zm10.392 20.782h123.755v88.115H124.282V24.192zm27.723 20.011c-5.762 0-10.391 4.666-10.391 10.389a10.361 10.361 0 0 0 10.39 10.391h68.27a10.361 10.361 0 0 0 10.391-10.391c0-5.723-4.628-10.389-10.39-10.389h-68.27zm0 29.263c-5.762 0-10.391 4.669-10.391 10.391a10.36 10.36 0 0 0 10.39 10.39h68.27a10.36 10.36 0 0 0 10.391-10.39c0-5.722-4.628-10.39-10.39-10.39h-68.27zM98.793 133.09h13.052c.66.132 1.345.204 2.046.204h144.535c.697 0 1.378-.072 2.036-.204h13.024c14.206 0 25.734 11.528 25.734 25.734V269.1c0 14.167-11.528 25.734-25.734 25.734H98.793c-12.909 0-23.603-9.552-25.449-21.926V155.004c1.846-12.397 12.54-21.915 25.449-21.915zm-62.1.489c8.726 0 15.872 8.4 15.87 18.71v1.437a46.793 46.793 0 0 0-.284 5.098V269.1c0 1.724.101 3.423.285 5.098v2.86c0 10.35-7.146 18.75-15.872 18.75-8.767 0-15.91-8.4-15.91-18.75V152.29c0-10.31 7.142-18.711 15.91-18.711zm71.964 26.586c-5.723 0-10.391 4.668-10.391 10.39v44.566c0 5.723 4.668 10.391 10.391 10.391h154.965c5.723 0 10.391-4.668 10.391-10.39v-44.566c0-5.723-4.668-10.391-10.391-10.391H108.657zm10.39 20.782H253.23v23.783H119.046v-23.783z"/></svg>