<svg xmlns="http://www.w3.org/2000/svg" width="320" height="320" viewBox="0 0 320 320"><path d="M212.21 320c-7.813 0-15.79-1.398-23.769-4.194-48.497-16.777-85.05-79.644-102.566-115.58C70.435 168.482 37.212 89.29 61.964 38.757 71.997 18.444 89.512 5.533 113.998.435c3.495-.782 7.134-.494 10.487.739 22.86 7.895 41.138 70.559 41.98 73.272 8.387 29.275 4.75 38.979.082 44.612-6.721 8.554-15.233 12.006-21.484 14.516-3.33 1.398-5.612 2.385-7.256 3.617.164 2.467 1.048 7.69 4.296 16.572 8.08 22.49 20.024 39.473 24.876 44.12 2.2-.536 4.441-1.73 7.545-3.497 5.901-3.33 13.938-7.853 24.917-7.895 2.488 0 4.853.473 7.092 1.276 20.62 7.134 55.283 65.746 59.744 90.335 1.872 10.362-.37 18.093-6.497 23.15C244.98 313.669 228.965 320 212.21 320zM118.173 19.06C99.137 22.905 86.39 32.095 78.988 47.144 57.34 91.324 91.86 169.099 102.937 191.92c13.015 26.848 48.13 90.87 91.632 105.96 18.75 6.537 36.429 2.796 53.102-11.185.103-.082.72-1.027.021-5.099-4.154-22.571-36.841-72.284-47.553-75.985-6.333-.493-11.328 2.467-16.221 5.223-5.202 2.96-11.06 6.25-19.141 6.25l-3.228-.534c-13.179-4.565-30.016-36.307-37.251-56.374-4.05-10.957-7.874-25.45-3.804-32.195 5.634-7.154 11.885-9.702 17.414-11.924 5.2-2.137 10.135-4.194 13.918-9.003.307-.329 2.652-5.47-3.62-27.425-7.974-27.592-23.125-58.226-30.033-60.569z"/></svg>