<svg xmlns="http://www.w3.org/2000/svg" width="320" height="320" viewBox="0 0 320 320">
    <path d="M68.765 0c-12.682 0-23.05 10.312-23.05 23.021v273.907c0 12.707 10.366 23.072 23.05 23.072h182.447c12.76 0 23.072-10.365 23.072-23.072V82.449c0-.781-.234-1.51-.469-2.29.08-3.076-.65-6.044-2.89-8.284L202.382 3.334c-2.213-2.24-5.234-2.968-8.28-2.918-.754-.155-1.486-.416-2.318-.416H68.764zm0 22.814h114.088v48.022c0 12.707 7.892 20.57 20.574 20.57h48.045v205.522c0 .104-.156.209-.26.209l-182.63-.21.183-274.113zm136.953 16.198l29.556 29.531-29.556-.05V39.011z"/>
</svg>
