<svg xmlns="http://www.w3.org/2000/svg" width="320" height="320" viewBox="0 0 320 320">
    <path d="M160.057 0c-8.408 0-15.224 6.84-15.224 15.238v151.785l-60.548-60.398c-5.704-5.818-15.726-5.818-21.498 0-5.932 5.976-5.933 15.66-.024 21.524l85.566 85.577h.091l.957.946c1.18 1.272 2.864 2.397 4.68 3.123.73.331 1.272.488 1.773.558 4.363 1.293 7.183.773 10.045-.512a13.789 13.789 0 0 0 4.954-3.284l86.41-86.408c5.909-5.865 5.888-15.547 0-21.547-5.772-5.772-15.819-5.772-21.5 0l-60.433 60.421V15.238C175.306 6.966 168.331 0 160.057 0zM40.012 208.522c-8.272 0-15.249 6.967-15.249 15.24v80.976c0 8.408 6.84 15.262 15.249 15.262H280.01c8.387 0 15.227-6.852 15.227-15.262v-80.976c0-8.273-6.996-15.24-15.225-15.24-8.408 0-15.273 6.831-15.273 15.24v65.726H55.24v-65.726c0-8.408-6.817-15.24-15.227-15.24z"/>
</svg>
