<svg xmlns="http://www.w3.org/2000/svg" width="320" height="320" viewBox="0 0 320 320">
    <path d="M289.589 144.863H86.321l19.765-10.576s.03-.02.048-.03l35.853-19.185c.01 0 .03-.01.04-.02l35.91-19.215.02-.01 35.94-19.225c.02-.01.03-.02.048-.03l35.89-19.195 15.704-8.406c4.854-2.597 6.684-8.63 4.086-13.485L253.464 5.268a9.979 9.979 0 0 0-5.896-4.835 9.916 9.916 0 0 0-7.589.75L25.712 115.821a9.947 9.947 0 0 0-4.835 5.896 9.956 9.956 0 0 0 .75 7.589l14.991 28.019v152.711A9.957 9.957 0 0 0 46.581 320H289.59a9.957 9.957 0 0 0 9.963-9.963V154.826a9.957 9.957 0 0 0-9.963-9.963zM221.387 33.726l15.246-8.153-1.08 16.851-15.256 8.163 1.09-16.861zm-35.94 19.235l15.256-8.163-1.09 16.851-15.256 8.163 1.09-16.851zm-35.93 19.225l15.247-8.163-1.09 16.851-15.246 8.153 1.09-16.841zm-35.94 19.225l15.256-8.163-1.09 16.851-15.255 8.163 1.09-16.851zm166.05 73.378v13.903h-10.962l8.636-13.903h2.325zm-25.784 0l-8.633 13.903h-17.3l8.636-13.903h17.297zm-40.755 0l-8.634 13.903h-17.3l8.635-13.903h17.299zm-40.755 0l-8.634 13.903h-17.301l8.636-13.903h17.299zm-40.757 0l-8.634 13.903h-17.3l8.636-13.903h17.298zm-49.389 13.903H64.888l8.634-13.903H90.82l-8.634 13.903zm-4.55-68.056l15.256-8.163-1.09 16.86-15.256 8.163 1.09-16.86zm-20.684 11.072l-1.08 16.85-5.206 2.783-6.772-12.648 13.058-6.985zm-.409 178.366V198.618h223.082v101.456H56.544z"/>
</svg>
