<?xml version="1.0" encoding="utf-8"?>
<!-- Generator: Adobe Illustrator 17.0.0, SVG Export Plug-In . SVG Version: 6.00 Build 0)  -->
<!DOCTYPE svg PUBLIC "-//W3C//DTD SVG 1.1//EN" "http://www.w3.org/Graphics/SVG/1.1/DTD/svg11.dtd">
<svg version="1.1" id="Layer_1" xmlns="http://www.w3.org/2000/svg" xmlns:xlink="http://www.w3.org/1999/xlink" x="0px" y="0px"
	 width="64px" height="64px" viewBox="0 0 64 64" enable-background="new 0 0 64 64" xml:space="preserve">
<path d="M13.753,0c-2.536,0-4.609,2.062-4.609,4.604v54.781c0,2.541,2.073,4.614,4.609,4.614h36.489
	c2.552,0,4.614-2.073,4.614-4.614V16.49c0-0.156-0.047-0.302-0.094-0.458c0.016-0.615-0.13-1.208-0.578-1.656L40.476,0.667
	c-0.443-0.448-1.047-0.594-1.656-0.584C38.669,0.052,38.524,0,38.357,0H13.753z M13.752,4.563H36.57v9.604
	c0,2.542,1.578,4.114,4.115,4.114h9.609v41.105c0,0.021-0.031,0.042-0.052,0.042l-36.526-0.042L13.752,4.563L13.752,4.563z
	 M41.143,7.802l5.911,5.906l-5.911-0.01V7.802z M17.48,28.213v10.891h2.261v-3.917h2.265c1.187,0,2.094-0.265,2.734-0.797
	c0.635-0.531,0.953-1.438,0.953-2.724c0-1.177-0.317-2.047-0.958-2.609c-0.641-0.562-1.5-0.844-2.578-0.844L17.48,28.213
	L17.48,28.213z M27.517,28.214v10.89h4.698c1.646,0,2.86-0.677,3.651-2.031c0.583-1.005,0.869-2.23,0.869-3.677
	c0-0.573-0.068-1.172-0.203-1.802c-0.14-0.63-0.401-1.219-0.776-1.76c-0.474-0.672-1.094-1.131-1.86-1.381
	c-0.448-0.151-1.01-0.229-1.682-0.239H27.517L27.517,28.214z M38.444,28.229v10.875h2.26v-4.568h4.823v-1.89h-4.823v-2.5h5.505
	v-1.917L38.444,28.229L38.444,28.229z M19.741,30.104h2.052c0.521,0,0.922,0.125,1.208,0.364c0.292,0.24,0.433,0.646,0.433,1.214
	c0,0.563-0.141,0.979-0.433,1.239c-0.286,0.26-0.687,0.391-1.208,0.391h-2.052L19.741,30.104L19.741,30.104z M29.725,30.104h2.104
	c1.037,0,1.724,0.297,2.073,0.891c0.349,0.594,0.521,1.448,0.521,2.552c0,0.807-0.114,1.495-0.344,2.078
	c-0.427,1.058-1.177,1.589-2.25,1.589h-2.104L29.725,30.104L29.725,30.104z"/>
</svg>
