<?xml version="1.0" encoding="utf-8"?>
<!-- Generator: Adobe Illustrator 17.0.0, SVG Export Plug-In . SVG Version: 6.00 Build 0)  -->
<!DOCTYPE svg PUBLIC "-//W3C//DTD SVG 1.1//EN" "http://www.w3.org/Graphics/SVG/1.1/DTD/svg11.dtd">
<svg version="1.1" id="Layer_1" xmlns="http://www.w3.org/2000/svg" xmlns:xlink="http://www.w3.org/1999/xlink" x="0px" y="0px"
	 width="64px" height="64px" viewBox="0 0 64 64" enable-background="new 0 0 64 64" xml:space="preserve">
<path d="M13.753,0c-2.536,0-4.61,2.062-4.61,4.604v54.781c0,2.541,2.073,4.614,4.61,4.614h36.489c2.552,0,4.614-2.073,4.614-4.614
	V16.49c0-0.156-0.047-0.302-0.094-0.458c0.016-0.615-0.13-1.209-0.578-1.657L40.477,0.667c-0.443-0.448-1.047-0.594-1.656-0.584
	C38.67,0.052,38.523,0,38.357,0H13.753L13.753,0z M13.753,4.563h22.818v9.604c0,2.541,1.578,4.114,4.115,4.114h9.609v41.104
	c0,0.021-0.031,0.042-0.052,0.042l-36.526-0.042L13.753,4.563L13.753,4.563z M41.144,7.802l5.911,5.906l-5.911-0.01V7.802
	L41.144,7.802z"/>
<path d="M46,35.661c0-9.343-5.756-15.869-14.002-15.869c-8.246,0-14.002,6.526-13.998,15.982h0.018c0,0.004-0.006,0.019-0.006,0.03
	v6.104c0,1.269,1.128,2.3,2.523,2.3h0.825c1.391,0,2.523-1.031,2.523-2.3v-6.104c0-1.27-1.132-2.3-2.523-2.3h-0.825
	c-0.197,0-0.371,0.062-0.55,0.102c0.673-6.236,4.461-11.944,12.013-11.944c7.56,0,11.341,5.718,12.015,11.944
	c-0.185-0.04-0.356-0.102-0.552-0.102h-0.827c-1.393,0-2.525,1.03-2.525,2.3v6.104c0,1.269,1.133,2.3,2.525,2.3h0.827
	c1.395,0,2.523-1.031,2.523-2.3v-6.104c0-0.048-0.028-0.091-0.03-0.136L46,35.661L46,35.661z"/>
</svg>
