<?xml version="1.0" encoding="utf-8"?>
<!-- Generator: Adobe Illustrator 17.0.0, SVG Export Plug-In . SVG Version: 6.00 Build 0)  -->
<!DOCTYPE svg PUBLIC "-//W3C//DTD SVG 1.1//EN" "http://www.w3.org/Graphics/SVG/1.1/DTD/svg11.dtd">
<svg version="1.1" id="Layer_1" xmlns="http://www.w3.org/2000/svg" xmlns:xlink="http://www.w3.org/1999/xlink" x="0px" y="0px"
	 width="64px" height="64px" viewBox="0 0 64 64" enable-background="new 0 0 64 64" xml:space="preserve">
<path d="M13.753,0c-2.536,0-4.61,2.062-4.61,4.604v54.781c0,2.541,2.073,4.614,4.61,4.614h36.489c2.552,0,4.614-2.073,4.614-4.614
	V16.49c0-0.156-0.047-0.302-0.094-0.458c0.016-0.615-0.13-1.209-0.578-1.657L40.477,0.667c-0.443-0.448-1.047-0.594-1.656-0.584
	C38.67,0.052,38.523,0,38.357,0H13.753L13.753,0z M13.753,4.563h22.818v9.604c0,2.541,1.578,4.114,4.115,4.114h9.609v41.104
	c0,0.021-0.031,0.042-0.052,0.042l-36.526-0.042L13.753,4.563L13.753,4.563z M41.144,7.802l5.911,5.906l-5.911-0.01V7.802
	L41.144,7.802z"/>
<path d="M41.281,30.615L23.743,16.688c-0.359-0.285-0.694-0.41-0.973-0.391v0C22.307,16.33,22,16.765,22,17.531v28.939
	c0,1.225,0.785,1.603,1.743,0.842l17.538-13.927C42.24,32.623,42.24,31.377,41.281,30.615z"/>
</svg>
