<svg xmlns="http://www.w3.org/2000/svg" width="360" height="320" viewBox="0 0 360 320">
    <path d="M178.026 33.877c-1.544 0-3.091.319-4.541.956L6.713 108.264a11.247 11.247 0 0 0 .011 20.59l72.993 32.11v87.893c0 .364.175.67.208 1.026.074.784.224 1.515.456 2.268.213.683.458 1.312.79 1.932a10.87 10.87 0 0 0 1.176 1.745 10.842 10.842 0 0 0 1.612 1.623c.28.229.439.55.747.756 27.795 18.611 62.205 27.916 96.328 27.916 34.222 0 68.17-9.36 94.878-28.07.275-.192.413-.487.665-.698.593-.495 1.084-1.044 1.565-1.65.443-.563.847-1.11 1.171-1.738.326-.624.542-1.267.747-1.952.225-.749.39-1.472.455-2.25.028-.323.186-.6.186-.929v-86.34l56.8-25.001v30.02c0 6.218 5.03 11.25 11.249 11.25 6.218 0 11.25-5.032 11.25-11.25v-47.263c0-2.04-.687-3.848-1.634-5.498-.235-.413-.48-.756-.766-1.136-1.114-1.488-2.47-2.753-4.176-3.538-.06-.028-.086-.098-.146-.124l-.109-.047-.073-.031L182.55 34.833a11.16 11.16 0 0 0-4.523-.956zm-.004 23.543l142.802 62.83-138.846 61.117-142.8-62.81L178.022 57.42zm-75.805 113.44l75.234 33.096a11.236 11.236 0 0 0 9.064 0l71.686-31.557v69.983c-44.599 28.263-109.417 28.214-155.984-.101v-71.42zm246.532 17.593c-6.218 0-11.248 5.032-11.248 11.25v5.582c0 6.219 5.03 11.25 11.248 11.25 6.219 0 11.25-5.031 11.25-11.25v-5.582c0-6.218-5.031-11.25-11.25-11.25z"/>
</svg>
