<svg xmlns="http://www.w3.org/2000/svg" width="320" height="320" viewBox="0 0 320 320">
    <path d="M30.395 35.582C13.635 35.582 0 49.215 0 65.975v167.64c0 16.76 13.635 30.393 30.395 30.393h116.414l4.496-20.262H30.395c-5.58 0-10.133-4.551-10.133-10.13V113.464h225.533l7.246-8.35c5.195-5.97 11.818-10.172 19.135-12.635V65.975c0-16.76-13.633-30.393-30.393-30.393H30.395zm0 20.262h211.388c5.58 0 10.131 4.55 10.131 10.13v27.23H20.262v-27.23c0-5.58 4.552-10.13 10.133-10.13zm5.626 10.152a8.23 8.23 0 0 0-8.228 8.229 8.23 8.23 0 0 0 8.228 8.23 8.23 8.23 0 0 0 8.229-8.23 8.23 8.23 0 0 0-8.229-8.229zm22.229 0a8.23 8.23 0 0 0-8.229 8.229 8.23 8.23 0 0 0 8.229 8.23 8.23 8.23 0 0 0 8.229-8.23 8.23 8.23 0 0 0-8.229-8.229zm22.229 0a8.23 8.23 0 0 0-8.229 8.229 8.23 8.23 0 0 0 8.229 8.23 8.23 8.23 0 0 0 8.23-8.23 8.23 8.23 0 0 0-8.23-8.229zm206.671 34.518c-9.867-.2-19.837 3.635-26.449 11.26L168.72 217.745a10.082 10.082 0 0 0-2.246 4.441l-11.08 49.905a10.134 10.134 0 0 0 3.343 9.922 10.108 10.108 0 0 0 6.551 2.404 10.12 10.12 0 0 0 3.79-.732l46.806-18.887a10.121 10.121 0 0 0 3.86-2.76l91.98-105.97c5.916-6.807 8.825-15.524 8.191-24.528-.633-8.994-4.738-17.214-11.555-23.13-5.921-5.148-13.534-7.743-21.209-7.897zm-.566 20.039c3.072.063 6.12 1.1 8.496 3.152a13.49 13.49 0 0 1 4.621 9.27 13.43 13.43 0 0 1-3.275 9.814l-90.389 104.133-26.693 10.764 6.351-28.604 90.301-104.031c2.65-3.05 6.638-4.58 10.588-4.498zm-14.408 96.566l-40.688 46.889h10.295c16.76 0 30.393-13.635 30.393-30.395V217.12z"/>
</svg>
