<svg xmlns="http://www.w3.org/2000/svg" width="320" height="320" viewBox="0 0 320 320"><path d="M168.375 0c-1.964 0-3.94.042-5.074.135l-4.612-.082C77.296.053 4.71 71.216 3.38 151.699c-5.226 66.879 37.53 133.165 101.627 157.592C123.224 316.299 143.55 320 163.814 320c50.87 0 97.085-22.288 123.485-59.432 22.872-30.78 32.633-72.013 29.021-122.576l-.685-9.656-9.676-.072c-25.625-.194-51.23-.256-76.813-.256l-76.625.144-.04 10.403c-.072 17.022 0 34.033.072 51.054l.039 10.096 10.098.326c17.552.584 35.137.645 52.72.696 6.373.03 12.755.053 19.127.093-12.255 29.49-44.21 43.055-71.625 43.055-19.773 0-37.99-6.65-51.933-19.262-19.304-14.934-30.402-39.956-29.686-66.92.727-27.025 13.175-51.463 33.87-65.814 26.729-21.327 71.133-19.077 103.806 3.498l6.904 4.777 6.158-5.697c12.377-11.447 25.02-24.54 38.666-40.027l7.264-8.254-8.594-6.854C237.114 13.596 202.192 0 168.375 0zm1.293 20.93c30.884.269 58.274 14.25 77.76 28.08-8.213 9.021-16.06 17.132-23.73 24.508-39.486-23.609-90.091-23.188-121.034 1.566-25.593 17.707-41.406 48.375-42.307 82.049-.9 33.623 13.236 65.037 37.172 83.521 17.174 15.59 40.395 24.172 65.385 24.172 48.006 0 87.448-29.726 95.908-72.28l2.455-12.327-12.57-.194c-11.068-.164-22.147-.205-33.225-.246-14.014-.04-28.018-.091-42.021-.398-.04-10.117-.073-20.223-.063-30.33l55.748-.092c22.26 0 44.518.05 66.797.184 1.464 40.968-7.097 74.222-25.591 99.109-22.607 31.801-62.44 50.799-106.538 50.799-17.716 0-35.443-3.221-51.308-9.328-54.747-20.868-92.687-79.503-88.207-137.032 1.176-70.151 63.972-131.69 134.39-131.69l4.756.061a103.06 103.06 0 0 1 6.223-.132z"/></svg>