<svg xmlns="http://www.w3.org/2000/svg" width="320" height="320" viewBox="0 0 320 320"><path d="M60.634 3.397l24.392 73.079v47.945h20.521V74.216l23.88-70.819H108.58l-12.69 48.38h-1.269L81.248 3.396H60.634zm97.424 29.499c-8.295-.001-14.889 2.043-19.811 6.128-4.891 4.116-7.335 9.595-7.335 16.528v46.274c0 7.612 2.383 13.65 7.15 18.107 4.828 4.488 11.174 6.748 19.19 6.748 8.265 0 14.765-2.167 19.53-6.5 4.676-4.334 7.06-10.338 7.06-17.983v-46.12c0-6.808-2.446-12.41-7.245-16.712-4.828-4.303-10.986-6.47-18.539-6.47zm40.547 2.258v74.626c0 5.325 1.083 9.288 3.218 11.918 2.136 2.692 5.264 4.054 9.503 4.054 3.435 0 6.932-.992 10.555-2.879 3.683-1.887 7.181-4.704 10.524-8.325v9.873h18.231V35.154h-18.231v67.786c-1.702 1.92-3.59 3.528-5.602 4.797-2.105 1.238-3.777 1.858-5.139 1.858-1.701 0-2.942-.465-3.683-1.424-.776-.928-1.178-2.476-1.178-4.58V35.153h-18.198zM157.16 48.37c2.413 0 4.366.587 5.85 1.794 1.518 1.209 2.26 2.754 2.26 4.705v48.657c0 2.413-.742 4.272-2.196 5.665-1.455 1.363-3.466 2.014-5.912 2.014-2.383 0-4.273-.651-5.54-1.982-1.302-1.363-1.92-3.219-1.92-5.695V54.87c0-1.95.682-3.497 2.043-4.705 1.394-1.207 3.186-1.794 5.415-1.794zM58.438 149.554C26.123 149.554 0 178.773 0 211.12v46.985c0 32.345 26.123 58.499 58.438 58.499H261.53c32.315 0 58.469-26.154 58.469-58.499V211.12c0-32.346-26.154-61.565-58.47-61.565H58.439zm-13.31 23.649h55.992v15.972H82.225v93.909H63.979v-93.91H45.128v-15.971zm121.504 0h16.342v35.408c2.228-2.446 4.518-4.334 6.933-5.634 2.476-1.331 4.953-1.918 7.46-1.918 5.168 0 9.1 1.7 11.792 5.168 2.692 3.435 4.056 8.513 4.056 15.136v44.974c0 5.728-1.27 10.12-3.84 13.215-2.538 3.033-6.188 4.551-10.987 4.551-3.187 0-6.006-.557-8.48-1.765-2.477-1.146-4.799-2.971-6.934-5.448v6.192h-16.342v-109.88zm79.639 26.805c7.429 0 13.122 2.072 17.115 6.16 3.962 4.116 5.943 9.967 5.943 17.674v20.674h-30.95v15.29c0 4.24.526 7.181 1.546 8.854 1.084 1.64 2.941 2.476 5.51 2.476 2.692 0 4.55-.714 5.631-2.106 1.084-1.424 1.611-4.487 1.611-9.224v-3.715h16.652v4.149c0 8.326-1.981 14.546-6.128 18.82-3.994 4.146-10.059 6.22-18.137 6.22-7.243 0-13-2.196-17.116-6.684-4.149-4.396-6.284-10.554-6.284-18.354v-36.4c0-6.995 2.321-12.784 6.933-17.21 4.55-4.427 10.432-6.624 17.674-6.624zm-138.03 2.011h16.14v62.214c0 1.889.372 3.25.992 4.117.681.867 1.825 1.3 3.374 1.3 1.146 0 2.661-.588 4.52-1.702a20.618 20.618 0 0 0 4.982-4.364V202.02h16.187v81.065h-16.189v-8.886c-3.002 3.283-6.096 5.79-9.315 7.46-3.25 1.765-6.377 2.6-9.441 2.6-3.745 0-6.514-1.175-8.403-3.62-1.887-2.382-2.847-6.004-2.847-10.833V202.02zm81.513 11.884c-1.146 0-2.323.279-3.437.805-1.114.526-2.197 1.363-3.343 2.477v50.514c1.332 1.268 2.6 2.26 3.84 2.88 1.268.525 2.536.865 3.93.865 1.95 0 3.436-.587 4.365-1.763.929-1.114 1.392-2.972 1.392-5.572V222.26c0-2.754-.557-4.827-1.672-6.25-1.176-1.362-2.878-2.107-5.075-2.107zm55.807.278c-2.538 0-4.428.745-5.511 2.262-1.145 1.424-1.67 3.839-1.67 7.243v8.2h14.3v-8.2c0-3.404-.589-5.82-1.702-7.243-1.085-1.517-2.91-2.262-5.417-2.262z"/></svg>