<svg xmlns="http://www.w3.org/2000/svg" width="365" height="320" viewBox="0 0 365 320"><path d="M180.282 0c-1.511 0-3.021.314-4.434.934L7.778 75.159c-5.53 2.45-8.035 8.911-5.596 14.454 1.808 4.097 5.82 6.525 10.036 6.525a11 11 0 0 0 4.418-.932l163.63-72.266 162.999 72.256c5.563 2.503 12.014-.053 14.454-5.572 2.45-5.531-.044-12.004-5.574-14.455L184.718.945A10.862 10.862 0 0 0 180.282 0zm-.68 41.201c-11.758 0-21.322 9.575-21.322 21.354 0 11.747 9.564 21.314 21.322 21.314s21.321-9.567 21.321-21.314c0-11.778-9.564-21.354-21.321-21.354zm.002 10.957c5.712 0 10.365 4.663 10.365 10.397 0 5.713-4.652 10.357-10.365 10.357-5.714 0-10.367-4.644-10.367-10.357 0-5.734 4.653-10.397 10.367-10.397zM42.398 93.998a10.95 10.95 0 0 0-10.955 10.956c0 6.055 4.9 10.954 10.955 10.954h6.867v148.47h-6.867c-6.055 0-10.955 4.903-10.955 10.958 0 6.055 4.9 10.954 10.955 10.954h275.18c6.056 0 10.955-4.9 10.955-10.954 0-6.055-4.9-10.957-10.955-10.957h-6.889v-148.47h6.89c6.054 0 10.954-4.9 10.954-10.955 0-6.056-4.9-10.955-10.955-10.955H42.398zm28.779 21.91h12.878v148.47H71.177v-148.47zm34.79 0h45.306v148.47h-45.306v-148.47zm67.217 0h12.87v148.47h-12.87v-148.47zm34.78 0h46.045v148.47h-46.046v-148.47zm67.955 0h12.859v148.47h-12.86v-148.47zM12.207 298.088c-6.055 0-10.955 4.902-10.955 10.957 0 6.055 4.9 10.955 10.955 10.955h340.59c6.055 0 10.954-4.9 10.954-10.955s-4.9-10.956-10.954-10.956H12.207z"/></svg>