<svg xmlns="http://www.w3.org/2000/svg" width="320" height="320" viewBox="0 0 320 320"><path d="M20.487 11.272C9.194 11.272 0 21.206 0 33.426v96.902c0 12.19 9.194 22.114 20.487 22.114H73.2v133.593c0 12.51 9.976 22.693 22.237 22.693h129.269c12.23 0 22.177-10.184 22.179-22.693V152.442h52.628c11.293 0 20.487-9.925 20.487-22.114V33.427c0-12.221-9.194-22.155-20.487-22.155H20.487zm0 21.084l278.429 1.07-.371 97.932-51.66-.193V87.293h8.482v8.484a10.536 10.536 0 0 0 10.543 10.541 10.535 10.535 0 0 0 10.54-10.54V76.75a10.534 10.534 0 0 0-10.54-10.541H54.132a10.536 10.536 0 0 0-10.543 10.54v19.028a10.536 10.536 0 0 0 10.543 10.541 10.534 10.534 0 0 0 10.541-10.54v-8.485H73.2v43.228l-52.116-.193-.597-97.972zm73.797 54.937h25.72v199.059l-25.72-.317V87.293zm54.362 0h77.124l-1.062 200.35-76.062-.938V87.293z"/></svg>