<svg xmlns="http://www.w3.org/2000/svg" width="320" height="320" viewBox="0 0 320 320"><path d="M109.844 0C84.449 0 63.797 20.671 63.797 46.076v155.799c0 20.833 14.008 38.278 33.043 43.93l-36.195 59.912c-2.693 4.457-1.27 10.24 3.18 12.924A9.32 9.32 0 0 0 68.686 320a9.393 9.393 0 0 0 8.06-4.541l2.099-3.475h162.308l2.1 3.475a9.394 9.394 0 0 0 8.059 4.541c1.654 0 3.337-.44 4.863-1.36 4.448-2.685 5.872-8.477 3.18-12.925l-36.208-59.918c19.014-5.66 33.01-23.099 33.01-43.924V46.076C256.158 20.672 235.505 0 210.128 0H109.845zm0 18.824h100.283c15 0 27.207 12.225 27.207 27.252v155.799c0 15-12.207 27.205-27.207 27.205H109.844c-15.009-.001-27.225-12.207-27.225-27.207V46.076c0-15.027 12.216-27.252 27.225-27.252zm-8.512 16.506a4.701 4.701 0 0 0-4.705 4.705v122.317a4.702 4.702 0 0 0 4.705 4.707h117.326a4.703 4.703 0 0 0 4.705-4.707V40.035a4.701 4.701 0 0 0-4.705-4.705H101.332zm4.707 9.412h107.912v112.904H106.04V44.742zm8.621 135.072c-9.945 0-18.033 8.08-18.033 18.016 0 9.954 8.088 18.05 18.033 18.05 9.945 0 18.033-8.095 18.033-18.05 0-9.936-8.088-18.016-18.033-18.016zm90.653 0c-9.937 0-18.016 8.08-18.016 18.016 0 9.954 8.08 18.053 18.016 18.053 9.953 0 18.05-8.1 18.05-18.053 0-9.936-8.097-18.016-18.05-18.016zm-90.653 9.413c4.752 0 8.621 3.86 8.621 8.603 0 4.761-3.87 8.639-8.62 8.639-4.753 0-8.622-3.878-8.622-8.639 0-4.742 3.87-8.603 8.621-8.603zm90.653 0c4.76 0 8.638 3.86 8.638 8.603 0 4.761-3.877 8.639-8.638 8.639-4.743 0-8.604-3.878-8.604-8.639 0-4.742 3.86-8.603 8.603-8.603zm-87.754 58.675h84.873l8.797 14.56H108.766l8.793-14.56zm-20.166 33.383h125.209l7.175 11.875H90.217l7.176-11.875z"/></svg>