<svg xmlns="http://www.w3.org/2000/svg" width="320" height="320" viewBox="0 0 320 320">
    <path d="M37.419 31.222c-2.186.487-4.131.971-6.076 1.457C13.12 37.539.728 53.09 0 72.042c.728 18.953 13.12 34.26 31.343 39.118 1.945.487 3.89.973 6.076 1.458H320v-17.25c-7.289-.486-13.364-3.403-17.494-9.477-2.916-3.888-3.888-8.26-3.646-13.12v-1.7c-.243-4.86.73-9.233 3.646-13.121 4.13-6.074 10.205-8.99 17.494-9.475V31.222H37.419zm6.803 17.252h238.844c-.242.728-.73 1.214-.973 1.942h1.216c-.485.73-.73 1.458-.973 2.187h.973v.002c-2.916 5.345-4.616 10.69-5.588 16.28 0 .972-.243 1.943-.243 3.157.243.973.243 1.945.243 2.916.97 5.59 2.671 10.692 5.588 16.281h-1.214c.244.728.73 1.214.972 1.942h-.972c.244.73.487 1.458.972 2.188H44.222c-11.664 0-19.923-6.075-22.596-16.038-.244-1.7-.488-3.401-.488-4.859-.244-.73-.244-1.216 0-1.701-.244-.243-.243-.729-.243-.972 0-.242 0-.729.243-.972 0-.972 0-1.946.243-2.917 0-.971.001-2.187.245-3.402 2.672-9.962 10.931-16.034 22.596-16.034zM37.419 119.3c-2.186.487-4.131.973-6.076 1.459C13.12 125.619.728 141.17 0 160.122c.728 18.953 13.12 34.26 31.343 39.118 1.945.486 3.89.973 6.076 1.458H320v-17.251c-7.289-.487-13.364-3.402-17.494-9.477-2.916-3.887-3.888-8.26-3.646-13.12v-1.7c-.243-4.86.73-9.234 3.646-13.122 4.13-6.074 10.205-8.99 17.494-9.475V119.3H37.419zm6.803 17.252h238.844c-.242.728-.73 1.214-.973 1.942h1.216c-.485.73-.73 1.458-.973 2.187h.973v.002c-2.916 5.345-4.616 10.691-5.588 16.28 0 .972-.243 1.944-.243 3.159.243.972.243 1.943.243 2.914.97 5.59 2.671 10.692 5.588 16.281h-1.214c.244.729.73 1.214.972 1.943h-.972c.244.729.487 1.458.972 2.187H44.222c-11.664 0-19.923-6.075-22.596-16.038-.244-1.7-.488-3.401-.488-4.859-.244-.73-.244-1.216 0-1.701-.244-.243-.243-.729-.243-.972 0-.242 0-.729.243-.972 0-.972 0-1.944.243-2.915 0-.972.001-2.187.245-3.402 2.672-9.962 10.931-16.036 22.596-16.036zm-6.803 70.828a235.33 235.33 0 0 0-6.076 1.458C13.12 213.698.728 229.248 0 248.2c.728 18.954 13.12 34.262 31.343 39.12 1.945.487 3.89.974 6.076 1.459H320v-17.252c-7.289-.487-13.364-3.402-17.494-9.476-2.916-3.887-3.888-8.26-3.646-13.12v-1.7c-.243-4.86.73-9.234 3.646-13.122 4.13-6.075 10.205-8.99 17.494-9.475V207.38H37.419zm6.803 17.25h238.844c-.242.728-.73 1.215-.973 1.944h1.216c-.485.73-.73 1.458-.973 2.187h.973v.002c-2.916 5.345-4.616 10.69-5.588 16.28 0 .972-.243 1.942-.243 3.157.243.972.243 1.945.243 2.916.97 5.59 2.671 10.692 5.588 16.28h-1.214c.244.73.73 1.215.972 1.943h-.972c.244.73.487 1.458.972 2.188H44.222c-11.664 0-19.923-6.075-22.596-16.038-.244-1.7-.488-3.401-.488-4.86-.244-.728-.244-1.215 0-1.7-.244-.244-.243-.729-.243-.972 0-.242 0-.73.243-.972 0-.972 0-1.946.243-2.917 0-.972.001-2.187.245-3.402 2.672-9.962 10.931-16.036 22.596-16.036z"/>
</svg>
