<svg xmlns="http://www.w3.org/2000/svg" viewBox="0 0 320 268" width="320" height="268">
    <path d="M34.765 0C15.653 0 .13 14.662.13 32.484v55.232a10.188 10.153 0 0 0 0 3.22v144.58c0 17.822 14.715 32.484 32.6 32.484h254.674C305.286 268 320 253.338 320 235.516V71.06c0-17.821-14.94-30.454-30.56-30.454H163.12c-6.565 0-10.188-5.415-10.188-10.152 0-17.822-14.94-30.454-30.56-30.454H34.765zm0 20.303h87.608c4.754 0 10.186 3.609 10.186 10.15a10.188 10.153 0 0 0 .201 2.01 10.188 10.153 0 0 0 .002.01c1.045 14.803 13.256 28.437 30.36 28.437H289.44c4.754 0 10.186 3.608 10.186 10.15v8.123H20.503V32.484c0-6.542 4.852-12.18 14.262-12.18zM20.503 99.486h279.123v136.03c0 6.542-5.658 12.18-12.223 12.18H32.728c-6.565 0-12.225-5.638-12.225-12.18V99.486z"/>
</svg>
