<svg xmlns="http://www.w3.org/2000/svg" width="320" height="320" viewBox="0 0 320 320">
    <path d="M68.764 0C56.08 0 45.717 10.312 45.717 23.021v273.907C45.717 309.634 56.08 320 68.764 320H251.21c12.76 0 23.072-10.365 23.072-23.072V82.449c0-.781-.234-1.51-.469-2.29.08-3.076-.65-6.043-2.89-8.284l-68.54-68.541c-2.214-2.24-5.235-2.97-8.28-2.918-.755-.154-1.486-.416-2.318-.416H68.764zm0 22.814h114.088v48.022c0 12.706 7.89 20.57 20.572 20.57h48.047v205.522c0 .104-.156.209-.26.209l-182.633-.21.186-274.113zm136.95 16.198l29.557 29.531-29.556-.05V39.011z"/>
</svg>
