<svg xmlns="http://www.w3.org/2000/svg" width="320" height="320" viewBox="0 0 320 320">
    <path d="M159.28.002c-8.384.097-15.846 3.07-22.319 8.536-10.01 8.452-13.808 19.55-13.035 32.768H103.47V92.55h112.955V41.131h-20.392c.628-10.69-1.711-20.276-8.707-28.309-6.951-7.986-15.717-12.44-26.356-12.8-.568-.02-1.13-.026-1.689-.02zm.718 20.6c7.148.008 13.508 5.437 15.052 12.286.11.49.195.985.255 1.488v.002c.06.501.094 1.009.1 1.52v.003a14.429 14.429 0 0 1-.678 4.523 15.446 15.446 0 0 1-1.188 2.778 16.418 16.418 0 0 1-2.705 3.623 16.316 16.316 0 0 1-3.592 2.745c-.877.494-1.801.904-2.761 1.22a14.611 14.611 0 0 1-4.514.727 14.62 14.62 0 0 1-5.927-1.282 16.254 16.254 0 0 1-5.943-4.559 15.853 15.853 0 0 1-2.345-3.864 15.195 15.195 0 0 1-.523-1.418 14.592 14.592 0 0 1-.666-4.527c0-.034.006-.068.006-.102.022-.99.141-1.965.356-2.91a15.36 15.36 0 0 1 1.625-4.167 16.192 16.192 0 0 1 1.701-2.442c2.878-3.416 7.15-5.649 11.747-5.644zM51.362 50.954V320h217.276V51.04H226.87v21.951h19.817V298.05H73.31V72.905h19.541v-21.95h-41.49z"/>
</svg>
