<svg xmlns="http://www.w3.org/2000/svg" width="320" height="320" viewBox="0 0 320 320">
    <path d="M320 201.839c0-106.773-65.785-181.357-160.022-181.357C65.738 20.482-.046 95.066 0 203.134h.205c0 .044-.067.216-.067.34v69.759c0 14.5 12.896 26.285 28.838 26.285h9.425c15.896 0 28.838-11.785 28.838-26.285v-69.76c0-14.51-12.942-26.282-28.838-26.282h-9.425c-2.249 0-4.245.714-6.29 1.17 7.697-71.271 50.98-136.5 137.293-136.5 86.403 0 129.616 65.354 137.315 136.5-2.114-.456-4.065-1.17-6.312-1.17h-9.448c-15.917 0-28.861 11.773-28.861 26.283v69.759c0 14.5 12.944 26.285 28.86 26.285h9.449c15.94 0 28.838-11.785 28.838-26.285v-69.76c0-.543-.319-1.044-.34-1.555l.52-.08z"/>
</svg>
