<svg xmlns="http://www.w3.org/2000/svg" width="320" height="320" viewBox="0 0 320 320">
    <path d="M160.001 0C71.775 0 0 71.774 0 160s71.775 160 160.001 160S320 248.226 320 160 248.227 0 160.001 0zm0 17.297c78.682 0 142.702 64.017 142.702 142.703S238.683 302.7 160 302.7 17.297 238.687 17.297 160c0-78.686 64.022-142.703 142.704-142.703zm-20.058 81.699c-1.802.127-2.994 1.817-2.994 4.79v112.43c0 4.758 3.048 6.228 6.773 3.27l68.135-54.106c3.725-2.958 3.725-7.8 0-10.758l-68.135-54.108c-1.396-1.109-2.697-1.594-3.779-1.518z"/>
</svg>
