<svg xmlns="http://www.w3.org/2000/svg" viewBox="0 0 320 268" width="320" height="268">
  <path d="M 34.765331,0 C 15.652651,0 0.12886979,14.662367 0.12886979,32.483963 l 0,55.231885 a 10.18798,10.152558 0 0 0 0,3.219395 l 0,144.580787 C 0.12886979,253.33764 14.844347,268 32.728122,268 L 287.4027,268 C 305.28647,268 320,253.33763 320,235.51603 L 320,71.060252 C 320,53.238655 305.05992,40.606414 289.43991,40.606414 l -126.31868,0 c -6.56493,0 -10.188,-5.41519 -10.188,-10.152576 C 152.93323,12.632242 137.99315,0 122.37313,0 L 34.765331,0 Z m 0,20.303207 87.607799,0 c 4.75393,0 10.18605,3.608525 10.18605,10.150631 a 10.18798,10.152558 0 0 0 0.20118,2.008714 10.18798,10.152558 0 0 0 0.002,0.0098 c 1.04503,14.803666 13.25596,28.437337 30.35892,28.437337 l 126.31868,0 c 4.7539,0 10.18604,3.608524 10.18604,10.15063 l 0,8.12245 -279.123036,0 0,-46.698739 c 0,-6.542104 4.851606,-12.180755 14.262417,-12.180755 z m -14.262417,79.182703 279.123036,0 0,136.03012 c 0,6.54212 -5.65833,12.18076 -12.22325,12.18076 l -254.674578,0 c -6.564932,0 -12.225208,-5.63864 -12.225208,-12.18076 l 0,-136.03012 z"/>
</svg>
