<svg xmlns="http://www.w3.org/2000/svg" width="320" height="320" viewBox="0 0 320 320"><path d="M167.816.002c-7.425.086-14.03 2.718-19.762 7.558-8.864 7.484-12.227 17.312-11.542 29.017h-18.116v45.377H218.42v-45.53h-18.058c.556-9.467-1.516-17.955-7.711-25.07C186.495 4.285 178.733.339 169.313.02a33.031 33.031 0 0 0-1.497-.017zm.637 18.242a12.79 12.79 0 0 1 3.937.631c.42.136.83.293 1.232.469a14.143 14.143 0 0 1 3.356 2.069 14.525 14.525 0 0 1 1.869 1.856c1.414 1.684 2.447 3.689 2.935 5.855.195.866.302 1.758.313 2.666.086 7.352-6.324 13.837-13.672 13.83-4.133-.005-7.966-2.063-10.51-5.17v-.003c-1.977-2.417-3.175-5.469-3.128-8.684.106-7.272 6.431-13.526 13.668-13.519zM72.255 45.123v187.402l-12.35 10.98L30.32 269.8c-8.623 7.675-12.008 17.783-9.525 28.476 2.426 10.448 9.489 17.764 19.89 20.603 2.718.744 5.426 1.121 8.069 1.121 7.608 0 14.556-3.066 20.103-8.868 8.724-9.15 17.408-18.368 25.857-27.77h169.942V45.197h-36.987v19.438h17.55v199.289H112.065a30735.143 30735.143 0 0 0 34.254-38.511l10.1-11.37c1.11 4.392 3.855 8.632 8.19 12.375.743.649 1.431 1.364 2.118 2.079.911.931 1.824 1.872 2.81 2.756 7.609 6.846 19.693 6.703 26.888-.322a4285.33 4285.33 0 0 0 36.516-36.177c7.654-7.675 7.663-19.514.027-27.545-1.297-1.373-2.642-2.699-3.986-4.015l-1.665-1.636c-4.072-4.054-10.616-8.625-19.136-6.79l-21.471-21.895c1.213-6.921-1.616-13.927-8.237-19.739-.753-.649-1.439-1.382-2.134-2.115-.884-.921-1.778-1.843-2.7-2.7-7.758-7.212-20.002-7.09-27.47.255a6398.62 6398.62 0 0 0-35.81 35.492c-4.045 4.035-6.265 9.113-6.255 14.313 0 5.276 2.316 10.465 6.481 14.603l5.416 5.277c2.417 2.332 5.982 5.284 10.825 6.374-4.269 3.508-8.502 7.046-12.64 10.695a12922.865 12922.865 0 0 0-22.495 19.928V64.56h17.303V45.123H72.255zM160 118.233c1.076.022 2.159.581 3.271 1.648 2.23 2.136 4.408 4.33 6.535 6.57 2.191 2.308 2.171 4.2-.07 6.43a11162.69 11162.69 0 0 1-35.311 35.01c-.899.886-2.154 1.411-3.257 2.114-1.121-.528-2.103-.739-2.726-1.329-2.691-2.545-5.382-5.105-7.861-7.852-1.645-1.823-1.18-3.859.484-5.519 11.88-11.854 23.763-23.706 35.7-35.504 1.089-1.077 2.159-1.591 3.235-1.569zm11.122 21.992c9.853 9.987 19.742 20.007 29.143 29.534l-28.69 29.44-29.01-29.892 28.557-29.082zm40.657 29.477c1.051-.019 2.124.457 3.196 1.453 2.262 2.1 4.44 4.296 6.57 6.532 2.284 2.397 2.321 4.375-.026 6.713a6190.006 6190.006 0 0 1-35.355 34.979c-.863.847-2.292 1.46-3.5 1.541-2.456.167-11.153-8.626-11.223-11.597.287-.544.639-1.662 1.346-2.466 1.42-1.611 3.037-3.048 4.566-4.564 10.453-10.357 20.903-20.717 31.355-31.075.99-.982 2.02-1.497 3.071-1.516zm-61.792 16.29l5.087 4.818c-.428.595-.65.94-.908 1.253-30.72 37.27-63.225 72.952-96.324 108.101-1.364 1.45-3.194 2.67-5.041 3.417-5.607 2.269-12.118-.03-15.398-5.153-3.463-5.41-2.477-11.763 2.845-16.664 34.831-32.077 70.099-63.66 106.823-93.578.923-.752 1.903-1.435 2.916-2.195z"/></svg>