<svg xmlns="http://www.w3.org/2000/svg" width="320" height="320" viewBox="0 0 320 320"><path d="M159.958 0C98.332 0 32.62 35.004 31.466 132.743c-11.399 4.643-19.259 15.995-18.648 28.968l3.095 63.463c.733 15.955 13.796 28.46 29.752 28.46.173 0 1.324-.022 1.497-.032 13.827-.672 26.32-7.799 35.147-20.058 8.38-11.627 12.556-26.81 11.782-42.744-1.373-28.755-18.64-52.791-41.639-58.803C53.722 62.421 93.576 20.852 159.96 20.852c25.075 0 106.33 8.24 107.665 111.946-7.575 1.716-14.827 5.37-21.056 11.062-12.25 11.18-19.763 28.328-20.619 47.032-.855 18.266 4.877 35.566 15.732 47.47a46.726 46.726 0 0 0 19.979 12.942c-2.744 11.185-9.735 19.323-21.65 24.423-11.385 4.873-24.656 6.132-34.582 6.25-1.223-3.1-2.944-6.053-5.312-8.651-5.834-6.425-14.499-10.356-25.505-10.824-17.238 0-31.269 11.974-31.95 27.227-.377 7.922 2.963 15.731 9.174 21.422 5.774 5.285 13.52 8.411 21.881 8.809.153.01 1.478.04 1.63.04 13.189 0 24.458-7.045 29.364-17.177 12.962-.067 29.036-1.739 43.51-7.922 19.45-8.335 30.814-23.213 34.237-42.755 4.405-1.24 8.592-3.119 12.07-6.284 5.904-5.376 9.357-12.717 9.724-20.69l2.931-63.514c.353-7.583-2.203-14.794-7.212-20.302-3.107-3.414-7.093-5.715-11.43-7.367C287.93 35.157 219.034 0 159.958 0zM43.138 151.285c15.283-.001 29.072 18.552 30.12 40.525.55 11.241-2.241 21.739-7.863 29.538-5.05 7.015-11.893 11.067-19.264 11.423l-.468 10.437V232.78c-4.785 0-8.705-3.755-8.919-8.591l-3.095-63.486c-.234-4.94 3.603-9.164 9.489-9.42zm233.175 1.144c.45-.001.907.013 1.368.046l.006-.002.004.002c2.78.133 5.286 1.193 6.854 2.923 1.292 1.415 1.904 3.186 1.802 5.284l-2.933 63.535a8.882 8.882 0 0 1-2.92 6.222c-1.763 1.62-4.035 2.556-6.499 2.332h-.019c-7.91-.356-13.541-4.797-16.881-8.452-7.158-7.85-10.917-19.67-10.316-32.469.59-13.032 5.764-25.211 13.838-32.573 3.398-3.102 8.934-6.83 15.695-6.848zM175.322 283.375h.062c3.716.174 7.199 1.66 9.306 3.982.876.967 1.903 2.515 1.81 4.419-.181 3.992-5.292 7.372-11.157 7.372v10.426l-.671-10.448c-3.411-.163-6.6-1.383-8.758-3.358-1.161-1.069-2.535-2.811-2.423-5.072.173-3.971 5.243-7.32 11.831-7.32z"/></svg>