<svg xmlns="http://www.w3.org/2000/svg" width="320" height="320" viewBox="0 0 320 320"><path d="M160 0C71.773 0 0 71.774 0 160s71.774 160 160 160 160-71.774 160-160S248.227 0 160 0zm0 17.297c78.683 0 142.703 64.016 142.703 142.703S238.683 302.703 160 302.703 17.297 238.687 17.297 160 81.317 17.297 160 17.297zm-29.256 76.932c-5.659 0-10.236 4.599-10.236 10.279v110.986c0 5.68 4.577 10.28 10.236 10.28 5.65 0 10.246-4.6 10.246-10.28V104.508c0-5.682-4.596-10.28-10.246-10.28zm58.504 0c-5.651 0-10.244 4.599-10.244 10.279v110.986c0 5.68 4.594 10.28 10.244 10.28 5.651 0 10.246-4.6 10.246-10.28V104.508c0-5.682-4.595-10.28-10.246-10.28z"/></svg>